<svg id="svg" version="1.1" xmlns="http://www.w3.org/2000/svg" xmlns:xlink="http://www.w3.org/1999/xlink" width="400" height="116.69902912621359" viewBox="0, 0, 400,116.69902912621359"><g id="svgg"><path id="path0" d="M33.826 22.085 C 30.831 22.494,29.085 23.215,27.724 24.605 C 23.791 28.623,24.758 41.670,30.347 59.968 L 31.177 62.686 30.675 64.718 C 28.259 74.502,28.832 84.362,32.209 91.083 C 35.590 97.816,41.982 101.104,44.230 97.269 C 45.164 95.676,45.223 95.149,45.270 88.083 C 45.329 79.161,45.478 77.413,46.419 74.583 C 47.850 70.281,51.935 66.594,57.125 64.922 C 58.976 64.325,64.599 67.182,66.890 69.883 C 70.078 73.640,70.700 76.494,70.746 87.583 C 70.773 94.100,70.798 94.661,71.114 95.706 C 72.394 99.936,76.129 100.024,80.266 95.920 C 83.713 92.501,85.395 88.653,86.532 81.583 C 87.176 77.582,86.666 70.123,85.393 64.931 L 84.824 62.611 85.319 61.097 C 90.864 44.111,92.221 29.516,88.672 25.027 C 85.570 21.103,77.959 20.816,62.205 24.029 L 57.993 24.888 54.871 24.187 C 45.819 22.153,38.604 21.432,33.826 22.085 " stroke="none" fill="#fbfbfb" fill-rule="evenodd"></path><path id="path1" d="M51.466 2.756 C 51.413 2.809,50.517 2.962,49.476 3.095 C 48.435 3.228,47.433 3.405,47.250 3.488 C 47.067 3.572,45.923 3.848,44.708 4.103 C 43.494 4.357,42.500 4.626,42.500 4.699 C 42.500 4.773,42.380 4.833,42.233 4.833 C 41.908 4.833,39.117 5.685,39.000 5.820 C 38.902 5.934,36.917 6.665,36.375 6.788 C 36.169 6.834,36.000 6.938,36.000 7.019 C 36.000 7.100,35.916 7.167,35.813 7.167 C 35.586 7.167,33.618 8.026,33.500 8.177 C 33.454 8.235,32.948 8.492,32.375 8.748 C 31.802 9.003,31.333 9.268,31.333 9.337 C 31.333 9.405,30.927 9.626,30.430 9.828 C 29.933 10.030,29.408 10.326,29.263 10.486 C 29.118 10.646,28.625 10.952,28.167 11.167 C 27.708 11.381,27.333 11.612,27.333 11.679 C 27.333 11.747,26.977 12.008,26.542 12.260 C 26.106 12.513,25.511 12.914,25.220 13.151 C 24.928 13.389,24.337 13.846,23.906 14.167 C 21.366 16.059,17.859 19.464,15.250 22.571 C 14.883 23.007,14.340 23.648,14.042 23.994 C 13.744 24.340,13.500 24.695,13.500 24.782 C 13.500 24.869,13.269 25.197,12.986 25.512 C 12.703 25.826,12.354 26.308,12.211 26.583 C 12.069 26.858,11.807 27.271,11.630 27.500 C 11.083 28.207,9.667 30.559,9.667 30.759 C 9.667 30.864,9.521 31.117,9.344 31.321 C 9.166 31.526,8.852 32.100,8.646 32.597 C 8.440 33.094,8.223 33.500,8.162 33.500 C 8.102 33.500,7.837 34.044,7.573 34.708 C 7.309 35.373,7.049 35.954,6.995 36.000 C 6.941 36.046,6.687 36.683,6.430 37.417 C 6.174 38.150,5.904 38.825,5.831 38.917 C 5.758 39.008,5.495 39.833,5.247 40.750 C 5.000 41.667,4.730 42.500,4.648 42.601 C 4.566 42.702,4.309 43.752,4.076 44.934 C 3.844 46.116,3.578 47.263,3.486 47.483 C 2.464 49.918,2.459 66.392,3.478 68.278 C 3.569 68.446,3.807 69.483,4.007 70.583 C 4.207 71.683,4.509 72.921,4.679 73.333 C 4.848 73.746,5.109 74.571,5.258 75.167 C 5.407 75.762,5.701 76.625,5.910 77.083 C 6.119 77.542,6.426 78.348,6.592 78.875 C 6.758 79.402,6.956 79.833,7.030 79.833 C 7.105 79.833,7.169 79.927,7.172 80.042 C 7.175 80.156,7.323 80.550,7.500 80.917 C 7.677 81.283,7.825 81.672,7.828 81.780 C 7.831 81.888,7.927 82.075,8.042 82.196 C 8.157 82.318,8.438 82.824,8.667 83.321 C 8.896 83.818,9.158 84.308,9.250 84.409 C 9.342 84.509,9.601 84.965,9.827 85.421 C 10.053 85.877,10.409 86.482,10.619 86.766 C 10.828 87.049,11.000 87.328,11.000 87.386 C 11.000 87.541,12.727 90.074,12.877 90.140 C 12.949 90.171,13.129 90.434,13.278 90.723 C 13.791 91.720,16.834 95.209,19.261 97.583 C 21.336 99.613,24.129 102.000,24.658 102.196 C 24.846 102.266,25.000 102.382,25.000 102.456 C 25.000 102.719,31.148 106.667,31.557 106.667 C 31.611 106.667,32.007 106.890,32.436 107.162 C 32.866 107.435,33.488 107.745,33.817 107.852 C 34.147 107.959,34.604 108.176,34.833 108.334 C 35.063 108.492,35.737 108.791,36.333 108.998 C 36.929 109.205,37.792 109.548,38.250 109.760 C 38.708 109.973,39.608 110.276,40.250 110.434 C 40.892 110.592,41.454 110.777,41.500 110.844 C 41.605 110.999,43.106 111.421,44.417 111.665 C 44.967 111.767,45.567 111.918,45.750 112.001 C 46.193 112.200,48.482 112.629,49.833 112.766 C 50.429 112.826,51.170 112.979,51.479 113.104 C 52.286 113.433,63.494 113.437,64.437 113.109 C 64.793 112.985,65.571 112.835,66.167 112.774 C 67.461 112.644,70.049 112.151,70.167 112.013 C 70.212 111.960,71.065 111.748,72.060 111.544 C 73.056 111.340,74.095 111.060,74.370 110.923 C 74.645 110.786,75.443 110.515,76.144 110.322 C 76.844 110.128,77.573 109.870,77.764 109.749 C 77.955 109.628,78.705 109.324,79.431 109.075 C 80.156 108.826,80.787 108.566,80.833 108.498 C 80.879 108.431,81.329 108.200,81.833 107.985 C 82.697 107.618,84.477 106.687,86.167 105.718 C 87.394 105.014,90.737 102.815,90.917 102.593 C 91.008 102.480,91.402 102.187,91.792 101.942 C 92.181 101.697,92.500 101.419,92.500 101.326 C 92.500 101.232,92.642 101.102,92.817 101.036 C 93.334 100.841,96.892 97.583,98.460 95.868 C 99.261 94.992,100.067 94.112,100.250 93.911 C 101.113 92.967,103.168 90.214,104.435 88.306 C 106.088 85.815,108.492 81.314,108.998 79.764 C 109.115 79.404,109.343 78.879,109.504 78.597 C 109.666 78.314,109.969 77.483,110.180 76.750 C 110.390 76.017,110.654 75.267,110.766 75.083 C 110.878 74.900,111.132 74.037,111.332 73.167 C 111.531 72.296,111.762 71.433,111.846 71.250 C 112.102 70.687,112.467 68.834,112.667 67.083 C 112.771 66.167,112.945 65.237,113.054 65.016 C 113.331 64.450,113.332 51.385,113.054 50.817 C 112.947 50.597,112.774 49.704,112.671 48.833 C 112.456 47.013,112.029 44.827,111.842 44.583 C 111.772 44.492,111.547 43.667,111.341 42.750 C 111.136 41.833,110.871 40.930,110.752 40.742 C 110.633 40.554,110.404 39.916,110.242 39.325 C 110.081 38.734,109.736 37.784,109.475 37.215 C 109.214 36.646,109.000 36.130,109.000 36.067 C 109.000 36.005,108.707 35.346,108.348 34.602 C 107.989 33.858,107.574 32.987,107.426 32.667 C 107.278 32.346,106.862 31.596,106.502 31.000 C 106.142 30.404,105.752 29.729,105.635 29.500 C 105.272 28.789,103.662 26.350,103.483 26.239 C 103.389 26.182,103.248 25.973,103.168 25.775 C 102.799 24.862,100.289 21.890,97.446 19.000 C 95.021 16.535,94.114 15.724,91.833 13.981 C 91.237 13.526,90.570 13.003,90.351 12.818 C 90.131 12.633,89.662 12.335,89.309 12.154 C 88.956 11.974,88.667 11.764,88.667 11.689 C 88.667 11.613,88.357 11.411,87.979 11.241 C 87.601 11.070,87.029 10.721,86.706 10.465 C 86.384 10.209,86.036 10.000,85.933 10.000 C 85.830 10.000,85.356 9.738,84.879 9.417 C 84.403 9.096,83.967 8.833,83.911 8.833 C 83.856 8.833,83.040 8.458,82.099 8.000 C 81.158 7.542,80.264 7.167,80.111 7.167 C 79.958 7.167,79.833 7.102,79.833 7.022 C 79.833 6.943,79.365 6.715,78.792 6.517 C 78.219 6.318,77.525 6.052,77.250 5.926 C 76.975 5.800,76.112 5.499,75.333 5.256 C 74.554 5.014,73.767 4.745,73.583 4.660 C 73.400 4.574,72.313 4.313,71.167 4.080 C 70.021 3.846,68.933 3.584,68.750 3.496 C 67.561 2.928,51.962 2.260,51.466 2.756 M131.000 40.833 L 131.000 62.000 143.042 61.997 C 149.665 61.996,155.165 61.940,155.265 61.872 C 155.365 61.805,155.657 60.887,155.914 59.833 C 156.170 58.779,156.438 57.842,156.508 57.750 C 156.578 57.658,156.845 56.721,157.101 55.667 C 157.358 54.612,157.618 53.712,157.680 53.667 C 157.741 53.621,157.867 53.227,157.959 52.792 L 158.126 52.000 149.813 52.000 L 141.500 52.000 141.500 35.833 L 141.500 19.667 136.250 19.667 L 131.000 19.667 131.000 40.833 M151.167 20.071 C 151.167 20.615,151.532 22.167,151.660 22.167 C 151.716 22.167,151.773 22.298,151.786 22.458 C 151.816 22.826,152.639 26.164,152.782 26.500 C 152.840 26.637,152.900 26.787,152.914 26.833 C 152.980 27.044,153.372 28.480,153.518 29.042 L 153.680 29.667 157.673 29.667 L 161.667 29.667 161.667 45.833 L 161.667 62.000 167.000 62.000 L 172.333 62.000 172.333 45.833 L 172.333 29.667 177.250 29.667 C 181.980 29.667,182.167 29.655,182.167 29.348 C 182.167 28.928,181.371 25.510,181.173 25.083 C 181.089 24.900,180.819 23.850,180.573 22.750 C 180.328 21.650,180.061 20.679,179.980 20.592 C 179.899 20.505,179.833 20.261,179.833 20.050 L 179.833 19.667 165.500 19.667 L 151.167 19.667 151.167 20.071 M183.215 20.357 C 183.266 20.737,183.375 21.093,183.457 21.149 C 183.539 21.205,183.781 21.887,183.996 22.667 C 184.210 23.446,184.483 24.271,184.602 24.500 C 184.721 24.729,185.017 25.592,185.259 26.417 C 185.501 27.242,185.761 27.992,185.835 28.083 C 185.910 28.175,186.175 28.962,186.424 29.833 C 186.673 30.704,186.929 31.454,186.992 31.500 C 187.055 31.546,187.316 32.333,187.573 33.250 C 187.830 34.167,188.093 34.954,188.157 35.000 C 188.221 35.046,188.483 35.833,188.740 36.750 C 188.997 37.667,189.256 38.454,189.314 38.500 C 189.373 38.546,189.658 39.333,189.948 40.250 C 190.920 43.328,191.511 45.080,191.750 45.583 C 191.880 45.858,192.169 46.728,192.392 47.516 C 192.616 48.304,192.880 49.092,192.980 49.266 C 193.079 49.441,193.348 50.248,193.576 51.061 C 193.804 51.874,194.056 52.624,194.135 52.728 C 194.215 52.832,194.453 53.554,194.666 54.333 C 194.879 55.112,195.151 55.938,195.270 56.167 C 195.390 56.396,195.648 57.146,195.844 57.833 C 196.039 58.521,196.303 59.308,196.431 59.583 C 196.558 59.858,196.841 60.683,197.058 61.417 C 197.670 63.487,197.907 63.372,199.465 60.250 C 199.694 59.792,199.932 59.379,199.995 59.333 C 200.058 59.288,200.325 58.800,200.589 58.250 C 200.852 57.700,201.118 57.212,201.179 57.167 C 201.240 57.121,201.544 56.606,201.854 56.023 C 202.532 54.744,203.160 53.600,205.190 49.941 C 205.590 49.222,206.117 48.247,206.363 47.775 C 206.608 47.303,206.874 46.842,206.954 46.750 C 207.035 46.658,207.321 46.133,207.592 45.583 C 207.862 45.033,208.158 44.503,208.250 44.404 C 208.342 44.306,208.604 43.818,208.833 43.321 C 209.063 42.824,209.384 42.268,209.548 42.087 C 209.712 41.905,209.889 41.585,209.942 41.374 C 210.049 40.947,210.199 41.157,210.988 42.833 C 211.183 43.246,211.448 43.771,211.577 44.000 C 211.707 44.229,212.052 44.904,212.344 45.500 C 212.636 46.096,212.931 46.621,213.000 46.667 C 213.069 46.712,213.297 47.163,213.507 47.667 C 213.717 48.171,213.974 48.696,214.078 48.833 C 214.182 48.971,214.746 50.058,215.330 51.250 C 215.914 52.442,216.443 53.454,216.505 53.500 C 216.566 53.546,216.831 54.071,217.093 54.667 C 217.356 55.262,217.611 55.788,217.661 55.833 C 217.710 55.879,218.237 56.892,218.831 58.083 C 219.425 59.275,219.975 60.325,220.053 60.417 C 220.130 60.508,220.432 61.071,220.722 61.667 C 221.261 62.772,221.741 63.122,221.942 62.554 C 222.001 62.387,222.180 61.950,222.341 61.583 C 222.501 61.217,222.791 60.397,222.986 59.763 C 223.181 59.128,223.405 58.528,223.483 58.430 C 223.562 58.331,223.841 57.575,224.104 56.750 C 224.366 55.925,224.626 55.212,224.682 55.167 C 224.738 55.121,224.992 54.446,225.247 53.667 C 225.502 52.887,225.766 52.175,225.833 52.083 C 225.901 51.992,226.163 51.279,226.417 50.500 C 226.670 49.721,226.933 49.008,227.000 48.917 C 227.067 48.825,227.330 48.112,227.583 47.333 C 227.837 46.554,228.106 45.838,228.181 45.743 C 228.256 45.647,228.516 44.935,228.760 44.159 C 229.003 43.384,229.262 42.675,229.336 42.583 C 229.409 42.492,229.710 41.667,230.005 40.750 C 230.300 39.833,230.600 39.008,230.672 38.917 C 230.744 38.825,231.008 38.112,231.258 37.333 C 231.509 36.554,231.760 35.879,231.817 35.833 C 231.873 35.787,232.136 35.075,232.400 34.250 C 232.664 33.425,232.970 32.600,233.080 32.417 C 233.189 32.233,233.457 31.483,233.675 30.750 C 233.894 30.017,234.124 29.379,234.187 29.333 C 234.250 29.287,234.507 28.613,234.758 27.833 C 235.009 27.054,235.260 26.379,235.317 26.333 C 235.373 26.287,235.634 25.575,235.896 24.750 C 236.159 23.925,236.435 23.172,236.511 23.078 C 236.697 22.843,237.495 20.322,237.498 19.958 C 237.500 19.686,237.125 19.667,231.943 19.667 L 226.386 19.667 226.193 20.311 C 226.087 20.665,226.000 21.078,226.000 21.228 C 226.000 21.377,225.935 21.500,225.856 21.500 C 225.777 21.500,225.501 22.325,225.243 23.333 C 224.984 24.342,224.711 25.167,224.636 25.167 C 224.561 25.167,224.500 25.280,224.500 25.418 C 224.500 25.767,223.618 28.898,223.491 29.000 C 223.434 29.046,223.181 29.871,222.930 30.833 C 222.678 31.795,222.413 32.657,222.340 32.749 C 222.267 32.841,221.997 33.742,221.739 34.750 C 221.481 35.758,221.215 36.622,221.146 36.670 C 221.078 36.717,220.859 37.408,220.659 38.204 C 220.239 39.880,220.135 39.875,219.410 38.149 C 219.164 37.563,218.904 37.046,218.833 37.000 C 218.762 36.954,218.500 36.429,218.250 35.833 C 218.000 35.237,217.739 34.712,217.669 34.667 C 217.599 34.621,217.370 34.171,217.160 33.667 C 216.949 33.162,216.694 32.637,216.593 32.500 C 216.491 32.362,215.660 30.750,214.746 28.917 C 213.831 27.083,213.033 25.545,212.971 25.498 C 212.909 25.451,212.650 24.926,212.395 24.331 C 212.140 23.737,211.878 23.212,211.812 23.164 C 211.746 23.117,211.482 22.592,211.226 21.998 C 210.970 21.403,210.670 20.822,210.558 20.707 C 210.447 20.592,210.306 20.344,210.247 20.157 C 210.069 19.598,209.801 19.863,209.045 21.345 C 208.650 22.118,208.265 22.829,208.188 22.926 C 208.111 23.022,207.840 23.566,207.585 24.134 C 207.330 24.702,207.073 25.167,207.014 25.167 C 206.956 25.167,206.689 25.673,206.422 26.292 C 206.156 26.910,205.887 27.454,205.825 27.500 C 205.763 27.546,205.497 28.033,205.234 28.583 C 204.970 29.133,204.703 29.622,204.640 29.669 C 204.576 29.716,204.316 30.241,204.062 30.836 C 203.807 31.430,203.549 31.954,203.488 32.000 C 203.427 32.046,203.227 32.383,203.044 32.750 C 202.222 34.395,200.149 38.355,199.870 38.814 L 199.561 39.321 199.253 38.119 C 199.083 37.458,198.898 36.879,198.841 36.833 C 198.784 36.787,198.522 35.887,198.259 34.833 C 197.996 33.779,197.725 32.842,197.656 32.750 C 197.587 32.658,197.319 31.758,197.062 30.750 C 196.804 29.742,196.547 28.879,196.491 28.833 C 196.435 28.787,196.184 27.926,195.933 26.920 C 195.683 25.913,195.424 25.051,195.357 25.003 C 195.290 24.956,195.024 24.065,194.765 23.024 C 194.507 21.983,194.192 20.933,194.065 20.691 C 193.939 20.448,193.835 20.119,193.834 19.958 C 193.833 19.687,193.467 19.667,188.478 19.667 L 183.123 19.667 183.215 20.357 M42.750 21.921 C 47.316 22.450,53.092 23.477,56.464 24.359 C 57.625 24.663,57.984 24.693,58.714 24.549 C 59.192 24.455,61.233 24.037,63.250 23.620 C 79.138 20.334,87.032 21.100,89.588 26.176 C 92.249 31.460,90.834 43.814,85.620 60.805 L 85.041 62.694 85.361 63.942 C 87.543 72.459,87.560 80.521,85.413 87.577 C 82.691 96.523,74.501 102.244,71.573 97.247 C 70.661 95.692,70.630 95.384,70.499 86.667 C 70.366 77.751,70.275 76.901,69.152 73.987 C 67.652 70.099,64.448 67.217,59.625 65.417 L 58.000 64.811 56.380 65.418 C 51.392 67.286,48.160 70.286,46.717 74.387 C 45.699 77.279,45.639 77.894,45.505 86.750 C 45.376 95.288,45.359 95.471,44.580 97.000 C 42.754 100.582,38.097 99.442,34.104 94.436 C 29.102 88.165,27.608 76.192,30.424 64.955 L 31.000 62.659 30.427 60.871 C 25.305 44.878,23.765 31.416,26.450 26.103 C 28.323 22.396,34.088 20.917,42.750 21.921 M298.583 68.333 C 298.527 68.425,298.256 68.500,297.981 68.500 C 296.478 68.500,292.531 70.021,292.118 70.760 C 292.044 70.892,291.893 71.001,291.783 71.002 C 291.444 71.005,288.667 73.800,288.667 74.138 C 288.667 74.211,288.523 74.425,288.348 74.613 C 285.830 77.315,285.188 85.652,287.186 89.679 C 287.450 90.212,287.667 90.713,287.667 90.793 C 287.667 90.872,287.799 91.083,287.960 91.260 C 288.121 91.438,288.393 91.808,288.564 92.083 C 289.132 92.994,291.440 95.333,291.771 95.333 C 291.877 95.333,292.004 95.437,292.053 95.564 C 292.102 95.691,292.522 95.967,292.987 96.177 C 293.453 96.387,293.833 96.611,293.833 96.674 C 293.833 96.816,296.372 97.667,296.794 97.667 C 296.962 97.667,297.189 97.756,297.298 97.864 C 297.565 98.131,301.801 98.154,302.350 97.892 C 302.570 97.787,303.275 97.569,303.917 97.409 C 304.972 97.145,307.201 96.096,307.833 95.565 C 308.847 94.715,310.000 93.560,310.000 93.395 C 310.000 93.088,305.595 88.667,305.289 88.667 C 305.141 88.667,304.689 88.985,304.286 89.375 C 302.206 91.381,299.166 91.889,297.129 90.569 C 296.787 90.348,296.438 90.167,296.353 90.167 C 295.740 90.167,293.167 86.594,293.167 85.743 C 293.167 85.625,293.073 85.497,292.958 85.458 C 292.696 85.371,292.659 81.052,292.918 80.869 C 293.011 80.804,293.267 80.300,293.488 79.750 C 294.192 77.995,295.484 76.636,297.288 75.754 C 298.861 74.985,301.528 74.821,301.991 75.465 C 302.042 75.535,302.411 75.737,302.812 75.914 C 303.212 76.091,303.871 76.557,304.276 76.951 C 304.681 77.345,305.129 77.667,305.271 77.667 C 305.557 77.667,310.000 73.201,310.000 72.913 C 310.000 72.762,308.859 71.644,307.823 70.780 C 306.605 69.764,303.270 68.500,301.807 68.500 C 301.455 68.500,301.167 68.425,301.167 68.333 C 301.167 68.237,300.642 68.167,299.927 68.167 C 299.244 68.167,298.640 68.242,298.583 68.333 M179.000 83.000 L 179.000 97.333 182.583 97.333 L 186.167 97.333 186.172 90.292 L 186.177 83.250 186.519 83.708 C 186.707 83.960,186.938 84.167,187.033 84.167 C 187.127 84.167,187.638 84.542,188.167 85.000 C 188.696 85.458,189.170 85.833,189.220 85.833 C 189.271 85.833,189.523 86.027,189.781 86.263 C 190.039 86.499,190.625 86.992,191.083 87.359 C 191.542 87.726,192.142 88.212,192.417 88.439 C 192.692 88.665,193.667 89.449,194.583 90.180 C 195.500 90.912,196.539 91.751,196.893 92.047 C 197.246 92.342,197.663 92.658,197.819 92.750 C 197.975 92.842,198.248 93.052,198.426 93.218 C 198.604 93.384,199.275 93.931,199.917 94.433 C 200.957 95.248,201.398 95.607,202.457 96.500 C 203.195 97.122,203.723 97.500,203.856 97.500 C 203.936 97.500,204.000 91.158,204.000 83.250 L 204.000 69.000 200.419 69.000 L 196.837 69.000 196.794 75.365 L 196.750 81.730 196.145 81.198 C 195.812 80.906,195.483 80.667,195.415 80.667 C 195.346 80.667,195.010 80.423,194.667 80.125 C 193.880 79.442,191.295 77.537,190.484 77.043 C 190.146 76.838,189.827 76.557,189.774 76.418 C 189.721 76.280,189.592 76.167,189.487 76.167 C 189.383 76.167,188.826 75.792,188.250 75.333 C 187.674 74.875,187.117 74.500,187.013 74.500 C 186.908 74.500,186.780 74.389,186.728 74.253 C 186.676 74.118,186.360 73.842,186.025 73.640 C 185.690 73.439,185.304 73.174,185.167 73.053 C 184.552 72.508,182.556 71.048,182.292 70.951 C 182.131 70.892,182.000 70.773,182.000 70.685 C 182.000 70.598,181.719 70.360,181.375 70.155 C 181.031 69.950,180.674 69.700,180.581 69.599 C 180.295 69.288,179.356 68.667,179.173 68.667 C 179.055 68.667,179.000 73.184,179.000 83.000 M240.072 68.794 C 239.974 68.862,239.653 69.404,239.358 70.000 C 239.063 70.596,238.528 71.608,238.168 72.250 C 237.809 72.892,237.361 73.717,237.173 74.083 C 236.985 74.450,236.512 75.325,236.124 76.028 C 234.748 78.516,233.485 80.851,233.318 81.215 C 233.224 81.418,232.820 82.146,232.419 82.833 C 232.018 83.521,231.457 84.568,231.173 85.160 C 230.888 85.753,230.592 86.278,230.514 86.327 C 230.436 86.376,230.134 86.904,229.843 87.500 C 229.287 88.640,228.518 90.082,227.578 91.750 C 227.268 92.300,226.772 93.237,226.477 93.833 C 226.181 94.429,225.882 94.956,225.813 95.004 C 225.611 95.143,224.837 96.888,224.835 97.208 C 224.833 97.477,225.119 97.500,228.506 97.500 L 232.179 97.500 232.514 96.792 C 232.698 96.402,233.177 95.521,233.579 94.833 C 233.981 94.146,234.423 93.340,234.563 93.042 L 234.816 92.500 240.366 92.502 L 245.917 92.503 246.398 93.543 C 246.663 94.115,246.931 94.621,246.994 94.667 C 247.057 94.712,247.436 95.369,247.836 96.125 L 248.564 97.500 252.282 97.500 C 254.598 97.500,256.000 97.438,256.000 97.337 C 256.000 97.053,255.469 95.833,255.345 95.833 C 255.280 95.833,255.009 95.346,254.744 94.750 C 254.478 94.154,254.216 93.667,254.161 93.667 C 254.106 93.667,253.841 93.198,253.572 92.625 C 253.303 92.052,253.040 91.546,252.987 91.500 C 252.934 91.454,252.415 90.517,251.833 89.417 C 251.252 88.317,250.732 87.378,250.680 87.332 C 250.627 87.285,250.066 86.235,249.433 84.998 C 248.800 83.762,248.237 82.712,248.181 82.667 C 248.126 82.621,247.893 82.176,247.665 81.679 C 247.437 81.182,247.175 80.694,247.083 80.596 C 246.992 80.497,246.697 79.967,246.429 79.417 C 246.161 78.867,245.895 78.379,245.839 78.333 C 245.782 78.287,245.515 77.800,245.245 77.250 C 244.974 76.700,244.707 76.212,244.650 76.167 C 244.594 76.121,244.359 75.708,244.129 75.250 C 243.171 73.343,242.492 72.098,242.363 72.010 C 242.287 71.959,242.081 71.556,241.904 71.116 C 241.728 70.676,241.468 70.188,241.327 70.033 C 241.186 69.877,240.971 69.506,240.849 69.208 C 240.628 68.671,240.415 68.558,240.072 68.794 M326.125 69.125 C 326.014 69.377,325.880 69.621,325.826 69.667 C 325.719 69.759,324.471 72.035,323.952 73.083 C 323.771 73.450,323.576 73.787,323.520 73.833 C 323.463 73.879,323.197 74.367,322.929 74.917 C 322.661 75.467,322.392 75.954,322.332 76.000 C 322.272 76.046,322.012 76.533,321.755 77.083 C 321.499 77.633,321.234 78.121,321.167 78.167 C 321.101 78.212,320.831 78.700,320.567 79.250 C 320.303 79.800,320.040 80.287,319.983 80.333 C 319.925 80.379,319.728 80.717,319.546 81.083 C 319.266 81.647,316.902 86.013,314.642 90.139 C 314.307 90.750,313.799 91.700,313.512 92.250 C 313.225 92.800,312.740 93.700,312.433 94.250 C 310.434 97.840,310.200 97.500,314.670 97.500 L 318.340 97.500 318.542 97.042 C 318.653 96.790,318.788 96.546,318.843 96.500 C 318.953 96.408,319.989 94.530,320.614 93.292 L 321.013 92.500 326.577 92.500 L 332.141 92.500 332.324 93.056 C 332.425 93.362,332.637 93.756,332.796 93.931 C 332.954 94.107,333.303 94.719,333.572 95.292 C 333.841 95.865,334.107 96.333,334.164 96.333 C 334.220 96.333,334.361 96.596,334.477 96.917 L 334.688 97.500 338.427 97.500 C 342.656 97.500,342.428 97.600,341.660 96.083 C 341.187 95.149,340.915 94.648,339.422 91.958 C 339.103 91.385,338.610 90.437,338.325 89.850 C 338.041 89.264,337.709 88.685,337.589 88.565 C 337.469 88.445,337.199 87.932,336.988 87.424 C 336.778 86.916,336.554 86.500,336.492 86.500 C 336.430 86.500,336.170 86.031,335.914 85.458 C 335.659 84.885,335.400 84.379,335.340 84.333 C 335.279 84.287,334.907 83.650,334.512 82.917 C 334.117 82.183,333.529 81.096,333.205 80.500 C 332.881 79.904,332.468 79.117,332.286 78.750 C 332.105 78.383,331.910 78.046,331.853 78.000 C 331.796 77.954,331.531 77.467,331.263 76.917 C 330.994 76.367,330.726 75.879,330.665 75.833 C 330.605 75.787,330.310 75.225,330.009 74.583 C 329.709 73.942,329.414 73.379,329.355 73.333 C 329.295 73.287,329.022 72.820,328.748 72.294 C 328.474 71.768,327.971 70.830,327.630 70.210 C 327.289 69.590,326.962 68.990,326.904 68.875 C 326.723 68.520,326.336 68.645,326.125 69.125 M131.000 83.167 L 131.000 97.333 137.125 97.334 C 143.149 97.334,146.167 97.110,146.167 96.663 C 146.167 96.588,146.399 96.475,146.684 96.413 C 147.372 96.262,148.681 95.676,148.964 95.393 C 149.089 95.269,149.279 95.166,149.387 95.165 C 150.631 95.155,155.167 89.711,155.167 88.229 C 155.167 88.103,155.237 88.000,155.322 88.000 C 156.237 88.000,156.276 78.997,155.364 78.340 C 155.296 78.290,155.026 77.710,154.764 77.051 C 154.502 76.391,154.185 75.812,154.060 75.764 C 153.936 75.716,153.833 75.572,153.833 75.443 C 153.833 75.314,153.533 74.881,153.167 74.479 C 152.800 74.078,152.500 73.698,152.500 73.634 C 152.500 73.570,152.069 73.175,151.542 72.754 C 151.015 72.334,150.405 71.840,150.186 71.655 C 149.968 71.470,149.521 71.207,149.192 71.070 C 148.864 70.933,148.555 70.765,148.506 70.697 C 148.382 70.526,147.232 70.055,146.333 69.807 C 145.921 69.693,145.546 69.550,145.500 69.489 C 145.241 69.145,142.750 69.000,137.111 69.000 L 131.000 69.000 131.000 83.167 M158.500 83.250 L 158.500 97.500 167.583 97.500 L 176.667 97.500 176.667 94.333 L 176.667 91.167 171.167 91.167 L 165.667 91.167 165.667 88.667 L 165.667 86.167 169.250 86.167 C 172.004 86.167,172.834 86.118,172.836 85.958 C 172.842 85.614,171.944 81.923,171.833 81.833 C 171.777 81.787,171.629 81.319,171.505 80.792 L 171.280 79.833 168.473 79.833 L 165.667 79.833 165.667 77.500 L 165.667 75.167 171.167 75.167 L 176.667 75.167 176.667 72.083 L 176.667 69.000 167.583 69.000 L 158.500 69.000 158.500 83.250 M206.333 69.288 C 206.333 69.785,206.885 72.167,207.000 72.167 C 207.060 72.167,207.289 72.992,207.508 74.000 L 207.905 75.833 210.619 75.833 L 213.333 75.833 213.333 86.583 L 213.333 97.333 217.000 97.333 L 220.667 97.333 220.667 86.583 L 220.667 75.833 224.021 75.833 L 227.376 75.833 227.264 75.133 C 227.202 74.748,227.090 74.354,227.015 74.258 C 226.939 74.162,226.673 73.146,226.423 72.000 C 226.173 70.854,225.900 69.845,225.817 69.758 C 225.734 69.671,225.667 69.465,225.667 69.300 C 225.667 69.015,225.198 69.000,216.000 69.000 C 206.953 69.000,206.333 69.018,206.333 69.288 M258.333 83.250 L 258.333 97.500 266.570 97.500 L 274.806 97.500 274.991 96.636 C 275.093 96.161,275.238 95.693,275.315 95.595 C 275.391 95.497,275.663 94.554,275.919 93.500 C 276.176 92.446,276.456 91.537,276.541 91.481 C 276.626 91.425,276.671 91.200,276.640 90.981 L 276.583 90.583 271.042 90.539 L 265.500 90.496 265.500 79.748 L 265.500 69.000 261.917 69.000 L 258.333 69.000 258.333 83.250 M344.833 83.167 L 344.833 97.333 348.417 97.333 L 352.000 97.333 352.000 91.392 L 352.000 85.450 353.602 88.600 C 354.483 90.332,355.255 91.787,355.318 91.833 C 355.381 91.879,355.640 92.403,355.895 92.998 C 356.150 93.592,356.413 94.117,356.479 94.164 C 356.546 94.212,356.774 94.662,356.985 95.167 C 357.197 95.671,357.465 96.196,357.582 96.333 C 357.699 96.471,357.845 96.752,357.908 96.958 L 358.022 97.333 362.279 97.333 L 366.536 97.333 366.424 96.875 C 366.363 96.623,366.138 96.154,365.924 95.833 C 365.380 95.017,364.371 93.242,362.991 90.678 C 362.723 90.180,362.446 89.730,362.375 89.678 C 362.304 89.626,362.034 89.171,361.775 88.667 C 361.038 87.228,360.214 85.769,360.015 85.549 C 359.714 85.215,359.796 85.093,360.708 84.532 C 361.737 83.898,362.633 82.881,363.084 81.833 C 363.262 81.421,363.458 81.046,363.520 81.000 C 364.379 80.362,364.244 75.664,363.311 73.729 C 362.841 72.754,361.542 71.167,361.215 71.167 C 361.131 71.167,360.899 71.014,360.699 70.828 C 360.255 70.414,359.068 69.892,358.215 69.735 C 357.868 69.671,357.543 69.556,357.493 69.480 C 357.286 69.164,354.789 69.006,349.958 69.003 L 344.833 69.000 344.833 83.167 M368.833 83.250 L 368.833 97.500 377.833 97.500 L 386.833 97.500 386.833 94.333 L 386.833 91.167 381.417 91.167 L 376.000 91.167 376.000 88.667 L 376.000 86.167 379.583 86.167 C 382.695 86.167,383.167 86.133,383.167 85.911 C 383.167 85.441,382.446 82.751,382.305 82.694 C 382.229 82.664,382.167 82.525,382.167 82.385 C 382.167 82.245,382.042 81.614,381.889 80.982 L 381.612 79.833 378.806 79.833 L 376.000 79.833 376.000 77.500 L 376.000 75.167 381.417 75.167 L 386.833 75.167 386.833 72.083 L 386.833 69.000 377.833 69.000 L 368.833 69.000 368.833 83.250 M142.230 75.474 C 142.333 75.555,142.631 75.672,142.893 75.735 C 145.544 76.369,148.029 79.204,148.532 82.167 C 148.714 83.241,148.476 85.667,148.188 85.667 C 148.125 85.667,147.926 86.054,147.745 86.528 C 147.436 87.339,145.078 90.000,144.668 90.000 C 144.588 90.000,144.012 90.236,143.388 90.526 C 142.372 90.996,142.047 91.059,140.293 91.132 L 138.333 91.212 138.333 83.164 L 138.333 75.116 140.188 75.222 C 141.208 75.280,142.127 75.394,142.230 75.474 M353.917 75.495 C 354.008 75.561,354.442 75.712,354.881 75.831 C 355.377 75.965,355.802 76.212,356.005 76.482 C 356.183 76.721,356.424 77.027,356.540 77.163 C 357.374 78.138,356.423 81.557,355.189 82.022 C 354.947 82.113,354.543 82.290,354.290 82.415 C 354.036 82.541,353.418 82.695,352.915 82.757 L 352.000 82.872 352.000 79.044 L 352.000 75.216 352.875 75.296 C 353.356 75.340,353.825 75.429,353.917 75.495 M241.846 85.360 C 242.105 85.879,242.395 86.352,242.491 86.411 C 243.005 86.729,242.470 86.833,240.330 86.833 L 237.993 86.833 238.352 86.125 C 238.550 85.735,238.773 85.377,238.848 85.328 C 238.924 85.279,239.187 84.799,239.434 84.260 C 240.320 82.323,240.338 82.331,241.846 85.360 M326.986 83.333 C 327.039 83.379,327.303 83.867,327.571 84.417 C 327.839 84.967,328.110 85.454,328.173 85.500 C 328.299 85.592,328.833 86.597,328.833 86.742 C 328.833 86.792,327.776 86.833,326.485 86.833 L 324.136 86.833 324.473 86.292 C 324.658 85.994,325.199 85.044,325.675 84.182 C 326.427 82.818,326.563 82.655,326.714 82.932 C 326.810 83.107,326.932 83.287,326.986 83.333 " stroke="none" fill="#4848ac" fill-rule="evenodd"></path><path id="path2" d="M35.042 21.786 C 35.294 21.824,35.706 21.824,35.958 21.786 C 36.210 21.748,36.004 21.717,35.500 21.717 C 34.996 21.717,34.790 21.748,35.042 21.786 M39.455 21.787 C 39.750 21.824,40.275 21.824,40.621 21.788 C 40.967 21.752,40.725 21.722,40.083 21.721 C 39.442 21.721,39.159 21.750,39.455 21.787 M75.208 21.786 C 75.460 21.824,75.873 21.824,76.125 21.786 C 76.377 21.748,76.171 21.717,75.667 21.717 C 75.162 21.717,74.956 21.748,75.208 21.786 M80.792 21.784 C 80.998 21.824,81.335 21.824,81.542 21.784 C 81.748 21.745,81.579 21.712,81.167 21.712 C 80.754 21.712,80.585 21.745,80.792 21.784 M90.889 33.667 C 90.889 34.354,90.919 34.635,90.955 34.292 C 90.991 33.948,90.991 33.385,90.955 33.042 C 90.919 32.698,90.889 32.979,90.889 33.667 M25.052 33.750 C 25.053 34.300,25.084 34.505,25.121 34.205 C 25.158 33.906,25.157 33.456,25.119 33.205 C 25.081 32.955,25.051 33.200,25.052 33.750 M25.205 36.833 C 25.205 37.154,25.240 37.285,25.282 37.125 C 25.323 36.965,25.323 36.702,25.282 36.542 C 25.240 36.381,25.205 36.512,25.205 36.833 M90.705 37.000 C 90.705 37.321,90.740 37.452,90.782 37.292 C 90.823 37.131,90.823 36.869,90.782 36.708 C 90.740 36.548,90.705 36.679,90.705 37.000 M25.372 38.667 C 25.372 38.987,25.406 39.119,25.448 38.958 C 25.490 38.798,25.490 38.535,25.448 38.375 C 25.406 38.215,25.372 38.346,25.372 38.667 M49.742 69.375 L 49.083 70.083 49.792 69.425 C 50.450 68.812,50.577 68.667,50.450 68.667 C 50.423 68.667,50.105 68.985,49.742 69.375 M66.160 69.375 C 66.850 70.111,67.000 70.243,67.000 70.118 C 67.000 70.091,66.644 69.735,66.208 69.326 L 65.417 68.583 66.160 69.375 M86.881 73.750 C 86.882 74.208,86.915 74.376,86.953 74.123 C 86.991 73.869,86.990 73.494,86.951 73.289 C 86.911 73.084,86.880 73.292,86.881 73.750 M29.050 74.167 C 29.050 74.671,29.081 74.877,29.119 74.625 C 29.158 74.373,29.158 73.960,29.119 73.708 C 29.081 73.456,29.050 73.662,29.050 74.167 M29.050 78.667 C 29.050 79.171,29.081 79.377,29.119 79.125 C 29.158 78.873,29.158 78.460,29.119 78.208 C 29.081 77.956,29.050 78.162,29.050 78.667 M86.881 79.083 C 86.882 79.542,86.915 79.709,86.953 79.456 C 86.991 79.203,86.990 78.828,86.951 78.623 C 86.911 78.418,86.880 78.625,86.881 79.083 M45.539 79.667 C 45.539 79.987,45.573 80.119,45.615 79.958 C 45.657 79.798,45.657 79.535,45.615 79.375 C 45.573 79.215,45.539 79.346,45.539 79.667 M45.405 85.167 C 45.405 87.229,45.429 88.073,45.458 87.042 C 45.487 86.010,45.487 84.323,45.458 83.292 C 45.429 82.260,45.405 83.104,45.405 85.167 M70.571 85.250 C 70.572 87.358,70.595 88.198,70.625 87.116 C 70.654 86.033,70.654 84.308,70.624 83.282 C 70.595 82.256,70.571 83.142,70.571 85.250 M70.550 92.833 C 70.550 93.337,70.581 93.544,70.619 93.292 C 70.658 93.040,70.658 92.627,70.619 92.375 C 70.581 92.123,70.550 92.329,70.550 92.833 M45.385 93.083 C 45.386 93.633,45.417 93.838,45.454 93.539 C 45.491 93.239,45.490 92.789,45.452 92.539 C 45.414 92.288,45.384 92.533,45.385 93.083 M80.406 96.042 L 79.917 96.583 80.458 96.094 C 80.963 95.638,81.077 95.500,80.948 95.500 C 80.919 95.500,80.675 95.744,80.406 96.042 M43.658 98.125 L 43.083 98.750 43.708 98.176 C 44.290 97.641,44.410 97.500,44.283 97.500 C 44.255 97.500,43.974 97.781,43.658 98.125 M40.958 99.118 C 41.165 99.157,41.502 99.157,41.708 99.118 C 41.915 99.078,41.746 99.045,41.333 99.045 C 40.921 99.045,40.752 99.078,40.958 99.118 M74.292 99.118 C 74.498 99.157,74.835 99.157,75.042 99.118 C 75.248 99.078,75.079 99.045,74.667 99.045 C 74.254 99.045,74.085 99.078,74.292 99.118 " stroke="none" fill="#8370c5" fill-rule="evenodd"></path><path id="path3" d="M77.963 21.789 C 78.355 21.824,78.955 21.824,79.296 21.788 C 79.637 21.752,79.317 21.723,78.583 21.724 C 77.850 21.724,77.571 21.754,77.963 21.789 M34.542 21.948 C 34.702 21.990,34.965 21.990,35.125 21.948 C 35.285 21.906,35.154 21.872,34.833 21.872 C 34.512 21.872,34.381 21.906,34.542 21.948 M40.627 21.951 C 40.834 21.991,41.134 21.990,41.294 21.948 C 41.453 21.906,41.283 21.874,40.917 21.875 C 40.550 21.877,40.420 21.911,40.627 21.951 M74.794 21.951 C 75.001 21.991,75.301 21.990,75.460 21.948 C 75.620 21.906,75.450 21.874,75.083 21.875 C 74.717 21.877,74.586 21.911,74.794 21.951 M42.542 22.115 C 42.702 22.157,42.965 22.157,43.125 22.115 C 43.285 22.073,43.154 22.039,42.833 22.039 C 42.512 22.039,42.381 22.073,42.542 22.115 M90.732 33.750 C 90.733 35.033,90.759 35.536,90.791 34.868 C 90.822 34.199,90.822 33.149,90.790 32.534 C 90.758 31.920,90.732 32.467,90.732 33.750 M25.230 33.750 C 25.231 34.850,25.258 35.278,25.290 34.702 C 25.323 34.125,25.323 33.225,25.290 32.702 C 25.257 32.178,25.230 32.650,25.230 33.750 M25.375 37.250 C 25.377 37.617,25.411 37.747,25.451 37.540 C 25.491 37.332,25.490 37.032,25.448 36.873 C 25.406 36.714,25.374 36.883,25.375 37.250 M49.740 69.208 L 49.250 69.750 49.792 69.260 C 50.297 68.804,50.410 68.667,50.281 68.667 C 50.252 68.667,50.009 68.910,49.740 69.208 M66.250 69.333 C 66.608 69.700,66.938 70.000,66.984 70.000 C 67.030 70.000,66.775 69.700,66.417 69.333 C 66.059 68.967,65.728 68.667,65.682 68.667 C 65.637 68.667,65.892 68.967,66.250 69.333 M86.705 73.000 C 86.705 73.321,86.740 73.452,86.782 73.292 C 86.823 73.131,86.823 72.869,86.782 72.708 C 86.740 72.548,86.705 72.679,86.705 73.000 M29.209 73.250 C 29.211 73.617,29.245 73.747,29.285 73.540 C 29.324 73.332,29.323 73.032,29.281 72.873 C 29.239 72.714,29.207 72.883,29.209 73.250 M86.887 76.500 C 86.887 77.096,86.917 77.340,86.954 77.042 C 86.991 76.744,86.991 76.256,86.954 75.958 C 86.917 75.660,86.887 75.904,86.887 76.500 M29.205 79.667 C 29.205 79.987,29.240 80.119,29.282 79.958 C 29.323 79.798,29.323 79.535,29.282 79.375 C 29.240 79.215,29.205 79.346,29.205 79.667 M86.705 79.833 C 86.705 80.154,86.740 80.285,86.782 80.125 C 86.823 79.965,86.823 79.702,86.782 79.542 C 86.740 79.381,86.705 79.512,86.705 79.833 M45.379 80.167 C 45.379 80.579,45.411 80.748,45.451 80.542 C 45.491 80.335,45.491 79.998,45.451 79.792 C 45.411 79.585,45.379 79.754,45.379 80.167 M70.542 80.417 C 70.544 80.783,70.578 80.914,70.618 80.706 C 70.658 80.499,70.656 80.199,70.615 80.040 C 70.573 79.880,70.540 80.050,70.542 80.417 M70.732 84.583 C 70.733 85.867,70.759 86.370,70.791 85.701 C 70.822 85.032,70.822 83.982,70.790 83.368 C 70.758 82.753,70.732 83.300,70.732 84.583 M83.860 90.924 C 83.581 91.537,83.634 91.667,83.936 91.110 C 84.077 90.850,84.162 90.606,84.123 90.568 C 84.085 90.530,83.967 90.690,83.860 90.924 M70.705 93.667 C 70.705 93.987,70.740 94.119,70.782 93.958 C 70.823 93.798,70.823 93.535,70.782 93.375 C 70.740 93.215,70.705 93.346,70.705 93.667 M80.328 95.958 L 79.417 96.917 80.375 96.006 C 81.265 95.159,81.410 95.000,81.286 95.000 C 81.260 95.000,80.829 95.431,80.328 95.958 M35.583 96.000 C 36.035 96.458,36.442 96.833,36.487 96.833 C 36.533 96.833,36.201 96.458,35.750 96.000 C 35.299 95.542,34.892 95.167,34.846 95.167 C 34.800 95.167,35.132 95.542,35.583 96.000 " stroke="none" fill="#a495d4" fill-rule="evenodd"></path><path id="path4" d="M36.958 21.789 C 37.348 21.824,37.985 21.824,38.375 21.789 C 38.765 21.754,38.446 21.725,37.667 21.725 C 36.887 21.725,36.569 21.754,36.958 21.789 M86.872 75.000 C 86.872 75.321,86.906 75.452,86.948 75.292 C 86.990 75.131,86.990 74.869,86.948 74.708 C 86.906 74.548,86.872 74.679,86.872 75.000 M29.059 76.417 C 29.059 77.242,29.087 77.600,29.122 77.213 C 29.157 76.827,29.157 76.152,29.123 75.713 C 29.088 75.275,29.060 75.592,29.059 76.417 M45.395 90.500 C 45.395 91.462,45.423 91.856,45.456 91.375 C 45.490 90.894,45.490 90.106,45.456 89.625 C 45.423 89.144,45.395 89.537,45.395 90.500 M70.560 90.500 C 70.560 91.371,70.588 91.727,70.623 91.292 C 70.657 90.856,70.657 90.144,70.623 89.708 C 70.588 89.273,70.560 89.629,70.560 90.500 " stroke="none" fill="#9c8bcf" fill-rule="evenodd"></path></g></svg>