<svg id="svg" version="1.1" xmlns="http://www.w3.org/2000/svg" xmlns:xlink="http://www.w3.org/1999/xlink" width="400" height="121.90669371196753" viewBox="0, 0, 400,121.90669371196753"><g id="svgg"><path id="path0" d="M35.052 23.098 C 29.188 23.896,27.093 26.334,26.504 33.044 C 25.971 39.126,27.946 50.470,31.590 62.250 C 32.634 65.627,32.604 65.255,32.027 67.629 C 28.512 82.101,31.281 95.983,38.791 101.530 C 42.057 103.943,45.045 103.839,46.372 101.266 C 47.160 99.736,47.208 99.208,47.338 90.500 C 47.509 79.124,48.007 76.922,51.274 73.088 C 53.725 70.212,59.502 67.142,61.325 67.747 C 66.643 69.514,70.367 72.547,72.168 76.581 C 73.583 79.750,73.872 82.244,73.897 91.500 C 73.916 98.415,73.926 98.616,74.310 99.959 C 75.245 103.229,77.556 104.120,80.839 102.477 C 89.253 98.266,92.875 83.355,89.229 67.934 L 88.642 65.451 89.257 63.434 C 95.772 42.070,96.514 28.838,91.414 24.962 C 88.389 22.663,81.299 22.186,72.417 23.684 C 71.317 23.869,69.967 24.095,69.417 24.186 C 68.867 24.278,66.657 24.728,64.507 25.188 C 60.604 26.021,60.595 26.022,59.590 25.772 C 50.114 23.406,40.495 22.359,35.052 23.098 " stroke="none" fill="#fbfbfb" fill-rule="evenodd"></path><path id="path1" d="M53.833 2.906 C 53.421 3.025,52.258 3.215,51.250 3.329 C 50.242 3.443,49.342 3.593,49.250 3.662 C 49.158 3.731,48.221 3.962,47.167 4.176 C 46.112 4.390,45.225 4.625,45.194 4.699 C 45.164 4.773,45.011 4.833,44.854 4.833 C 44.400 4.833,42.708 5.307,41.948 5.646 C 41.564 5.818,40.856 6.057,40.375 6.177 C 39.894 6.298,39.500 6.451,39.500 6.518 C 39.500 6.585,39.106 6.768,38.625 6.925 C 38.144 7.082,37.563 7.304,37.333 7.418 C 37.104 7.533,36.317 7.912,35.583 8.261 C 33.571 9.219,30.400 10.969,30.166 11.251 C 30.052 11.388,29.867 11.500,29.755 11.500 C 29.642 11.500,29.220 11.743,28.817 12.040 C 28.413 12.337,27.962 12.656,27.814 12.748 C 27.213 13.123,26.547 13.600,25.900 14.119 C 25.523 14.420,25.157 14.667,25.085 14.667 C 25.014 14.667,24.784 14.835,24.576 15.042 C 24.368 15.248,23.881 15.679,23.495 16.000 C 21.712 17.480,18.908 20.174,17.583 21.682 C 15.769 23.747,14.777 24.941,14.125 25.845 C 13.965 26.068,13.534 26.657,13.167 27.155 C 12.800 27.653,12.500 28.116,12.500 28.185 C 12.500 28.253,12.401 28.409,12.281 28.530 C 12.160 28.651,11.841 29.113,11.572 29.557 C 11.303 30.001,10.940 30.601,10.764 30.890 C 9.409 33.123,7.405 37.180,6.921 38.667 C 6.757 39.171,6.558 39.665,6.479 39.765 C 6.287 40.010,5.572 42.108,5.122 43.750 C 4.921 44.483,4.710 45.121,4.652 45.167 C 4.595 45.212,4.384 46.150,4.184 47.250 C 3.984 48.350,3.742 49.436,3.646 49.664 C 3.550 49.891,3.370 50.829,3.245 51.747 C 3.121 52.665,2.944 53.754,2.852 54.167 C 2.639 55.129,2.634 65.839,2.846 66.833 C 2.935 67.246,3.115 68.349,3.248 69.286 C 3.381 70.222,3.562 71.122,3.652 71.286 C 3.741 71.449,3.971 72.518,4.163 73.661 C 4.355 74.803,4.573 75.778,4.648 75.827 C 4.723 75.876,4.823 76.104,4.872 76.333 C 5.132 77.562,6.229 80.918,6.472 81.226 C 6.555 81.331,6.756 81.824,6.918 82.322 C 7.213 83.224,9.117 87.341,9.314 87.500 C 9.370 87.546,9.587 87.921,9.795 88.333 C 10.312 89.361,10.837 90.291,11.346 91.083 C 11.582 91.450,11.823 91.881,11.882 92.042 C 11.941 92.202,12.062 92.333,12.150 92.333 C 12.239 92.333,12.355 92.472,12.408 92.640 C 12.462 92.809,12.805 93.353,13.170 93.849 C 13.535 94.344,13.965 94.932,14.125 95.155 C 14.286 95.377,14.665 95.865,14.969 96.238 C 15.272 96.611,15.640 97.067,15.786 97.250 C 17.016 98.795,19.613 101.519,21.417 103.156 C 23.414 104.969,23.722 105.232,24.744 106.002 C 25.291 106.413,25.872 106.881,26.036 107.042 C 26.199 107.202,26.390 107.334,26.458 107.334 C 26.527 107.334,26.846 107.559,27.167 107.833 C 27.488 108.108,27.832 108.333,27.933 108.333 C 28.033 108.333,28.234 108.465,28.380 108.625 C 28.526 108.785,28.932 109.066,29.281 109.248 C 29.631 109.431,29.954 109.621,30.000 109.670 C 30.191 109.877,32.452 111.167,32.623 111.167 C 32.726 111.167,32.912 111.269,33.038 111.395 C 33.367 111.724,37.786 113.821,38.625 114.046 C 39.015 114.150,39.333 114.292,39.333 114.361 C 39.333 114.430,39.840 114.640,40.458 114.828 C 41.077 115.016,41.733 115.234,41.917 115.313 C 42.958 115.763,45.656 116.526,47.092 116.777 C 48.004 116.936,48.788 117.115,48.833 117.175 C 48.935 117.309,50.620 117.614,52.395 117.820 C 53.116 117.904,53.787 118.054,53.886 118.153 C 54.181 118.447,66.811 118.399,67.433 118.101 C 67.699 117.974,68.479 117.818,69.167 117.756 C 70.593 117.626,71.930 117.382,72.417 117.164 C 72.600 117.082,73.425 116.895,74.250 116.748 C 75.075 116.601,76.419 116.260,77.237 115.990 C 78.055 115.721,78.824 115.500,78.945 115.500 C 79.067 115.500,79.167 115.439,79.167 115.365 C 79.167 115.291,79.697 115.093,80.345 114.925 C 80.993 114.757,81.612 114.534,81.720 114.429 C 81.828 114.324,82.254 114.140,82.667 114.020 C 83.589 113.751,88.840 111.180,89.417 110.715 C 89.508 110.641,89.940 110.393,90.375 110.165 C 90.810 109.937,91.167 109.702,91.167 109.642 C 91.167 109.582,91.373 109.451,91.625 109.352 C 91.877 109.253,92.458 108.906,92.917 108.581 C 93.375 108.256,93.888 107.899,94.058 107.787 C 94.680 107.375,96.412 106.073,96.768 105.750 C 96.970 105.567,97.379 105.229,97.678 105.000 C 100.187 103.074,106.529 96.340,107.212 94.875 C 107.308 94.669,107.448 94.500,107.522 94.500 C 107.597 94.500,107.783 94.256,107.936 93.958 C 108.088 93.660,108.260 93.379,108.317 93.333 C 108.514 93.176,110.453 90.135,110.992 89.140 C 111.756 87.727,113.651 83.859,113.754 83.500 C 113.820 83.271,113.944 82.995,114.030 82.888 C 114.249 82.614,114.833 80.979,114.833 80.641 C 114.833 80.487,114.891 80.336,114.962 80.306 C 115.158 80.221,115.992 77.763,116.394 76.083 C 116.592 75.258,116.802 74.508,116.862 74.415 C 117.015 74.177,117.456 71.936,117.582 70.750 C 117.641 70.200,117.750 69.600,117.824 69.417 C 118.552 67.626,118.552 53.374,117.824 51.583 C 117.750 51.400,117.641 50.800,117.582 50.250 C 117.446 48.975,117.023 46.876,116.830 46.522 C 116.749 46.372,116.536 45.612,116.356 44.833 C 116.053 43.513,115.365 41.349,115.006 40.583 C 114.920 40.400,114.736 39.898,114.597 39.467 C 114.457 39.036,114.191 38.400,114.005 38.053 C 113.819 37.706,113.667 37.366,113.667 37.297 C 113.667 37.229,113.367 36.542,113.000 35.770 C 112.633 34.998,112.333 34.290,112.333 34.197 C 112.333 34.104,112.277 34.003,112.208 33.972 C 112.140 33.942,111.908 33.579,111.694 33.167 C 111.109 32.039,109.510 29.320,109.341 29.167 C 109.291 29.121,109.144 28.878,109.015 28.628 C 108.886 28.377,108.650 28.033,108.491 27.862 C 108.332 27.692,108.080 27.315,107.930 27.026 C 107.781 26.737,107.583 26.500,107.490 26.500 C 107.398 26.500,107.276 26.369,107.218 26.208 C 107.112 25.913,105.591 23.943,104.292 22.418 C 103.039 20.946,98.874 16.911,97.552 15.887 C 97.138 15.566,96.130 14.759,95.303 14.084 C 95.148 13.958,94.811 13.721,94.553 13.557 C 94.295 13.392,94.023 13.162,93.950 13.046 C 93.877 12.929,93.737 12.833,93.639 12.833 C 93.541 12.833,93.104 12.571,92.667 12.250 C 92.230 11.929,91.788 11.667,91.686 11.667 C 91.584 11.667,91.367 11.535,91.204 11.375 C 91.042 11.215,90.610 10.933,90.246 10.750 C 89.882 10.567,89.546 10.370,89.500 10.314 C 89.454 10.257,89.042 10.012,88.583 9.770 C 88.125 9.528,87.638 9.262,87.500 9.178 C 86.877 8.798,84.423 7.667,84.223 7.667 C 84.100 7.667,84.000 7.604,84.000 7.526 C 84.000 7.449,83.687 7.292,83.305 7.178 C 82.923 7.063,82.227 6.794,81.757 6.580 C 81.288 6.365,80.532 6.097,80.077 5.984 C 79.622 5.872,79.212 5.731,79.167 5.671 C 79.081 5.559,77.636 5.098,76.750 4.899 C 76.475 4.838,76.175 4.732,76.083 4.664 C 75.992 4.596,75.054 4.372,74.000 4.167 C 72.946 3.961,72.008 3.734,71.917 3.662 C 71.825 3.589,70.813 3.414,69.667 3.271 C 68.521 3.128,67.321 2.934,67.001 2.839 C 66.108 2.575,54.783 2.632,53.833 2.906 M148.333 40.167 L 148.333 68.667 164.899 68.667 L 181.464 68.667 181.755 67.458 C 181.915 66.794,182.100 66.175,182.166 66.083 C 182.233 65.992,182.458 65.204,182.667 64.333 C 182.876 63.462,183.101 62.675,183.167 62.583 C 183.233 62.492,183.458 61.704,183.667 60.833 C 183.876 59.962,184.101 59.175,184.167 59.083 C 184.234 58.992,184.420 58.354,184.582 57.667 C 184.744 56.979,184.941 56.345,185.021 56.258 C 185.732 55.484,185.971 55.500,173.833 55.500 L 162.500 55.500 162.500 33.583 L 162.500 11.667 155.417 11.667 L 148.333 11.667 148.333 40.167 M175.500 12.153 C 175.500 12.420,175.560 12.664,175.634 12.694 C 175.708 12.725,175.943 13.537,176.157 14.500 C 176.370 15.463,176.600 16.325,176.668 16.417 C 176.735 16.508,176.921 17.183,177.080 17.917 C 177.239 18.650,177.426 19.325,177.496 19.417 C 177.565 19.508,177.796 20.371,178.009 21.333 C 178.222 22.296,178.444 23.121,178.503 23.167 C 178.561 23.212,178.679 23.587,178.764 24.000 L 178.918 24.750 184.459 24.794 L 190.000 24.838 190.000 46.752 L 190.000 68.667 197.167 68.667 L 204.333 68.667 204.333 46.750 L 204.333 24.833 211.000 24.833 C 216.836 24.833,217.667 24.802,217.667 24.582 C 217.667 24.173,217.009 21.279,216.833 20.917 C 216.745 20.733,216.513 19.833,216.319 18.917 C 216.125 18.000,215.911 17.175,215.843 17.083 C 215.774 16.992,215.585 16.279,215.423 15.500 C 215.260 14.721,215.068 14.008,214.996 13.917 C 214.924 13.825,214.773 13.281,214.661 12.708 L 214.457 11.667 194.978 11.667 L 175.500 11.667 175.500 12.153 M219.000 11.933 C 219.000 12.292,219.507 14.042,219.672 14.250 C 219.744 14.342,219.930 14.904,220.084 15.500 C 220.238 16.095,220.417 16.620,220.483 16.666 C 220.548 16.712,220.773 17.387,220.984 18.167 C 221.194 18.946,221.425 19.658,221.497 19.750 C 221.570 19.842,221.786 20.442,221.977 21.083 C 222.422 22.579,223.123 24.654,223.327 25.083 C 223.415 25.267,223.651 25.979,223.852 26.667 C 224.054 27.354,224.268 27.954,224.328 28.000 C 224.388 28.046,224.576 28.608,224.745 29.250 C 224.915 29.892,225.104 30.454,225.167 30.500 C 225.229 30.546,225.451 31.221,225.659 32.000 C 225.867 32.779,226.090 33.454,226.154 33.500 C 226.218 33.546,226.408 34.108,226.575 34.750 C 226.743 35.392,226.978 36.104,227.098 36.333 C 227.219 36.563,227.440 37.200,227.591 37.750 C 227.742 38.300,227.923 38.825,227.994 38.917 C 228.066 39.008,228.298 39.683,228.511 40.417 C 228.723 41.150,228.946 41.787,229.005 41.833 C 229.065 41.879,229.252 42.442,229.421 43.083 C 229.591 43.725,229.782 44.288,229.846 44.333 C 229.910 44.379,230.133 45.054,230.341 45.833 C 230.549 46.612,230.769 47.288,230.830 47.333 C 230.891 47.379,231.074 47.904,231.237 48.500 C 231.400 49.096,231.634 49.808,231.757 50.083 C 231.881 50.358,232.107 51.033,232.261 51.583 C 232.415 52.133,232.597 52.658,232.666 52.750 C 232.734 52.842,232.965 53.517,233.177 54.250 C 233.390 54.983,233.611 55.621,233.669 55.667 C 233.727 55.712,233.909 56.237,234.073 56.833 C 234.237 57.429,234.424 57.954,234.487 58.000 C 234.550 58.046,234.773 58.721,234.984 59.500 C 235.194 60.279,235.427 60.992,235.501 61.083 C 235.576 61.175,235.762 61.737,235.916 62.333 C 236.069 62.929,236.296 63.642,236.421 63.917 C 236.546 64.192,236.775 64.867,236.929 65.417 C 237.084 65.967,237.263 66.454,237.326 66.500 C 237.389 66.546,237.575 67.071,237.740 67.667 C 238.119 69.039,238.532 70.000,238.742 70.000 C 239.000 70.000,239.642 69.176,239.864 68.560 C 239.976 68.252,240.114 68.000,240.172 68.000 C 240.229 68.000,240.457 67.606,240.678 67.125 C 240.899 66.644,241.125 66.212,241.179 66.167 C 241.234 66.121,241.868 64.996,242.588 63.667 C 243.308 62.337,243.939 61.212,243.990 61.167 C 244.041 61.121,244.271 60.715,244.500 60.264 C 245.248 58.792,245.580 58.180,245.793 57.879 C 246.079 57.476,246.734 56.251,247.178 55.292 C 247.380 54.856,247.601 54.500,247.670 54.500 C 247.738 54.500,247.962 54.087,248.167 53.583 C 248.371 53.079,248.598 52.667,248.670 52.667 C 248.741 52.667,248.939 52.329,249.108 51.917 C 249.278 51.505,249.460 51.168,249.513 51.167 C 249.566 51.167,249.790 50.773,250.011 50.292 C 250.232 49.810,250.458 49.379,250.513 49.333 C 250.567 49.288,251.201 48.163,251.921 46.833 C 252.641 45.504,253.272 44.379,253.323 44.333 C 253.375 44.288,253.604 43.881,253.833 43.429 C 255.539 40.068,255.442 40.138,256.243 41.706 C 258.187 45.511,258.669 46.433,258.793 46.583 C 258.869 46.675,259.105 47.181,259.318 47.708 C 259.531 48.235,259.757 48.667,259.819 48.667 C 259.882 48.667,260.032 48.948,260.154 49.292 C 260.275 49.635,260.475 50.032,260.597 50.173 C 260.720 50.314,260.984 50.801,261.184 51.256 C 261.384 51.711,261.597 52.121,261.657 52.167 C 261.718 52.212,261.942 52.663,262.155 53.167 C 262.368 53.671,262.594 54.121,262.657 54.167 C 262.721 54.212,262.906 54.587,263.068 55.000 C 263.231 55.412,263.413 55.787,263.473 55.833 C 263.534 55.879,263.958 56.667,264.417 57.583 C 264.875 58.500,265.297 59.288,265.354 59.333 C 265.411 59.379,265.632 59.829,265.845 60.333 C 266.058 60.837,266.274 61.288,266.326 61.333 C 266.377 61.379,266.792 62.167,267.248 63.083 C 267.705 64.000,268.160 64.836,268.260 64.941 C 268.360 65.046,268.579 65.496,268.747 65.941 C 268.915 66.386,269.100 66.787,269.159 66.833 C 269.217 66.879,269.599 67.610,270.007 68.456 C 270.822 70.145,271.373 70.521,271.600 69.542 C 271.658 69.290,271.798 68.933,271.910 68.750 C 272.022 68.567,272.252 67.967,272.421 67.417 C 272.590 66.867,272.815 66.267,272.922 66.083 C 273.028 65.900,273.255 65.262,273.425 64.667 C 273.595 64.071,273.786 63.546,273.850 63.500 C 273.914 63.454,274.135 62.854,274.342 62.167 C 274.549 61.479,274.770 60.879,274.834 60.833 C 274.897 60.788,275.085 60.300,275.252 59.750 C 275.418 59.200,275.609 58.675,275.674 58.583 C 275.740 58.492,275.971 57.854,276.186 57.167 C 276.402 56.479,276.624 55.879,276.680 55.833 C 276.778 55.754,277.004 55.137,277.960 52.333 C 278.195 51.646,278.433 51.046,278.490 51.000 C 278.547 50.954,278.777 50.317,279.000 49.583 C 279.223 48.850,279.453 48.212,279.511 48.167 C 279.569 48.121,279.771 47.633,279.960 47.083 C 280.988 44.099,281.189 43.540,281.402 43.083 C 281.530 42.808,281.732 42.246,281.851 41.833 C 281.970 41.421,282.119 41.046,282.183 41.000 C 282.247 40.954,282.469 40.354,282.676 39.667 C 282.883 38.979,283.144 38.267,283.254 38.083 C 283.365 37.900,283.596 37.244,283.768 36.625 C 283.939 36.006,284.127 35.500,284.186 35.500 C 284.244 35.500,284.432 35.012,284.602 34.417 C 284.773 33.821,284.959 33.333,285.016 33.333 C 285.074 33.333,285.291 32.733,285.500 32.000 C 285.709 31.267,285.935 30.667,286.003 30.667 C 286.071 30.667,286.216 30.315,286.324 29.884 C 286.432 29.454,286.658 28.798,286.825 28.426 C 286.993 28.054,287.267 27.300,287.435 26.750 C 287.603 26.200,287.791 25.712,287.852 25.667 C 287.913 25.621,288.129 25.021,288.333 24.333 C 288.537 23.646,288.755 23.046,288.818 23.000 C 288.881 22.954,289.031 22.579,289.150 22.167 C 289.270 21.754,289.503 21.117,289.668 20.750 C 289.833 20.383,290.098 19.633,290.256 19.083 C 290.415 18.533,290.601 18.046,290.670 18.000 C 290.739 17.954,290.963 17.354,291.167 16.667 C 291.371 15.979,291.589 15.379,291.652 15.333 C 291.715 15.287,291.909 14.762,292.083 14.167 C 292.258 13.571,292.448 13.046,292.506 13.000 C 292.598 12.928,293.000 11.889,293.000 11.725 C 293.000 11.693,289.550 11.667,285.333 11.667 C 277.778 11.667,277.667 11.671,277.667 12.000 C 277.667 12.183,277.600 12.333,277.518 12.333 C 277.436 12.333,277.238 12.877,277.078 13.542 C 276.918 14.206,276.695 14.938,276.583 15.167 C 276.471 15.396,276.245 16.146,276.081 16.833 C 275.917 17.521,275.729 18.121,275.664 18.167 C 275.598 18.212,275.418 18.775,275.262 19.417 C 275.107 20.058,274.878 20.808,274.753 21.083 C 274.628 21.358,274.405 22.103,274.258 22.738 C 274.111 23.374,273.926 23.974,273.846 24.072 C 273.767 24.170,273.532 24.925,273.325 25.750 C 273.117 26.575,272.896 27.287,272.832 27.333 C 272.769 27.379,272.583 27.979,272.419 28.667 C 272.255 29.354,272.029 30.104,271.918 30.333 C 271.807 30.563,271.576 31.313,271.405 32.000 C 271.233 32.688,271.047 33.287,270.990 33.333 C 270.933 33.379,270.756 33.942,270.596 34.583 C 270.436 35.225,270.234 35.884,270.147 36.048 C 270.060 36.213,270.033 36.419,270.088 36.507 C 270.142 36.595,270.110 36.667,270.016 36.667 C 269.923 36.667,269.753 37.117,269.640 37.667 C 269.391 38.873,269.186 38.921,268.766 37.874 C 268.592 37.439,268.360 36.971,268.251 36.833 C 268.141 36.696,267.921 36.246,267.761 35.834 C 267.601 35.422,267.418 35.047,267.355 35.000 C 267.292 34.954,267.097 34.579,266.922 34.167 C 266.747 33.754,266.543 33.334,266.468 33.233 C 266.394 33.132,265.735 31.857,265.003 30.400 C 264.272 28.942,263.612 27.675,263.537 27.583 C 263.461 27.492,263.254 27.061,263.075 26.626 C 262.896 26.191,262.703 25.834,262.645 25.834 C 262.588 25.834,262.372 25.383,262.167 24.833 C 261.961 24.283,261.736 23.833,261.667 23.833 C 261.597 23.833,261.372 23.383,261.167 22.833 C 260.961 22.283,260.743 21.833,260.683 21.833 C 260.623 21.833,260.428 21.458,260.250 21.000 C 260.072 20.542,259.878 20.167,259.819 20.167 C 259.760 20.167,259.579 19.810,259.416 19.375 C 259.254 18.940,259.033 18.471,258.925 18.333 C 258.817 18.196,258.585 17.746,258.408 17.333 C 258.232 16.921,258.030 16.508,257.960 16.417 C 257.890 16.325,257.326 15.244,256.708 14.014 C 255.384 11.381,255.304 11.324,254.720 12.610 C 254.477 13.145,254.232 13.621,254.176 13.667 C 254.120 13.713,253.928 14.088,253.748 14.500 C 253.569 14.912,253.336 15.340,253.231 15.450 C 253.126 15.561,252.899 15.992,252.728 16.408 C 252.557 16.825,252.370 17.166,252.312 17.166 C 252.254 17.166,252.039 17.617,251.833 18.167 C 251.628 18.717,251.403 19.167,251.334 19.167 C 251.264 19.167,251.048 19.537,250.853 19.991 C 250.658 20.444,250.435 20.854,250.358 20.902 C 250.280 20.950,250.081 21.348,249.915 21.786 C 249.749 22.225,249.561 22.621,249.497 22.667 C 249.433 22.712,249.219 23.087,249.021 23.500 C 248.823 23.912,248.356 24.813,247.984 25.500 C 247.611 26.188,247.186 27.050,247.040 27.417 C 246.893 27.783,246.721 28.121,246.658 28.167 C 246.594 28.212,246.194 28.925,245.769 29.750 C 245.344 30.575,244.940 31.329,244.873 31.427 C 244.805 31.524,244.375 32.349,243.917 33.260 C 243.458 34.171,243.034 34.954,242.973 35.000 C 242.913 35.047,242.733 35.422,242.573 35.834 C 242.413 36.246,242.190 36.696,242.078 36.833 C 241.965 36.971,241.750 37.327,241.599 37.625 C 241.190 38.433,241.096 38.320,240.667 36.500 C 240.450 35.583,240.222 34.833,240.158 34.833 C 240.095 34.833,239.952 34.365,239.841 33.792 C 239.729 33.219,239.535 32.525,239.409 32.250 C 239.283 31.975,239.015 31.075,238.813 30.250 C 238.610 29.425,238.397 28.712,238.338 28.667 C 238.280 28.621,238.063 27.874,237.857 27.006 C 237.651 26.139,237.422 25.352,237.347 25.256 C 237.273 25.161,237.079 24.521,236.917 23.833 C 236.754 23.146,236.564 22.508,236.494 22.417 C 236.424 22.325,236.195 21.537,235.985 20.667 C 235.775 19.796,235.554 19.046,235.494 19.000 C 235.434 18.954,235.213 18.204,235.003 17.333 C 234.792 16.462,234.565 15.675,234.497 15.583 C 234.429 15.492,234.238 14.835,234.073 14.125 C 233.908 13.415,233.719 12.833,233.655 12.833 C 233.590 12.833,233.488 12.571,233.428 12.250 L 233.318 11.667 226.159 11.667 C 219.715 11.667,219.000 11.693,219.000 11.933 M85.375 22.747 C 93.818 23.308,96.347 29.025,94.334 43.000 C 93.532 48.567,91.663 56.452,89.561 63.131 C 88.919 65.172,88.837 65.589,88.985 66.048 C 91.543 73.934,91.479 84.975,88.831 92.617 C 85.911 101.044,77.795 106.384,74.888 101.790 C 73.804 100.077,73.782 99.884,73.660 90.917 C 73.544 82.348,73.446 81.126,72.665 78.500 C 71.236 73.694,67.499 70.117,61.849 68.147 C 59.182 67.218,52.954 70.683,50.408 74.514 C 48.009 78.122,47.646 80.169,47.503 90.917 C 47.381 100.031,47.376 100.080,46.348 101.701 C 44.566 104.510,40.775 103.936,37.141 100.306 C 30.645 93.817,28.559 81.229,31.763 67.843 L 32.340 65.437 31.823 63.775 C 26.374 46.236,24.828 33.278,27.498 27.540 C 29.187 23.913,32.116 22.763,39.667 22.761 C 44.494 22.761,44.561 22.766,49.917 23.589 C 51.957 23.902,55.865 24.688,58.569 25.329 C 60.825 25.863,60.149 25.908,64.750 24.913 C 65.758 24.695,67.596 24.328,68.833 24.097 C 76.418 22.686,80.022 22.391,85.375 22.747 M305.167 75.810 C 305.167 75.889,304.698 76.003,304.125 76.062 C 302.818 76.199,301.271 76.603,301.196 76.829 C 301.165 76.923,301.030 77.000,300.896 77.000 C 300.645 77.000,299.314 77.630,299.167 77.818 C 299.121 77.876,298.858 78.066,298.583 78.238 C 297.958 78.631,296.106 80.196,296.017 80.407 C 295.981 80.494,295.756 80.756,295.517 80.991 C 295.051 81.448,294.735 81.908,294.567 82.375 C 294.509 82.535,294.406 82.667,294.338 82.667 C 294.161 82.667,293.061 84.948,292.811 85.833 C 292.695 86.246,292.550 86.621,292.489 86.667 C 291.865 87.137,291.861 95.514,292.485 96.000 C 292.544 96.046,292.731 96.533,292.901 97.082 C 293.174 97.966,294.062 99.775,294.334 100.000 C 294.389 100.046,294.614 100.383,294.834 100.750 C 295.371 101.645,297.703 103.911,298.653 104.459 C 299.073 104.702,299.454 104.954,299.500 105.019 C 299.547 105.083,299.922 105.269,300.334 105.432 C 300.746 105.594,301.121 105.782,301.167 105.848 C 301.403 106.190,305.016 106.872,306.583 106.871 C 308.139 106.871,312.000 106.141,312.000 105.848 C 312.000 105.785,312.375 105.598,312.833 105.433 C 313.292 105.268,313.667 105.080,313.667 105.014 C 313.667 104.949,313.910 104.775,314.208 104.629 C 315.120 104.181,317.167 102.353,317.167 101.987 C 317.167 101.881,316.585 101.215,315.875 100.507 C 315.165 99.800,314.122 98.721,313.558 98.110 C 312.334 96.784,312.187 96.765,311.156 97.812 C 310.717 98.258,310.014 98.765,309.596 98.937 C 309.177 99.109,308.834 99.299,308.834 99.360 C 308.832 99.647,306.513 99.879,305.555 99.689 C 303.955 99.370,300.667 97.178,300.667 96.428 C 300.667 96.379,300.445 95.978,300.173 95.537 C 298.799 93.303,298.809 89.535,300.196 87.044 C 300.668 86.197,300.939 85.836,301.583 85.191 C 304.524 82.250,308.513 82.149,311.269 84.945 C 311.660 85.342,312.063 85.667,312.163 85.667 C 312.443 85.667,317.167 80.830,317.167 80.544 C 317.166 80.096,313.993 77.650,312.864 77.226 C 312.435 77.065,312.036 76.866,311.979 76.782 C 311.835 76.573,309.388 76.003,308.625 76.001 C 308.281 76.001,308.000 75.925,308.000 75.833 C 308.000 75.735,307.417 75.667,306.583 75.667 C 305.804 75.667,305.167 75.731,305.167 75.810 M180.167 91.167 L 180.167 106.167 183.915 106.167 L 187.663 106.167 187.707 98.792 L 187.750 91.417 188.155 91.875 C 188.378 92.127,188.642 92.333,188.743 92.333 C 188.843 92.333,189.120 92.540,189.358 92.792 C 189.596 93.044,190.145 93.513,190.579 93.833 C 191.013 94.154,191.454 94.492,191.559 94.584 C 191.664 94.676,192.500 95.351,193.417 96.084 C 194.333 96.817,195.121 97.454,195.167 97.500 C 195.568 97.901,197.010 99.000,197.136 99.000 C 197.223 99.000,197.418 99.188,197.568 99.417 C 197.718 99.646,197.930 99.833,198.040 99.833 C 198.149 99.833,198.391 99.984,198.577 100.167 C 198.764 100.351,199.254 100.769,199.667 101.098 C 200.079 101.426,200.568 101.820,200.752 101.972 C 200.937 102.125,201.837 102.850,202.752 103.583 C 203.668 104.317,204.454 104.954,204.500 105.000 C 204.768 105.268,206.155 106.333,206.236 106.333 C 206.290 106.333,206.333 99.621,206.333 91.417 L 206.333 76.500 202.583 76.500 L 198.833 76.500 198.833 83.073 L 198.833 89.647 198.456 89.448 C 198.249 89.339,197.930 89.111,197.748 88.941 C 197.566 88.772,196.704 88.116,195.833 87.483 C 194.963 86.851,194.137 86.237,194.000 86.117 C 193.862 85.998,193.527 85.760,193.254 85.589 C 192.982 85.417,192.612 85.140,192.433 84.974 C 192.254 84.807,191.971 84.627,191.804 84.574 C 191.637 84.521,191.500 84.424,191.500 84.359 C 191.500 84.293,191.077 83.942,190.560 83.578 C 190.043 83.214,189.494 82.804,189.340 82.667 C 188.953 82.321,188.031 81.667,187.931 81.667 C 187.886 81.667,187.649 81.488,187.405 81.269 C 186.613 80.558,186.364 80.361,186.026 80.180 C 185.842 80.082,185.593 79.905,185.471 79.787 C 185.350 79.669,184.987 79.390,184.667 79.167 C 184.346 78.944,183.984 78.664,183.862 78.546 C 183.740 78.428,183.491 78.251,183.308 78.153 C 183.125 78.055,182.849 77.863,182.696 77.727 C 181.872 76.997,180.669 76.167,180.434 76.167 C 180.190 76.167,180.167 77.501,180.167 91.167 M244.041 76.375 C 243.950 76.490,243.489 77.333,243.017 78.250 C 242.545 79.167,242.047 80.065,241.910 80.245 C 241.773 80.426,241.572 80.820,241.464 81.120 C 241.355 81.421,241.219 81.667,241.162 81.667 C 241.104 81.667,240.876 82.060,240.654 82.542 C 240.432 83.023,240.170 83.503,240.072 83.608 C 239.973 83.713,239.760 84.144,239.599 84.566 C 239.438 84.988,239.245 85.333,239.171 85.333 C 239.097 85.333,238.909 85.652,238.753 86.041 C 238.597 86.430,238.415 86.787,238.348 86.833 C 238.282 86.879,238.050 87.292,237.833 87.750 C 237.617 88.208,237.394 88.621,237.339 88.667 C 237.284 88.712,237.055 89.144,236.830 89.625 C 236.605 90.106,236.372 90.500,236.312 90.500 C 236.252 90.500,236.159 90.674,236.106 90.887 C 236.052 91.100,235.837 91.531,235.627 91.846 C 235.417 92.160,235.098 92.754,234.919 93.167 C 234.739 93.579,234.548 93.954,234.493 94.000 C 234.326 94.139,232.218 98.056,232.094 98.458 C 232.030 98.665,231.920 98.833,231.851 98.833 C 231.781 98.833,231.542 99.227,231.321 99.708 C 231.099 100.190,230.840 100.666,230.745 100.767 C 230.650 100.868,230.427 101.281,230.249 101.684 C 230.071 102.087,229.882 102.454,229.829 102.500 C 229.775 102.546,229.557 102.921,229.344 103.333 C 229.131 103.746,228.781 104.421,228.567 104.833 C 228.352 105.246,228.175 105.753,228.172 105.961 L 228.167 106.339 232.019 106.295 L 235.871 106.250 236.132 105.583 C 236.276 105.217,236.446 104.879,236.511 104.833 C 236.620 104.755,237.398 103.384,237.976 102.250 C 238.116 101.975,238.328 101.651,238.448 101.530 C 238.568 101.409,238.667 101.240,238.667 101.155 C 238.667 101.063,240.989 101.000,244.417 101.000 C 249.289 101.000,250.167 101.036,250.167 101.238 C 250.167 101.369,250.261 101.575,250.375 101.696 C 250.490 101.818,250.734 102.217,250.917 102.583 C 251.100 102.950,251.298 103.287,251.356 103.333 C 251.414 103.379,251.635 103.792,251.846 104.250 C 252.058 104.708,252.281 105.121,252.342 105.167 C 252.404 105.212,252.578 105.494,252.731 105.792 L 253.009 106.333 256.828 106.333 C 258.928 106.333,260.685 106.272,260.731 106.198 C 260.815 106.062,260.052 104.324,259.840 104.167 C 259.778 104.121,259.550 103.708,259.333 103.250 C 259.117 102.792,258.897 102.379,258.845 102.333 C 258.793 102.287,258.601 101.950,258.418 101.583 C 258.236 101.217,258.042 100.879,257.987 100.833 C 257.933 100.787,257.690 100.337,257.449 99.833 C 256.814 98.511,255.312 95.764,255.169 95.667 C 255.102 95.621,254.945 95.299,254.821 94.951 C 254.696 94.603,254.473 94.189,254.325 94.030 C 254.177 93.871,253.921 93.386,253.755 92.954 C 253.590 92.521,253.397 92.167,253.327 92.167 C 253.256 92.167,253.028 91.754,252.819 91.250 C 252.610 90.746,252.390 90.333,252.330 90.333 C 252.270 90.333,252.046 89.921,251.833 89.417 C 251.620 88.912,251.393 88.500,251.329 88.500 C 251.265 88.500,251.083 88.162,250.926 87.750 C 250.768 87.337,250.580 87.000,250.508 87.000 C 250.437 87.000,250.220 86.644,250.028 86.208 C 249.659 85.373,248.942 84.031,248.714 83.750 C 248.640 83.658,248.432 83.254,248.253 82.851 C 248.074 82.448,247.850 82.032,247.755 81.926 C 247.661 81.821,247.208 80.990,246.750 80.081 C 246.292 79.171,245.839 78.342,245.745 78.238 C 245.650 78.134,245.426 77.719,245.248 77.316 C 244.899 76.531,244.620 76.167,244.366 76.167 C 244.279 76.167,244.133 76.260,244.041 76.375 M333.958 76.625 C 333.847 76.877,333.712 77.121,333.657 77.167 C 333.602 77.212,333.375 77.625,333.153 78.083 C 332.932 78.542,332.709 78.954,332.658 79.000 C 332.606 79.046,332.411 79.383,332.222 79.750 C 332.034 80.117,331.599 80.942,331.256 81.583 C 330.913 82.225,330.480 83.050,330.294 83.417 C 330.108 83.783,329.910 84.121,329.853 84.167 C 329.796 84.212,329.563 84.619,329.333 85.070 C 328.282 87.139,328.122 87.432,327.922 87.667 C 327.804 87.804,327.608 88.198,327.487 88.542 C 327.366 88.885,327.219 89.167,327.162 89.167 C 327.104 89.167,326.876 89.560,326.654 90.042 C 326.432 90.523,326.173 90.999,326.079 91.101 C 325.984 91.202,325.760 91.614,325.581 92.017 C 325.402 92.420,325.167 92.843,325.058 92.957 C 324.949 93.071,324.773 93.427,324.667 93.748 C 324.561 94.070,324.414 94.333,324.341 94.333 C 324.268 94.333,324.039 94.727,323.833 95.208 C 323.627 95.690,323.406 96.121,323.343 96.167 C 323.279 96.212,323.058 96.587,322.850 97.000 C 322.158 98.379,321.594 99.416,321.491 99.500 C 321.434 99.546,321.187 99.996,320.941 100.500 C 320.340 101.733,318.906 104.376,318.726 104.583 C 318.481 104.865,318.167 105.665,318.167 106.008 C 318.167 106.523,325.817 106.515,325.952 106.000 C 326.000 105.817,326.087 105.667,326.147 105.667 C 326.206 105.667,326.440 105.273,326.666 104.792 C 326.892 104.310,327.139 103.842,327.214 103.750 C 327.344 103.592,327.463 103.379,328.355 101.708 L 328.733 101.000 334.492 101.001 L 340.250 101.001 340.561 101.758 C 340.733 102.175,340.958 102.606,341.061 102.716 C 341.165 102.826,341.438 103.286,341.667 103.737 C 341.896 104.189,342.288 104.958,342.539 105.446 L 342.994 106.333 346.914 106.333 C 351.094 106.333,351.385 106.266,350.622 105.470 C 350.506 105.349,350.264 104.920,350.086 104.517 C 349.907 104.114,349.683 103.702,349.589 103.601 C 349.494 103.499,349.041 102.669,348.583 101.755 C 348.125 100.842,347.686 100.017,347.608 99.922 C 347.408 99.680,345.915 96.934,345.386 95.833 C 345.144 95.329,344.900 94.879,344.846 94.833 C 344.791 94.787,344.598 94.450,344.415 94.083 C 344.233 93.717,344.041 93.379,343.989 93.333 C 343.936 93.287,343.717 92.875,343.500 92.417 C 343.283 91.958,343.057 91.546,342.997 91.500 C 342.937 91.454,342.686 91.004,342.438 90.500 C 341.715 89.027,341.302 88.256,341.187 88.167 C 341.128 88.121,340.899 87.690,340.678 87.208 C 340.457 86.727,340.229 86.333,340.172 86.333 C 340.114 86.333,339.968 86.052,339.847 85.708 C 339.726 85.365,339.497 84.933,339.339 84.750 C 339.180 84.567,338.920 84.079,338.760 83.667 C 338.600 83.255,338.409 82.880,338.336 82.834 C 338.212 82.756,338.037 82.434,336.974 80.333 C 336.766 79.921,336.528 79.508,336.447 79.417 C 336.279 79.229,335.703 78.143,335.142 76.958 C 334.709 76.043,334.268 75.919,333.958 76.625 M130.167 91.332 L 130.167 106.187 137.141 106.135 C 141.700 106.101,144.197 106.022,144.350 105.907 C 144.478 105.811,145.165 105.592,145.875 105.421 C 146.585 105.250,147.167 105.058,147.167 104.992 C 147.167 104.927,147.617 104.706,148.167 104.500 C 148.717 104.294,149.167 104.074,149.167 104.011 C 149.167 103.947,149.429 103.770,149.750 103.617 C 150.071 103.464,150.333 103.268,150.333 103.181 C 150.333 103.094,150.479 102.976,150.656 102.920 C 151.188 102.751,154.000 99.819,154.000 99.434 C 154.000 99.371,154.139 99.171,154.308 98.989 C 154.478 98.807,154.715 98.360,154.835 97.996 C 154.955 97.631,155.111 97.333,155.182 97.333 C 155.252 97.333,155.429 96.902,155.575 96.375 C 155.721 95.848,155.915 95.284,156.007 95.122 C 156.544 94.172,156.562 88.312,156.030 87.601 C 155.954 87.500,155.799 87.079,155.685 86.667 C 155.450 85.810,154.361 83.500,154.193 83.500 C 154.132 83.500,153.979 83.268,153.853 82.985 C 153.530 82.255,151.074 79.821,150.083 79.247 C 149.625 78.983,149.212 78.713,149.166 78.648 C 149.120 78.583,148.745 78.396,148.333 78.232 C 147.921 78.068,147.499 77.851,147.396 77.750 C 147.293 77.649,146.618 77.422,145.896 77.246 C 145.174 77.069,144.530 76.848,144.465 76.754 C 144.388 76.643,141.852 76.565,137.256 76.530 L 130.167 76.477 130.167 91.332 M159.000 91.417 L 159.000 106.333 168.417 106.333 L 177.833 106.333 177.833 103.000 L 177.833 99.667 172.167 99.667 L 166.500 99.667 166.500 97.000 L 166.500 94.333 170.250 94.333 C 174.035 94.333,174.355 94.281,173.852 93.742 C 173.771 93.655,173.539 92.796,173.337 91.833 C 173.134 90.871,172.909 90.008,172.836 89.917 C 172.763 89.825,172.608 89.319,172.492 88.792 L 172.280 87.833 169.390 87.833 L 166.500 87.833 166.500 85.417 L 166.500 83.000 172.167 83.000 L 177.833 83.000 177.833 79.750 L 177.833 76.500 168.417 76.500 L 159.000 76.500 159.000 91.417 M208.833 76.825 C 208.833 77.301,209.185 78.889,209.333 79.083 C 209.403 79.175,209.628 80.000,209.832 80.917 C 210.036 81.833,210.270 82.655,210.351 82.742 C 210.433 82.829,210.500 83.072,210.500 83.283 L 210.500 83.667 213.333 83.667 L 216.167 83.667 216.167 94.917 L 216.167 106.167 220.000 106.167 L 223.833 106.167 223.833 94.917 L 223.833 83.667 227.250 83.667 C 230.539 83.667,230.667 83.654,230.667 83.338 C 230.667 82.854,229.980 79.778,229.828 79.583 C 229.757 79.492,229.568 78.760,229.410 77.958 L 229.121 76.500 218.977 76.500 C 209.030 76.500,208.833 76.506,208.833 76.825 M263.167 91.418 L 263.167 106.336 271.792 106.293 L 280.417 106.250 280.821 104.583 C 281.044 103.667,281.271 102.879,281.326 102.833 C 281.381 102.787,281.562 102.188,281.728 101.500 C 281.893 100.813,282.107 100.086,282.203 99.886 C 282.630 98.996,282.657 99.000,276.422 99.000 L 270.667 99.000 270.667 87.750 L 270.667 76.500 266.917 76.500 L 263.167 76.500 263.167 91.418 M353.500 91.319 L 353.500 106.167 357.250 106.167 L 361.000 106.167 361.011 99.958 C 361.021 94.014,361.033 93.775,361.302 94.333 C 361.456 94.654,361.620 94.954,361.666 95.000 C 361.712 95.046,362.350 96.283,363.083 97.750 C 363.817 99.217,364.457 100.454,364.506 100.500 C 364.555 100.546,365.221 101.840,365.986 103.375 L 367.377 106.167 371.772 106.167 C 376.738 106.167,376.614 106.206,375.727 104.898 C 375.485 104.542,375.215 104.044,375.127 103.792 C 375.039 103.540,374.909 103.333,374.838 103.333 C 374.766 103.333,374.548 102.963,374.353 102.509 C 374.158 102.056,373.924 101.640,373.833 101.583 C 373.742 101.527,373.508 101.110,373.313 100.657 C 373.118 100.204,372.899 99.833,372.826 99.833 C 372.752 99.833,372.604 99.566,372.496 99.238 C 372.388 98.911,372.206 98.607,372.090 98.563 C 371.975 98.519,371.784 98.188,371.665 97.829 C 371.547 97.469,371.327 97.042,371.177 96.879 C 371.027 96.717,370.802 96.333,370.676 96.027 C 370.551 95.722,370.363 95.384,370.259 95.277 C 369.700 94.703,369.139 93.167,369.488 93.167 C 369.573 93.167,369.742 93.070,369.863 92.952 C 369.984 92.834,370.365 92.565,370.708 92.355 C 371.052 92.145,371.335 91.923,371.336 91.861 C 371.337 91.800,371.560 91.498,371.832 91.191 C 372.103 90.883,372.416 90.377,372.529 90.066 C 372.642 89.755,372.784 89.500,372.845 89.500 C 373.165 89.500,373.567 87.316,373.566 85.583 C 373.563 82.292,372.805 80.547,370.560 78.656 C 369.973 78.161,368.081 77.337,367.083 77.141 C 366.533 77.033,366.030 76.863,365.965 76.764 C 365.884 76.641,363.859 76.565,359.673 76.528 L 353.500 76.472 353.500 91.319 M378.667 91.417 L 378.667 106.333 388.083 106.333 L 397.500 106.333 397.500 103.000 L 397.500 99.667 391.833 99.667 L 386.167 99.667 386.167 97.000 L 386.167 94.333 389.917 94.333 C 393.701 94.333,394.022 94.281,393.519 93.742 C 393.438 93.655,393.206 92.796,393.003 91.833 C 392.801 90.871,392.576 90.008,392.503 89.917 C 392.430 89.825,392.275 89.319,392.159 88.792 L 391.947 87.833 389.057 87.833 L 386.167 87.833 386.167 85.417 L 386.167 83.000 391.833 83.000 L 397.500 83.000 397.500 79.750 L 397.500 76.500 388.083 76.500 L 378.667 76.500 378.667 91.417 M141.893 83.302 C 141.998 83.383,142.440 83.545,142.875 83.663 C 144.334 84.057,147.333 86.472,147.333 87.252 C 147.333 87.375,147.439 87.582,147.569 87.712 C 148.519 88.662,148.717 92.583,147.905 94.370 C 147.303 95.696,145.409 98.000,144.922 98.000 C 144.822 98.000,144.625 98.136,144.483 98.301 C 144.341 98.467,143.780 98.741,143.237 98.910 C 142.694 99.080,142.201 99.293,142.141 99.384 C 142.082 99.475,141.088 99.586,139.933 99.631 L 137.833 99.712 137.833 91.330 L 137.833 82.949 139.768 83.053 C 140.833 83.110,141.789 83.222,141.893 83.302 M363.083 83.333 C 363.267 83.412,363.717 83.567,364.083 83.676 C 367.536 84.709,366.153 90.658,362.458 90.666 C 362.206 90.666,362.000 90.742,362.000 90.833 C 362.000 90.925,361.775 91.000,361.500 91.000 L 361.000 91.000 361.000 87.024 L 361.000 83.049 361.875 83.119 C 362.356 83.158,362.900 83.254,363.083 83.333 M244.802 91.495 C 244.867 91.544,245.101 91.977,245.322 92.458 C 245.543 92.940,245.767 93.334,245.820 93.334 C 245.873 93.334,246.055 93.672,246.225 94.084 C 246.394 94.496,246.601 94.833,246.683 94.833 C 246.766 94.833,246.833 94.908,246.833 95.000 C 246.833 95.104,245.877 95.166,244.292 95.164 C 242.894 95.163,241.830 95.106,241.928 95.039 C 242.026 94.972,242.283 94.542,242.500 94.083 C 242.717 93.625,242.942 93.212,243.000 93.167 C 243.058 93.121,243.285 92.708,243.503 92.250 C 243.721 91.792,243.997 91.318,244.116 91.196 C 244.236 91.075,244.338 90.888,244.344 90.780 C 244.350 90.672,244.428 90.769,244.519 90.995 C 244.609 91.222,244.737 91.447,244.802 91.495 M334.941 91.542 C 335.530 92.760,336.227 94.042,336.556 94.511 C 337.003 95.150,336.947 95.167,334.408 95.167 L 331.983 95.167 332.772 93.708 C 333.206 92.906,333.606 92.212,333.660 92.167 C 333.715 92.121,333.900 91.765,334.072 91.375 C 334.460 90.494,334.432 90.489,334.941 91.542 " stroke="none" fill="#4323a3" fill-rule="evenodd"></path><path id="path2" d="M36.042 22.782 C 36.202 22.823,36.465 22.823,36.625 22.782 C 36.785 22.740,36.654 22.705,36.333 22.705 C 36.012 22.705,35.881 22.740,36.042 22.782 M42.458 22.784 C 42.665 22.824,43.002 22.824,43.208 22.784 C 43.415 22.745,43.246 22.712,42.833 22.712 C 42.421 22.712,42.252 22.745,42.458 22.784 M78.127 22.785 C 78.334 22.824,78.634 22.823,78.794 22.781 C 78.953 22.739,78.783 22.707,78.417 22.709 C 78.050 22.711,77.920 22.745,78.127 22.785 M85.042 22.782 C 85.202 22.823,85.465 22.823,85.625 22.782 C 85.785 22.740,85.654 22.705,85.333 22.705 C 85.012 22.705,84.881 22.740,85.042 22.782 M44.294 22.951 C 44.501 22.991,44.801 22.990,44.960 22.948 C 45.120 22.906,44.950 22.874,44.583 22.875 C 44.217 22.877,44.086 22.911,44.294 22.951 M76.542 22.948 C 76.702 22.990,76.965 22.990,77.125 22.948 C 77.285 22.906,77.154 22.872,76.833 22.872 C 76.512 22.872,76.381 22.906,76.542 22.948 M94.901 35.250 C 94.901 36.717,94.927 37.294,94.957 36.534 C 94.988 35.773,94.988 34.573,94.957 33.867 C 94.926 33.161,94.901 33.783,94.901 35.250 M26.230 35.250 C 26.231 36.350,26.258 36.778,26.290 36.202 C 26.323 35.625,26.323 34.725,26.290 34.202 C 26.257 33.678,26.230 34.150,26.230 35.250 M26.372 39.000 C 26.372 39.321,26.406 39.452,26.448 39.292 C 26.490 39.131,26.490 38.869,26.448 38.708 C 26.406 38.548,26.372 38.679,26.372 39.000 M94.705 39.333 C 94.705 39.654,94.740 39.785,94.782 39.625 C 94.823 39.465,94.823 39.202,94.782 39.042 C 94.740 38.881,94.705 39.012,94.705 39.333 M94.539 40.833 C 94.539 41.154,94.573 41.285,94.615 41.125 C 94.657 40.965,94.657 40.702,94.615 40.542 C 94.573 40.381,94.539 40.512,94.539 40.833 M68.000 71.385 C 68.000 71.414,68.244 71.658,68.542 71.927 L 69.083 72.417 68.594 71.875 C 68.138 71.370,68.000 71.257,68.000 71.385 M51.994 72.458 L 51.083 73.417 52.042 72.506 C 52.932 71.659,53.076 71.500,52.953 71.500 C 52.927 71.500,52.495 71.931,51.994 72.458 M69.167 72.552 C 69.167 72.581,69.410 72.825,69.708 73.094 L 70.250 73.583 69.760 73.042 C 69.304 72.537,69.167 72.423,69.167 72.552 M30.379 76.500 C 30.379 76.912,30.411 77.081,30.451 76.875 C 30.491 76.669,30.491 76.331,30.451 76.125 C 30.411 75.919,30.379 76.087,30.379 76.500 M90.712 76.500 C 90.712 76.912,90.745 77.081,90.784 76.875 C 90.824 76.669,90.824 76.331,90.784 76.125 C 90.745 75.919,90.712 76.087,90.712 76.500 M90.889 79.833 C 90.889 80.521,90.919 80.802,90.955 80.458 C 90.991 80.115,90.991 79.552,90.955 79.208 C 90.919 78.865,90.889 79.146,90.889 79.833 M30.209 79.917 C 30.211 80.283,30.245 80.414,30.285 80.206 C 30.324 79.999,30.323 79.699,30.281 79.540 C 30.239 79.380,30.207 79.550,30.209 79.917 M30.375 83.083 C 30.377 83.450,30.411 83.580,30.451 83.373 C 30.491 83.166,30.490 82.866,30.448 82.706 C 30.406 82.547,30.374 82.717,30.375 83.083 M90.712 83.167 C 90.712 83.579,90.745 83.748,90.784 83.542 C 90.824 83.335,90.824 82.998,90.784 82.792 C 90.745 82.585,90.712 82.754,90.712 83.167 M73.539 83.333 C 73.539 83.654,73.573 83.785,73.615 83.625 C 73.657 83.465,73.657 83.202,73.615 83.042 C 73.573 82.881,73.539 83.012,73.539 83.333 M47.539 83.500 C 47.539 83.821,47.573 83.952,47.615 83.792 C 47.657 83.631,47.657 83.369,47.615 83.208 C 47.573 83.048,47.539 83.179,47.539 83.500 M73.736 88.667 C 73.736 90.454,73.761 91.185,73.791 90.292 C 73.821 89.398,73.821 87.935,73.791 87.042 C 73.761 86.148,73.736 86.879,73.736 88.667 M47.396 88.167 C 47.396 89.221,47.423 89.652,47.456 89.125 C 47.490 88.598,47.490 87.735,47.456 87.208 C 47.423 86.681,47.396 87.112,47.396 88.167 M73.712 97.500 C 73.712 97.912,73.745 98.081,73.784 97.875 C 73.824 97.669,73.824 97.331,73.784 97.125 C 73.745 96.919,73.712 97.087,73.712 97.500 M47.372 98.000 C 47.372 98.321,47.406 98.452,47.448 98.292 C 47.490 98.131,47.490 97.869,47.448 97.708 C 47.406 97.548,47.372 97.679,47.372 98.000 M84.077 100.208 L 83.250 101.083 84.125 100.256 C 84.606 99.801,85.000 99.408,85.000 99.381 C 85.000 99.257,84.846 99.395,84.077 100.208 M37.083 100.333 C 37.441 100.700,37.772 101.000,37.818 101.000 C 37.863 101.000,37.608 100.700,37.250 100.333 C 36.892 99.967,36.562 99.667,36.516 99.667 C 36.470 99.667,36.725 99.967,37.083 100.333 " stroke="none" fill="#7c67c1" fill-rule="evenodd"></path><path id="path3" d="M38.375 22.790 C 38.902 22.823,39.765 22.823,40.292 22.790 C 40.819 22.757,40.387 22.730,39.333 22.730 C 38.279 22.730,37.848 22.757,38.375 22.790 M80.792 22.790 C 81.456 22.822,82.544 22.822,83.208 22.790 C 83.873 22.759,83.329 22.733,82.000 22.733 C 80.671 22.733,80.127 22.759,80.792 22.790 M35.875 22.948 C 36.035 22.990,36.298 22.990,36.458 22.948 C 36.619 22.906,36.487 22.872,36.167 22.872 C 35.846 22.872,35.715 22.906,35.875 22.948 M42.625 22.951 C 42.831 22.991,43.169 22.991,43.375 22.951 C 43.581 22.911,43.413 22.879,43.000 22.879 C 42.587 22.879,42.419 22.911,42.625 22.951 M77.875 22.948 C 78.035 22.990,78.298 22.990,78.458 22.948 C 78.619 22.906,78.487 22.872,78.167 22.872 C 77.846 22.872,77.715 22.906,77.875 22.948 M44.542 23.115 C 44.702 23.157,44.965 23.157,45.125 23.115 C 45.285 23.073,45.154 23.039,44.833 23.039 C 44.512 23.039,44.381 23.073,44.542 23.115 M26.539 31.667 C 26.539 31.988,26.573 32.119,26.615 31.958 C 26.657 31.798,26.657 31.535,26.615 31.375 C 26.573 31.215,26.539 31.346,26.539 31.667 M94.714 33.083 C 94.716 33.542,94.748 33.709,94.786 33.456 C 94.825 33.203,94.824 32.828,94.784 32.623 C 94.744 32.418,94.713 32.625,94.714 33.083 M26.381 33.417 C 26.382 33.875,26.415 34.043,26.453 33.789 C 26.491 33.536,26.490 33.161,26.451 32.956 C 26.411 32.751,26.380 32.958,26.381 33.417 M26.383 37.167 C 26.383 37.671,26.415 37.877,26.453 37.625 C 26.491 37.373,26.491 36.960,26.453 36.708 C 26.415 36.456,26.383 36.662,26.383 37.167 M94.717 37.500 C 94.717 38.004,94.748 38.210,94.786 37.958 C 94.824 37.706,94.824 37.294,94.786 37.042 C 94.748 36.790,94.717 36.996,94.717 37.500 M26.542 39.250 C 26.544 39.617,26.578 39.747,26.618 39.540 C 26.658 39.332,26.656 39.032,26.615 38.873 C 26.573 38.714,26.540 38.883,26.542 39.250 M52.000 72.250 C 51.595 72.662,51.301 73.000,51.347 73.000 C 51.393 73.000,51.762 72.662,52.167 72.250 C 52.572 71.837,52.865 71.500,52.819 71.500 C 52.774 71.500,52.405 71.837,52.000 72.250 M69.167 72.385 C 69.167 72.414,69.410 72.658,69.708 72.927 L 70.250 73.417 69.760 72.875 C 69.304 72.370,69.167 72.257,69.167 72.385 M90.539 75.667 C 90.539 75.987,90.573 76.119,90.615 75.958 C 90.657 75.798,90.657 75.535,90.615 75.375 C 90.573 75.215,90.539 75.346,90.539 75.667 M30.542 76.250 C 30.544 76.617,30.578 76.747,30.618 76.540 C 30.658 76.332,30.656 76.032,30.615 75.873 C 30.573 75.714,30.540 75.883,30.542 76.250 M90.731 79.750 C 90.732 80.942,90.758 81.407,90.790 80.785 C 90.823 80.162,90.822 79.187,90.790 78.618 C 90.757 78.049,90.731 78.558,90.731 79.750 M30.396 79.833 C 30.396 80.887,30.423 81.319,30.456 80.792 C 30.490 80.265,30.490 79.402,30.456 78.875 C 30.423 78.348,30.396 78.779,30.396 79.833 M30.542 83.417 C 30.544 83.783,30.578 83.914,30.618 83.706 C 30.658 83.499,30.656 83.199,30.615 83.040 C 30.573 82.880,30.540 83.050,30.542 83.417 M47.385 84.250 C 47.386 84.800,47.417 85.005,47.454 84.705 C 47.491 84.406,47.490 83.956,47.452 83.705 C 47.414 83.455,47.384 83.700,47.385 84.250 M90.539 83.833 C 90.539 84.154,90.573 84.285,90.615 84.125 C 90.657 83.965,90.657 83.702,90.615 83.542 C 90.573 83.381,90.539 83.512,90.539 83.833 M73.709 84.083 C 73.711 84.450,73.745 84.580,73.785 84.373 C 73.824 84.166,73.823 83.866,73.781 83.706 C 73.739 83.547,73.707 83.717,73.709 84.083 M73.896 88.250 C 73.896 89.258,73.924 89.649,73.957 89.119 C 73.990 88.588,73.990 87.763,73.956 87.286 C 73.922 86.808,73.895 87.242,73.896 88.250 M47.394 94.417 C 47.395 95.333,47.423 95.687,47.456 95.203 C 47.490 94.718,47.490 93.968,47.456 93.536 C 47.421 93.104,47.394 93.500,47.394 94.417 M73.872 98.000 C 73.872 98.321,73.906 98.452,73.948 98.292 C 73.990 98.131,73.990 97.869,73.948 97.708 C 73.906 97.548,73.872 97.679,73.872 98.000 M83.911 100.208 L 82.917 101.250 83.958 100.255 C 84.926 99.331,85.076 99.167,84.953 99.167 C 84.927 99.167,84.459 99.635,83.911 100.208 M37.083 100.167 C 37.535 100.625,37.942 101.000,37.987 101.000 C 38.033 101.000,37.701 100.625,37.250 100.167 C 36.799 99.708,36.392 99.333,36.346 99.333 C 36.300 99.333,36.632 99.708,37.083 100.167 " stroke="none" fill="#a495d4" fill-rule="evenodd"></path><path id="path4" d="M41.375 22.782 C 41.535 22.823,41.798 22.823,41.958 22.782 C 42.119 22.740,41.987 22.705,41.667 22.705 C 41.346 22.705,41.215 22.740,41.375 22.782 M47.375 85.750 C 47.377 86.117,47.411 86.247,47.451 86.040 C 47.491 85.832,47.490 85.532,47.448 85.373 C 47.406 85.214,47.374 85.383,47.375 85.750 M47.392 91.417 C 47.392 92.242,47.420 92.600,47.455 92.213 C 47.490 91.827,47.490 91.152,47.456 90.713 C 47.422 90.275,47.393 90.592,47.392 91.417 M73.734 94.333 C 73.734 95.754,73.759 96.335,73.791 95.625 C 73.822 94.915,73.822 93.752,73.791 93.042 C 73.759 92.331,73.734 92.912,73.734 94.333 M47.381 96.750 C 47.382 97.208,47.415 97.376,47.453 97.123 C 47.491 96.869,47.490 96.494,47.451 96.289 C 47.411 96.084,47.380 96.292,47.381 96.750 M42.875 103.448 C 43.035 103.490,43.298 103.490,43.458 103.448 C 43.619 103.406,43.487 103.372,43.167 103.372 C 42.846 103.372,42.715 103.406,42.875 103.448 M77.708 103.448 C 77.869 103.490,78.131 103.490,78.292 103.448 C 78.452 103.406,78.321 103.372,78.000 103.372 C 77.679 103.372,77.548 103.406,77.708 103.448 " stroke="none" fill="#9c8cd0" fill-rule="evenodd"></path></g></svg>