<svg id="svg" version="1.1" xmlns="http://www.w3.org/2000/svg" xmlns:xlink="http://www.w3.org/1999/xlink" width="400" height="112.7051101734646" viewBox="0, 0, 400,112.7051101734646"><g id="svgg"><path id="path0" d="M49.917 1.516 C 49.642 1.601,48.629 1.784,47.667 1.923 C 45.666 2.211,42.624 2.846,42.500 3.000 C 42.454 3.057,41.967 3.201,41.417 3.321 C 40.147 3.596,37.776 4.335,37.667 4.490 C 37.621 4.555,37.208 4.708,36.750 4.830 C 36.292 4.952,35.654 5.180,35.333 5.336 C 35.012 5.492,34.526 5.673,34.252 5.740 C 33.978 5.806,33.715 5.918,33.668 5.988 C 33.622 6.059,32.946 6.402,32.167 6.750 C 31.387 7.098,30.712 7.434,30.667 7.495 C 30.621 7.556,29.984 7.900,29.252 8.259 C 28.520 8.618,27.791 9.042,27.631 9.202 C 27.472 9.362,27.083 9.600,26.768 9.732 C 26.454 9.863,26.057 10.109,25.888 10.277 C 25.719 10.446,25.169 10.843,24.665 11.159 C 24.162 11.476,23.530 11.945,23.260 12.201 C 22.991 12.457,22.691 12.667,22.593 12.668 C 22.496 12.668,22.042 13.001,21.583 13.408 C 21.125 13.815,20.450 14.408,20.083 14.727 C 19.009 15.661,15.994 18.674,15.000 19.807 C 14.496 20.382,13.765 21.204,13.376 21.634 C 12.987 22.065,12.668 22.498,12.668 22.597 C 12.667 22.697,12.415 23.034,12.108 23.347 C 11.800 23.660,11.334 24.292,11.071 24.750 C 10.808 25.208,10.471 25.716,10.322 25.879 C 10.173 26.041,9.837 26.585,9.574 27.087 C 9.311 27.589,9.042 28.000,8.975 28.000 C 8.909 28.000,8.573 28.581,8.229 29.292 C 7.886 30.002,7.550 30.621,7.483 30.668 C 7.417 30.714,7.083 31.389,6.742 32.168 C 6.401 32.946,6.069 33.621,6.004 33.667 C 5.939 33.712,5.693 34.315,5.457 35.005 C 5.048 36.196,4.898 36.591,4.409 37.750 C 4.293 38.025,3.961 39.112,3.670 40.167 C 3.380 41.221,3.074 42.271,2.991 42.500 C 2.783 43.072,2.049 46.711,1.915 47.833 C 1.855 48.337,1.699 49.173,1.569 49.691 C 1.234 51.029,1.231 60.863,1.566 62.173 C 1.694 62.674,1.851 63.496,1.914 64.000 C 2.087 65.382,2.818 68.994,3.077 69.750 C 3.202 70.117,3.547 71.279,3.843 72.333 C 4.139 73.387,4.437 74.287,4.505 74.333 C 4.574 74.379,4.708 74.679,4.803 75.000 C 5.171 76.239,5.899 78.102,6.170 78.500 C 6.326 78.729,6.539 79.180,6.644 79.503 C 6.748 79.825,7.134 80.603,7.502 81.232 C 7.869 81.861,8.315 82.704,8.492 83.104 C 8.670 83.505,8.877 83.833,8.954 83.833 C 9.031 83.833,9.181 84.040,9.288 84.292 C 9.590 85.003,10.286 86.120,10.661 86.494 C 10.847 86.681,11.000 86.927,11.001 87.042 C 11.001 87.156,11.253 87.523,11.560 87.857 C 11.866 88.192,12.158 88.567,12.207 88.691 C 12.256 88.815,12.829 89.531,13.481 90.282 C 14.133 91.032,14.667 91.690,14.667 91.743 C 14.667 91.796,14.985 92.164,15.375 92.562 C 15.765 92.960,16.550 93.765,17.120 94.351 C 17.691 94.937,18.578 95.792,19.093 96.250 C 19.608 96.708,20.229 97.271,20.473 97.500 C 20.717 97.729,21.157 98.104,21.450 98.333 C 21.743 98.563,22.438 99.106,22.993 99.542 C 23.549 99.977,24.074 100.333,24.160 100.333 C 24.246 100.333,24.377 100.438,24.450 100.565 C 24.523 100.693,24.958 101.019,25.417 101.291 C 25.875 101.562,26.700 102.085,27.250 102.452 C 27.800 102.819,28.418 103.173,28.624 103.237 C 28.830 103.302,29.094 103.451,29.212 103.569 C 29.489 103.846,31.830 105.000,32.115 105.000 C 32.235 105.000,32.333 105.065,32.333 105.145 C 32.333 105.292,34.212 106.167,34.528 106.167 C 34.624 106.167,35.087 106.363,35.559 106.604 C 36.464 107.064,38.722 107.827,39.196 107.831 C 39.350 107.832,39.575 107.931,39.696 108.051 C 39.974 108.325,41.401 108.718,43.721 109.159 C 44.713 109.347,45.658 109.573,45.821 109.660 C 47.904 110.775,62.657 110.739,66.417 109.609 C 66.875 109.472,67.887 109.236,68.667 109.085 C 70.515 108.727,72.000 108.325,72.417 108.071 C 72.600 107.959,73.462 107.668,74.333 107.424 C 75.204 107.180,75.992 106.891,76.083 106.782 C 76.175 106.673,76.662 106.449,77.167 106.285 C 78.338 105.903,79.691 105.307,79.957 105.056 C 80.071 104.948,80.439 104.769,80.777 104.658 C 81.403 104.451,82.517 103.857,82.667 103.650 C 82.712 103.586,83.172 103.335,83.687 103.091 C 84.202 102.847,84.780 102.502,84.972 102.324 C 85.163 102.146,85.372 102.000,85.436 102.000 C 85.500 102.000,85.798 101.813,86.098 101.583 C 86.399 101.354,86.721 101.167,86.814 101.167 C 86.907 101.167,87.193 100.969,87.450 100.728 C 87.707 100.486,88.273 100.067,88.708 99.797 C 89.144 99.526,89.500 99.246,89.500 99.175 C 89.500 99.103,89.801 98.845,90.170 98.601 C 92.050 97.357,98.343 91.067,98.651 90.125 C 98.689 90.010,98.851 89.823,99.013 89.708 C 99.174 89.594,99.474 89.219,99.680 88.875 C 99.885 88.531,100.185 88.138,100.346 88.000 C 100.507 87.862,100.777 87.513,100.945 87.224 C 101.113 86.935,101.606 86.168,102.042 85.521 C 102.477 84.874,102.833 84.267,102.833 84.172 C 102.833 84.077,102.978 83.855,103.155 83.679 C 103.331 83.502,103.756 82.771,104.099 82.054 C 104.442 81.337,104.772 80.712,104.832 80.667 C 104.982 80.554,106.167 77.763,106.167 77.524 C 106.167 77.419,106.232 77.333,106.311 77.333 C 106.460 77.333,106.910 76.170,107.441 74.417 C 107.608 73.867,107.823 73.334,107.919 73.233 C 108.015 73.132,108.305 72.157,108.563 71.066 C 108.821 69.976,109.172 68.660,109.343 68.143 C 110.735 63.930,110.899 51.223,109.644 44.833 C 109.545 44.329,109.407 43.842,109.337 43.750 C 109.267 43.658,109.006 42.683,108.757 41.583 C 108.508 40.483,108.165 39.283,107.995 38.917 C 107.824 38.550,107.453 37.521,107.170 36.631 C 106.887 35.741,106.559 34.916,106.441 34.798 C 106.323 34.680,106.181 34.433,106.125 34.250 C 105.728 32.958,103.809 29.009,103.250 28.333 C 103.136 28.196,102.797 27.633,102.497 27.083 C 102.197 26.533,101.850 26.023,101.726 25.950 C 101.602 25.877,101.500 25.732,101.500 25.629 C 101.500 25.415,99.726 22.988,98.792 21.924 C 98.448 21.533,98.167 21.146,98.168 21.065 C 98.169 20.983,97.909 20.654,97.592 20.333 C 93.611 16.311,92.608 15.319,91.939 14.750 C 91.508 14.383,90.909 13.840,90.608 13.542 C 90.306 13.244,90.008 13.000,89.945 13.000 C 89.828 13.000,87.173 11.064,86.597 10.558 C 86.421 10.403,85.936 10.095,85.518 9.874 C 85.101 9.652,84.570 9.337,84.338 9.174 C 84.106 9.012,83.401 8.602,82.771 8.264 C 82.140 7.925,81.516 7.540,81.384 7.408 C 81.251 7.275,81.032 7.167,80.897 7.167 C 80.762 7.167,80.299 6.979,79.869 6.750 C 79.438 6.521,78.997 6.333,78.888 6.333 C 78.779 6.333,78.591 6.240,78.470 6.125 C 78.231 5.898,77.743 5.695,75.833 5.027 C 75.146 4.787,74.558 4.532,74.528 4.462 C 74.497 4.391,74.376 4.333,74.257 4.333 C 74.139 4.333,73.466 4.145,72.762 3.915 C 72.057 3.685,71.129 3.421,70.699 3.329 C 70.269 3.237,69.767 3.092,69.583 3.007 C 69.036 2.755,66.356 2.196,64.750 1.999 C 63.925 1.898,62.795 1.707,62.239 1.574 C 61.069 1.295,50.789 1.247,49.917 1.516 M61.833 2.922 C 67.299 3.643,71.141 4.592,75.411 6.277 C 114.374 21.654,121.394 73.564,87.908 98.681 C 66.672 114.610,37.119 112.414,18.163 93.500 C -6.223 69.168,-0.977 27.701,28.709 10.135 C 38.569 4.300,51.284 1.531,61.833 2.922 M120.200 16.200 C 119.802 16.598,119.923 57.614,120.322 57.827 C 120.536 57.942,124.591 58.000,132.322 58.000 C 145.787 58.000,144.400 58.212,144.899 56.082 C 145.071 55.349,145.263 54.712,145.327 54.667 C 145.390 54.621,145.734 53.421,146.092 52.000 C 146.449 50.579,146.796 49.377,146.862 49.329 C 147.027 49.208,147.280 47.978,147.208 47.642 C 147.111 47.192,146.737 47.171,138.792 47.169 L 131.167 47.167 131.167 31.783 C 131.167 20.041,131.119 16.353,130.967 16.200 C 130.681 15.914,120.486 15.914,120.200 16.200 M139.445 16.302 C 139.147 16.631,139.074 17.332,139.311 17.592 C 139.390 17.679,139.739 18.950,140.086 20.417 C 140.433 21.883,140.768 23.121,140.832 23.167 C 140.895 23.212,141.082 23.850,141.247 24.583 C 141.752 26.831,141.404 26.667,145.671 26.667 L 149.333 26.667 149.336 42.042 C 149.337 51.440,149.400 57.514,149.496 57.667 C 149.632 57.881,150.439 57.917,155.083 57.917 C 159.728 57.917,160.535 57.881,160.670 57.667 C 160.767 57.514,160.829 51.441,160.831 42.044 L 160.833 26.672 165.440 26.628 C 169.545 26.588,170.066 26.553,170.224 26.303 C 170.401 26.023,169.642 22.142,169.333 21.750 C 169.261 21.658,168.930 20.387,168.596 18.926 C 168.263 17.464,167.949 16.226,167.898 16.176 C 167.599 15.877,139.718 16.001,139.445 16.302 M170.373 16.194 C 170.022 16.544,170.260 18.116,170.813 19.105 C 170.909 19.276,171.260 20.317,171.594 21.417 C 171.928 22.517,172.261 23.492,172.335 23.583 C 172.409 23.675,172.751 24.688,173.094 25.833 C 173.438 26.979,173.767 27.954,173.826 28.000 C 173.885 28.046,174.186 28.946,174.495 30.000 C 174.804 31.054,175.154 32.104,175.274 32.333 C 175.394 32.563,175.757 33.643,176.081 34.735 C 176.405 35.827,176.733 36.802,176.811 36.902 C 176.888 37.002,177.237 38.021,177.586 39.167 C 177.936 40.313,178.273 41.287,178.337 41.333 C 178.400 41.379,178.698 42.279,178.999 43.333 C 179.299 44.387,179.636 45.400,179.747 45.583 C 179.857 45.767,180.190 46.742,180.486 47.750 C 180.782 48.758,181.130 49.808,181.259 50.083 C 181.387 50.358,181.754 51.408,182.074 52.417 C 183.212 56.006,184.065 58.420,184.269 58.625 C 184.498 58.855,185.333 58.912,185.333 58.698 C 185.333 58.624,185.478 58.408,185.654 58.218 C 185.831 58.029,186.253 57.321,186.592 56.645 C 186.932 55.969,187.264 55.379,187.332 55.333 C 187.399 55.288,187.693 54.767,187.985 54.176 C 188.276 53.586,188.774 52.676,189.091 52.154 C 189.408 51.633,189.667 51.133,189.667 51.043 C 189.667 50.953,189.861 50.593,190.099 50.243 C 190.337 49.893,190.799 49.076,191.127 48.428 C 191.455 47.780,191.780 47.212,191.849 47.165 C 191.918 47.117,192.242 46.523,192.567 45.843 C 192.893 45.163,193.223 44.564,193.300 44.512 C 193.378 44.460,193.736 43.817,194.096 43.083 C 194.456 42.350,194.850 41.645,194.972 41.517 C 195.093 41.388,195.363 40.901,195.571 40.433 C 195.779 39.966,196.139 39.305,196.371 38.965 L 196.793 38.346 197.078 39.093 C 197.235 39.503,197.452 39.932,197.560 40.045 C 197.669 40.158,198.042 40.886,198.390 41.664 C 198.738 42.441,199.074 43.116,199.136 43.164 C 199.199 43.211,199.545 43.850,199.905 44.583 C 200.264 45.317,200.610 45.954,200.674 46.000 C 200.737 46.046,201.067 46.720,201.408 47.499 C 201.750 48.278,202.083 48.953,202.148 48.999 C 202.214 49.045,202.550 49.682,202.894 50.413 C 203.238 51.144,203.580 51.782,203.654 51.830 C 203.728 51.877,204.067 52.554,204.408 53.332 C 204.750 54.111,205.086 54.786,205.156 54.832 C 205.226 54.879,205.568 55.551,205.916 56.325 C 206.264 57.100,206.726 57.925,206.941 58.157 C 207.157 58.390,207.333 58.637,207.333 58.707 C 207.333 58.918,208.176 58.848,208.407 58.617 C 208.526 58.498,208.828 57.804,209.079 57.075 C 209.329 56.346,209.592 55.675,209.662 55.583 C 209.731 55.492,210.033 54.667,210.332 53.750 C 210.631 52.833,211.042 51.708,211.246 51.250 C 211.450 50.792,211.829 49.742,212.087 48.917 C 212.346 48.092,212.609 47.379,212.671 47.333 C 212.733 47.288,213.069 46.387,213.418 45.333 C 213.766 44.279,214.145 43.267,214.258 43.083 C 214.372 42.900,214.705 42.000,214.998 41.083 C 215.291 40.167,215.591 39.342,215.663 39.250 C 215.736 39.158,216.081 38.221,216.430 37.167 C 216.779 36.112,217.114 35.212,217.174 35.167 C 217.234 35.121,217.567 34.221,217.914 33.167 C 218.261 32.112,218.606 31.172,218.681 31.076 C 218.756 30.980,219.084 30.087,219.410 29.091 C 219.737 28.095,220.068 27.198,220.146 27.098 C 220.225 26.998,220.572 26.054,220.919 25.000 C 221.266 23.946,221.599 23.046,221.660 23.000 C 221.721 22.954,222.060 22.017,222.414 20.917 C 222.768 19.817,223.108 18.879,223.169 18.833 C 223.338 18.707,223.833 17.156,223.833 16.754 C 223.833 16.014,223.721 16.000,217.915 16.000 C 211.588 16.000,211.994 15.899,211.583 17.583 C 211.426 18.225,211.243 18.787,211.176 18.833 C 211.108 18.879,210.770 19.967,210.424 21.250 C 210.077 22.533,209.743 23.621,209.680 23.667 C 209.575 23.743,209.192 25.057,208.537 27.583 C 208.395 28.133,208.224 28.621,208.159 28.667 C 208.093 28.712,207.756 29.800,207.409 31.083 C 207.063 32.367,206.717 33.442,206.640 33.472 C 206.563 33.503,206.500 33.667,206.500 33.837 C 206.500 34.509,206.186 34.278,205.758 33.291 C 205.511 32.721,205.249 32.216,205.177 32.169 C 205.104 32.122,204.766 31.446,204.425 30.668 C 204.084 29.889,203.746 29.214,203.675 29.168 C 203.604 29.121,203.266 28.446,202.925 27.668 C 202.584 26.889,202.246 26.214,202.175 26.168 C 202.104 26.121,201.766 25.446,201.425 24.668 C 201.084 23.889,200.749 23.214,200.680 23.168 C 200.612 23.121,200.302 22.521,199.991 21.833 C 199.681 21.146,199.384 20.546,199.332 20.500 C 199.281 20.454,198.847 19.629,198.369 18.667 C 196.812 15.535,196.330 15.376,195.350 17.672 C 195.038 18.402,194.729 19.000,194.664 19.000 C 194.599 19.000,194.269 19.581,193.930 20.292 C 193.590 21.002,192.945 22.258,192.496 23.083 C 191.541 24.839,190.500 26.979,190.500 27.187 C 190.500 27.268,190.431 27.333,190.346 27.333 C 190.262 27.333,189.923 27.915,189.594 28.625 C 189.265 29.335,188.920 30.029,188.827 30.167 C 188.734 30.304,188.506 30.738,188.319 31.130 C 188.133 31.522,187.691 32.342,187.337 32.952 L 186.694 34.061 186.437 33.155 C 186.296 32.657,186.129 32.025,186.065 31.750 C 186.001 31.475,185.899 31.212,185.839 31.167 C 185.778 31.121,185.445 29.996,185.098 28.667 C 184.751 27.337,184.409 26.175,184.339 26.083 C 184.268 25.992,183.927 24.829,183.581 23.500 C 183.235 22.171,182.903 21.046,182.844 21.000 C 182.785 20.954,182.456 19.871,182.113 18.592 C 181.770 17.314,181.448 16.226,181.398 16.175 C 181.189 15.966,170.583 15.983,170.373 16.194 M130.541 32.292 L 130.583 47.917 138.552 47.960 C 146.033 48.001,146.516 48.021,146.441 48.293 C 146.298 48.807,145.031 53.191,144.455 55.167 L 143.896 57.083 132.198 57.126 L 120.500 57.169 120.500 37.007 L 120.500 16.845 122.125 16.791 C 123.019 16.761,125.268 16.721,127.124 16.702 L 130.498 16.667 130.541 32.292 M167.250 16.833 C 167.407 17.088,169.667 25.591,169.667 25.928 C 169.667 25.968,167.529 26.000,164.917 26.000 L 160.167 26.000 160.167 41.583 L 160.167 57.167 155.168 57.167 L 150.168 57.167 150.126 41.625 L 150.083 26.083 146.219 26.039 L 142.355 25.994 142.091 25.085 C 141.946 24.586,141.494 22.918,141.088 21.380 C 140.681 19.842,140.236 18.214,140.099 17.763 C 139.961 17.312,139.887 16.881,139.934 16.805 C 140.061 16.600,167.123 16.628,167.250 16.833 M180.792 16.875 C 180.884 16.990,181.311 18.283,181.742 19.750 C 182.173 21.217,182.815 23.392,183.169 24.583 C 183.522 25.775,184.197 28.063,184.668 29.667 C 186.217 34.949,186.522 35.878,186.655 35.730 C 186.785 35.586,190.979 27.621,193.666 22.417 C 195.677 18.523,196.513 17.000,196.638 17.003 C 196.700 17.004,198.661 20.810,200.997 25.461 C 203.333 30.112,205.539 34.472,205.900 35.151 L 206.557 36.385 207.087 34.567 C 207.379 33.568,208.015 31.475,208.501 29.917 C 209.595 26.402,210.254 24.250,211.153 21.250 C 211.538 19.967,212.017 18.429,212.218 17.833 L 212.583 16.750 217.665 16.706 C 220.460 16.682,222.838 16.697,222.949 16.739 C 223.177 16.827,223.015 17.338,221.333 21.833 C 220.768 23.346,220.130 25.071,219.916 25.667 C 219.702 26.262,218.764 28.813,217.831 31.333 C 216.899 33.854,215.847 36.704,215.494 37.667 C 213.928 41.936,211.769 47.797,210.828 50.333 C 209.853 52.962,208.721 56.055,208.308 57.216 C 207.850 58.504,207.836 58.492,206.178 55.242 C 199.112 41.400,196.823 37.000,196.689 37.000 C 196.625 37.000,196.293 37.544,195.951 38.208 C 195.608 38.873,194.969 40.054,194.529 40.833 C 194.090 41.612,193.068 43.450,192.259 44.917 C 191.449 46.383,190.434 48.221,190.004 49.000 C 187.312 53.877,186.038 56.199,185.591 57.040 C 185.312 57.567,185.000 57.998,184.898 57.999 C 184.678 58.000,183.849 55.613,177.518 36.750 C 176.872 34.825,175.104 29.577,173.588 25.089 C 172.073 20.600,170.833 16.869,170.833 16.797 C 170.833 16.562,180.603 16.638,180.792 16.875 M33.583 21.178 C 30.509 21.494,28.230 22.315,26.934 23.575 C 22.929 27.468,23.716 39.317,29.197 57.606 L 30.053 60.463 29.451 63.190 C 26.418 76.939,29.133 89.320,36.246 94.169 C 38.916 95.989,41.439 95.935,42.636 94.032 C 43.660 92.406,43.719 91.870,43.751 83.917 C 43.804 70.913,45.494 67.121,52.741 63.745 C 56.043 62.206,56.236 62.212,59.721 63.939 C 66.709 67.403,68.325 71.322,68.335 84.833 C 68.339 91.088,68.447 92.256,69.144 93.623 C 70.546 96.369,73.888 96.077,77.297 92.911 C 83.360 87.277,85.407 75.790,82.591 63.196 L 81.982 60.476 82.895 57.446 C 87.838 41.034,88.944 29.255,85.978 24.632 C 83.293 20.448,75.348 19.962,60.583 23.079 C 55.563 24.139,56.511 24.127,52.218 23.190 C 44.459 21.497,37.641 20.761,33.583 21.178 M303.083 63.606 C 291.962 64.702,286.924 78.944,294.627 87.514 C 299.076 92.463,306.552 93.257,311.807 89.337 C 314.127 87.607,314.150 87.975,311.548 85.248 L 309.513 83.114 308.715 83.895 C 303.018 89.469,294.319 81.551,297.919 74.068 C 300.105 69.522,305.257 68.298,308.731 71.500 L 309.485 72.195 311.534 70.079 C 313.999 67.533,313.927 67.768,312.594 66.648 C 309.998 64.466,306.315 63.288,303.083 63.606 M171.041 77.542 L 171.083 91.083 174.375 91.129 L 177.667 91.174 177.667 84.448 C 177.667 80.749,177.712 77.677,177.767 77.622 C 177.822 77.567,178.261 77.836,178.742 78.219 C 183.697 82.167,194.009 90.467,194.342 90.774 C 194.577 90.990,194.821 91.167,194.885 91.167 C 194.949 91.167,194.983 85.110,194.959 77.708 L 194.917 64.250 191.627 64.205 L 188.337 64.160 188.294 70.421 L 188.250 76.682 179.769 70.341 C 175.104 66.853,171.223 64.000,171.143 64.000 C 171.062 64.000,171.017 69.950,171.041 77.542 M239.392 64.625 C 238.856 65.624,235.753 71.336,234.121 74.333 C 233.297 75.846,231.874 78.471,230.960 80.167 C 230.046 81.862,229.164 83.475,229.000 83.750 C 228.494 84.600,225.000 91.143,225.000 91.241 C 225.000 91.292,226.497 91.333,228.326 91.333 L 231.653 91.333 232.051 90.625 C 232.271 90.235,232.878 89.148,233.401 88.208 L 234.352 86.500 239.834 86.500 L 245.315 86.500 246.271 88.292 C 246.797 89.277,247.402 90.365,247.615 90.708 L 248.004 91.333 251.335 91.333 C 253.168 91.333,254.667 91.299,254.667 91.256 C 254.667 91.213,254.243 90.407,253.724 89.464 C 253.206 88.521,252.093 86.475,251.252 84.917 C 249.520 81.710,246.129 75.466,243.831 71.250 C 242.981 69.692,241.753 67.424,241.101 66.210 C 239.760 63.712,239.842 63.788,239.392 64.625 M331.124 66.292 C 330.442 67.552,329.639 69.033,329.339 69.583 C 329.039 70.133,328.041 71.971,327.122 73.667 C 325.492 76.672,324.015 79.390,320.959 85.000 C 320.136 86.513,319.122 88.388,318.707 89.167 C 318.291 89.946,317.888 90.655,317.809 90.742 C 317.318 91.287,317.628 91.341,321.018 91.295 L 324.370 91.250 325.643 88.917 L 326.917 86.583 332.419 86.539 L 337.921 86.496 338.902 88.289 C 339.441 89.276,340.060 90.365,340.277 90.708 L 340.671 91.333 343.919 91.333 C 346.065 91.333,347.167 91.274,347.167 91.159 C 347.167 91.003,345.209 87.330,340.996 79.583 C 340.199 78.117,338.794 75.529,337.874 73.833 C 336.954 72.137,335.668 69.775,335.015 68.583 C 334.362 67.392,333.548 65.873,333.205 65.209 C 332.421 63.686,332.577 63.605,331.124 66.292 M120.000 77.653 L 120.000 91.167 125.895 91.167 C 132.675 91.167,133.752 91.010,136.500 89.629 C 146.697 84.502,146.456 70.360,136.090 65.570 C 133.449 64.350,132.961 64.283,126.125 64.207 L 120.000 64.138 120.000 77.653 M149.000 77.752 L 149.000 91.336 157.542 91.293 L 166.083 91.250 166.129 88.461 L 166.175 85.671 160.879 85.627 L 155.583 85.583 155.537 82.958 L 155.492 80.333 158.912 80.333 C 161.586 80.333,162.333 80.287,162.333 80.119 C 162.333 79.853,161.034 75.023,160.907 74.817 C 160.855 74.734,159.616 74.667,158.152 74.667 L 155.491 74.667 155.537 72.292 L 155.583 69.917 160.875 69.873 L 166.167 69.829 166.167 66.998 L 166.167 64.167 157.583 64.167 L 149.000 64.167 149.000 77.752 M200.000 64.239 C 200.000 64.302,201.099 68.429,201.467 69.750 L 201.607 70.250 204.219 70.296 L 206.831 70.342 206.874 80.796 L 206.917 91.250 210.124 91.295 L 213.331 91.341 213.374 80.879 L 213.417 70.417 216.643 70.371 L 219.870 70.326 219.767 69.955 C 219.710 69.750,219.400 68.533,219.078 67.250 C 218.757 65.967,218.422 64.748,218.334 64.542 L 218.174 64.167 209.087 64.167 C 204.089 64.167,200.000 64.199,200.000 64.239 M259.667 77.750 L 259.667 91.333 267.327 91.333 C 274.568 91.333,274.997 91.317,275.151 91.030 C 275.240 90.863,275.626 89.606,276.007 88.238 C 276.389 86.870,276.739 85.619,276.787 85.458 C 276.867 85.185,276.539 85.167,271.519 85.167 L 266.167 85.167 266.167 74.667 L 266.167 64.167 262.917 64.167 L 259.667 64.167 259.667 77.750 M352.278 64.278 C 352.217 64.339,352.167 70.414,352.167 77.778 L 352.167 91.167 355.500 91.167 L 358.833 91.167 358.833 85.133 C 358.833 81.647,358.895 79.167,358.980 79.258 C 359.061 79.345,359.688 80.504,360.373 81.833 C 361.058 83.162,362.423 85.806,363.406 87.708 L 365.193 91.167 369.025 91.167 L 372.858 91.167 372.367 90.292 C 371.840 89.352,368.051 82.657,366.981 80.777 C 366.182 79.372,366.149 79.544,367.370 78.749 C 369.831 77.145,371.033 73.695,370.313 70.300 C 369.595 66.918,366.750 64.856,362.083 64.336 C 360.415 64.151,352.452 64.103,352.278 64.278 M378.000 77.750 L 378.000 91.336 386.542 91.293 L 395.083 91.250 395.083 88.500 L 395.083 85.750 389.833 85.667 L 384.583 85.583 384.537 82.958 L 384.492 80.333 387.912 80.333 C 390.538 80.333,391.333 80.285,391.333 80.125 C 391.333 80.010,391.005 78.754,390.605 77.333 L 389.878 74.750 387.185 74.704 L 384.491 74.658 384.537 72.288 L 384.583 69.917 389.879 69.873 L 395.175 69.829 395.129 67.039 L 395.083 64.250 386.542 64.207 L 378.000 64.164 378.000 77.750 M130.923 70.088 C 137.812 71.857,139.406 80.269,133.600 84.212 C 132.282 85.107,131.087 85.455,128.851 85.597 L 127.000 85.714 127.000 77.774 L 127.000 69.833 128.465 69.833 C 129.271 69.833,130.377 69.948,130.923 70.088 M361.898 70.341 C 365.861 71.823,364.068 77.500,359.636 77.500 L 358.833 77.500 358.833 73.644 L 358.833 69.787 359.925 69.899 C 360.526 69.961,361.413 70.159,361.898 70.341 M241.159 78.986 C 242.668 81.739,242.802 81.500,239.750 81.500 C 238.329 81.500,237.167 81.458,237.167 81.406 C 237.167 81.166,239.764 76.709,239.867 76.772 C 239.932 76.811,240.513 77.808,241.159 78.986 M333.823 79.027 C 334.470 80.188,335.000 81.219,335.000 81.319 C 335.000 81.441,334.165 81.500,332.417 81.500 C 330.996 81.500,329.833 81.452,329.833 81.394 C 329.833 81.101,332.414 76.681,332.521 76.790 C 332.590 76.860,333.175 77.866,333.823 79.027 " stroke="none" fill="#fafafb" fill-rule="evenodd"></path><path id="path1" d="M51.917 2.991 C 18.382 5.681,-4.377 38.570,5.027 70.750 C 14.405 102.840,50.573 118.383,80.333 103.111 C 110.232 87.769,118.424 48.756,97.257 22.519 C 86.446 9.117,69.033 1.618,51.917 2.991 M120.667 37.083 L 120.667 57.167 132.231 57.167 L 143.796 57.167 143.901 56.607 C 143.959 56.300,144.277 55.119,144.608 53.982 C 145.754 50.051,146.155 48.582,146.161 48.292 C 146.166 48.018,145.681 48.000,138.250 48.000 L 130.333 48.000 130.333 32.500 L 130.333 17.000 125.500 17.000 L 120.667 17.000 120.667 37.083 M140.169 17.125 C 140.170 17.194,140.350 17.925,140.568 18.750 C 140.786 19.575,141.291 21.488,141.690 23.000 L 142.417 25.750 146.333 25.833 L 150.250 25.917 150.293 41.542 L 150.335 57.167 155.083 57.167 L 159.832 57.167 159.874 41.542 L 159.917 25.917 164.711 25.872 L 169.505 25.828 169.401 25.372 C 169.344 25.122,169.187 24.579,169.053 24.167 C 168.919 23.754,168.587 22.482,168.315 21.341 C 168.044 20.199,167.667 18.755,167.478 18.132 L 167.134 17.000 153.650 17.000 C 146.234 17.000,140.168 17.056,140.169 17.125 M171.167 17.123 C 171.167 17.193,171.466 18.150,171.831 19.250 C 172.196 20.350,172.797 22.176,173.167 23.307 C 173.536 24.438,173.904 25.488,173.986 25.640 C 174.067 25.792,174.403 26.779,174.733 27.833 C 175.063 28.887,175.747 30.950,176.254 32.417 C 176.761 33.883,177.425 35.874,177.730 36.840 C 178.035 37.806,178.361 38.744,178.455 38.923 C 178.550 39.103,178.898 40.112,179.229 41.167 C 179.560 42.221,180.246 44.283,180.754 45.750 C 181.637 48.304,181.983 49.341,183.511 54.000 C 183.887 55.146,184.351 56.477,184.544 56.957 L 184.894 57.831 186.047 55.790 C 186.681 54.668,187.460 53.262,187.778 52.667 C 188.096 52.071,188.715 50.946,189.153 50.167 C 189.591 49.387,190.229 48.238,190.571 47.611 C 191.371 46.142,192.670 43.785,193.646 42.030 C 194.673 40.182,194.783 39.983,195.748 38.201 C 196.722 36.402,196.777 36.383,197.367 37.631 C 197.615 38.155,198.631 40.158,199.625 42.083 C 200.619 44.008,202.642 47.946,204.121 50.833 C 208.324 59.039,207.735 58.412,208.669 55.667 C 208.965 54.796,209.309 53.858,209.433 53.583 C 209.642 53.118,209.967 52.226,211.683 47.417 C 212.042 46.408,212.409 45.433,212.498 45.250 C 212.587 45.067,212.970 44.054,213.348 43.000 C 213.726 41.946,214.354 40.221,214.742 39.167 C 215.131 38.112,215.760 36.387,216.141 35.333 C 216.522 34.279,216.907 33.267,216.998 33.083 C 217.089 32.900,217.455 31.925,217.811 30.917 C 219.097 27.274,219.838 25.244,219.999 24.917 C 220.090 24.733,220.455 23.758,220.811 22.750 C 221.166 21.742,221.720 20.204,222.041 19.333 C 222.362 18.462,222.677 17.580,222.741 17.373 L 222.857 16.995 217.728 17.039 L 212.599 17.083 212.062 18.917 C 211.766 19.925,211.140 21.988,210.671 23.500 C 210.201 25.012,209.521 27.247,209.160 28.466 C 208.799 29.685,208.439 30.810,208.359 30.966 C 208.280 31.122,207.979 32.113,207.690 33.167 C 206.961 35.832,206.602 36.744,206.388 36.468 C 206.295 36.348,205.391 34.600,204.380 32.583 C 200.305 24.461,196.800 17.576,196.674 17.446 C 196.544 17.311,195.706 18.843,192.363 25.333 C 189.279 31.320,186.723 36.065,186.551 36.122 C 186.382 36.178,186.065 35.197,184.820 30.758 C 184.462 29.478,184.054 28.128,183.914 27.758 C 183.775 27.387,183.394 26.146,183.068 25.000 C 182.741 23.854,182.186 21.904,181.834 20.667 C 181.482 19.429,181.087 18.117,180.955 17.750 L 180.717 17.083 175.942 17.039 C 173.315 17.015,171.167 17.052,171.167 17.123 M39.420 21.007 C 43.661 21.282,48.604 22.076,53.955 23.341 L 55.994 23.823 58.289 23.337 C 78.566 19.041,85.512 20.099,87.453 27.780 C 87.817 29.219,87.863 35.573,87.527 38.000 C 86.652 44.316,84.704 52.682,82.645 58.958 L 82.139 60.499 82.642 62.458 C 86.301 76.728,82.748 91.033,74.527 95.123 C 71.650 96.555,69.501 95.630,68.465 92.514 C 68.115 91.463,68.099 91.129,68.073 84.583 C 68.032 74.313,67.549 71.756,65.012 68.357 C 63.187 65.914,58.118 62.770,56.000 62.768 C 54.653 62.767,50.376 64.990,48.646 66.592 C 44.813 70.138,44.171 72.522,44.000 83.833 C 43.877 91.939,43.859 92.133,43.075 93.682 C 41.306 97.178,37.050 96.184,33.010 91.329 C 28.109 85.440,26.651 74.007,29.354 62.644 L 29.855 60.538 28.767 56.894 C 25.923 47.368,24.167 38.101,24.167 32.625 C 24.167 23.039,27.824 20.253,39.420 21.007 M302.750 62.940 C 302.567 62.978,302.154 63.076,301.833 63.158 C 301.512 63.240,300.912 63.392,300.500 63.496 C 299.234 63.814,297.945 64.371,297.337 64.864 C 297.018 65.122,296.664 65.333,296.551 65.333 C 296.205 65.333,293.240 68.369,292.863 69.108 C 292.670 69.488,292.414 69.900,292.297 70.024 C 291.989 70.348,291.393 71.753,291.070 72.917 C 290.917 73.467,290.707 74.097,290.604 74.318 C 290.352 74.857,290.348 80.860,290.599 81.183 C 290.699 81.311,290.912 81.894,291.071 82.477 C 291.382 83.615,291.944 85.022,292.144 85.163 C 292.211 85.211,292.478 85.618,292.738 86.067 C 293.536 87.448,296.079 90.000,296.657 90.000 C 296.754 90.000,296.833 90.068,296.833 90.150 C 296.833 90.351,297.725 90.859,298.750 91.242 C 299.208 91.413,299.621 91.606,299.667 91.671 C 300.309 92.579,308.144 92.586,308.833 91.679 C 308.879 91.618,309.506 91.315,310.227 91.004 C 310.948 90.693,311.623 90.354,311.727 90.250 C 311.831 90.146,312.254 89.817,312.666 89.519 C 313.823 88.682,314.390 87.915,314.255 87.369 C 314.124 86.843,309.799 82.469,309.478 82.538 C 309.255 82.587,308.541 83.148,307.811 83.849 C 306.255 85.341,302.053 85.468,300.917 84.057 C 300.825 83.943,300.460 83.623,300.106 83.344 C 299.447 82.828,299.032 82.234,298.553 81.125 C 298.404 80.781,298.225 80.500,298.155 80.500 C 297.951 80.500,297.667 78.910,297.667 77.770 C 297.667 76.624,297.973 74.833,298.169 74.833 C 298.237 74.833,298.453 74.460,298.649 74.005 C 299.086 72.987,300.604 71.422,301.502 71.063 C 301.868 70.917,302.167 70.739,302.167 70.667 C 302.167 70.155,306.013 70.149,306.329 70.660 C 306.384 70.748,306.688 70.930,307.006 71.063 C 307.323 71.196,307.957 71.649,308.413 72.069 C 309.491 73.062,309.628 73.042,310.870 71.714 C 311.445 71.098,312.460 70.029,313.125 69.339 C 313.854 68.581,314.333 67.942,314.333 67.728 C 314.333 67.283,312.552 65.630,311.474 65.076 C 311.047 64.856,310.672 64.601,310.641 64.509 C 310.575 64.317,308.493 63.562,307.351 63.316 C 306.929 63.225,306.283 63.082,305.917 62.999 C 305.248 62.847,303.374 62.813,302.750 62.940 M170.611 63.444 C 170.394 63.661,170.482 91.415,170.700 91.633 C 171.038 91.972,177.934 91.912,178.066 91.570 C 178.121 91.425,178.167 88.460,178.167 84.981 C 178.167 77.987,178.097 78.378,179.168 79.365 C 179.966 80.100,181.140 81.000,181.302 81.000 C 181.391 81.000,181.505 81.105,181.554 81.234 C 181.604 81.363,182.005 81.715,182.447 82.016 C 182.889 82.318,183.338 82.685,183.445 82.833 C 183.552 82.980,183.983 83.319,184.403 83.584 C 184.823 83.849,185.167 84.126,185.167 84.198 C 185.167 84.270,185.448 84.510,185.792 84.730 C 186.135 84.950,186.567 85.270,186.752 85.440 C 187.294 85.942,188.632 87.000,188.724 87.000 C 188.770 87.000,189.028 87.206,189.298 87.458 C 189.568 87.710,190.215 88.254,190.737 88.667 C 191.259 89.079,192.000 89.682,192.384 90.006 C 192.769 90.330,193.383 90.815,193.750 91.083 C 194.117 91.352,194.513 91.665,194.630 91.779 C 194.913 92.054,195.315 91.883,195.422 91.440 C 195.470 91.244,195.488 84.933,195.463 77.417 L 195.417 63.750 191.667 63.750 L 187.917 63.750 187.873 69.619 C 187.824 76.183,187.892 75.890,186.683 74.717 C 186.371 74.414,186.029 74.167,185.924 74.167 C 185.818 74.167,185.478 73.904,185.167 73.583 C 184.856 73.262,184.536 73.000,184.456 73.000 C 184.376 73.000,183.686 72.512,182.923 71.917 C 182.160 71.321,181.499 70.833,181.455 70.833 C 181.411 70.833,181.089 70.571,180.738 70.250 C 180.388 69.929,180.018 69.667,179.917 69.667 C 179.815 69.667,179.478 69.404,179.167 69.083 C 178.856 68.762,178.541 68.500,178.468 68.500 C 178.330 68.500,175.805 66.654,174.917 65.903 C 174.642 65.671,174.135 65.322,173.792 65.127 C 173.448 64.932,173.167 64.713,173.167 64.641 C 173.167 64.203,170.910 63.146,170.611 63.444 M238.832 64.362 C 238.546 64.938,238.256 65.449,238.188 65.497 C 238.119 65.544,237.778 66.183,237.429 66.917 C 237.080 67.650,236.738 68.287,236.670 68.333 C 236.602 68.379,236.257 69.017,235.903 69.750 C 235.549 70.483,235.174 71.158,235.069 71.250 C 234.963 71.342,234.631 71.960,234.330 72.625 C 234.030 73.290,233.729 73.833,233.663 73.833 C 233.596 73.833,233.373 74.223,233.168 74.700 C 232.963 75.177,232.610 75.861,232.383 76.220 C 232.157 76.578,231.704 77.407,231.378 78.061 C 231.051 78.715,230.731 79.287,230.666 79.333 C 230.601 79.379,230.262 80.017,229.913 80.750 C 229.564 81.483,229.206 82.131,229.119 82.189 C 229.031 82.247,228.753 82.762,228.500 83.334 C 228.247 83.906,227.924 84.509,227.782 84.675 C 227.640 84.840,227.242 85.562,226.898 86.279 C 226.553 86.997,226.192 87.665,226.094 87.765 C 225.996 87.864,225.654 88.502,225.333 89.181 C 225.012 89.861,224.656 90.516,224.542 90.637 C 224.181 91.018,224.282 91.781,224.708 91.895 C 225.471 92.099,231.756 92.011,232.041 91.792 C 232.190 91.677,232.591 91.021,232.931 90.333 C 233.271 89.646,233.597 89.046,233.656 89.000 C 233.715 88.954,233.985 88.486,234.256 87.959 L 234.750 87.001 239.842 87.000 L 244.933 87.000 245.143 87.582 C 245.259 87.901,245.454 88.264,245.577 88.387 C 245.700 88.510,246.068 89.151,246.394 89.811 C 246.721 90.471,247.084 91.119,247.202 91.250 C 247.320 91.381,247.513 91.604,247.632 91.744 C 247.956 92.130,254.685 92.124,255.071 91.738 C 255.439 91.371,255.193 90.273,254.646 89.833 C 254.589 89.788,254.231 89.150,253.851 88.417 C 253.470 87.683,252.827 86.483,252.422 85.750 C 252.017 85.017,251.379 83.820,251.005 83.090 C 250.631 82.361,250.265 81.724,250.193 81.674 C 250.121 81.624,249.773 80.965,249.421 80.208 C 249.069 79.452,248.733 78.833,248.675 78.833 C 248.616 78.833,248.278 78.215,247.922 77.458 C 247.566 76.702,247.215 76.043,247.142 75.993 C 247.069 75.943,246.702 75.306,246.327 74.576 C 245.952 73.847,245.332 72.678,244.948 71.980 C 244.564 71.281,243.922 70.081,243.521 69.313 C 243.119 68.545,242.744 67.879,242.687 67.833 C 242.630 67.787,242.287 67.150,241.925 66.417 C 241.563 65.683,241.201 65.008,241.121 64.917 C 241.041 64.825,240.810 64.450,240.608 64.083 C 240.000 62.977,239.479 63.059,238.832 64.362 M307.478 63.754 C 309.089 64.135,311.568 65.486,312.907 66.711 L 314.058 67.765 311.836 70.049 C 309.672 72.273,309.252 72.584,309.066 72.098 C 308.439 70.465,304.071 69.347,301.979 70.284 C 295.510 73.183,295.837 82.925,302.482 85.271 C 304.649 86.036,307.402 85.269,308.905 83.483 C 309.466 82.817,309.349 82.747,311.800 85.222 C 314.357 87.805,314.260 87.545,313.051 88.589 C 305.116 95.440,293.008 91.213,291.077 80.917 C 289.083 70.282,297.563 61.408,307.478 63.754 M331.570 64.198 C 331.324 64.685,331.069 65.121,331.003 65.167 C 330.936 65.212,330.602 65.813,330.258 66.500 C 329.617 67.785,329.313 68.356,328.348 70.083 C 327.655 71.325,326.621 73.257,325.927 74.610 C 325.637 75.174,325.305 75.750,325.189 75.890 C 325.073 76.029,324.676 76.730,324.307 77.447 C 322.933 80.114,322.180 81.513,321.879 81.959 C 321.709 82.211,321.385 82.829,321.160 83.333 C 320.934 83.837,320.689 84.277,320.615 84.309 C 320.541 84.341,320.236 84.866,319.937 85.476 C 319.639 86.085,318.889 87.510,318.270 88.643 C 316.318 92.217,316.152 92.000,320.832 92.000 C 324.379 92.000,324.833 91.954,324.833 91.591 C 324.833 91.477,324.982 91.213,325.164 91.003 C 325.346 90.794,325.732 90.107,326.022 89.478 C 326.312 88.848,326.602 88.333,326.666 88.333 C 326.730 88.333,326.918 88.033,327.083 87.667 L 327.384 87.000 332.484 87.001 L 337.583 87.001 337.895 87.758 C 338.066 88.175,338.298 88.608,338.411 88.720 C 338.523 88.833,338.883 89.459,339.211 90.112 C 340.232 92.147,339.864 92.000,343.942 92.000 C 348.030 92.000,348.750 91.727,347.708 90.573 C 347.548 90.395,347.154 89.694,346.833 89.015 C 346.512 88.335,346.175 87.698,346.083 87.598 C 345.992 87.498,345.622 86.821,345.262 86.092 C 344.902 85.364,344.499 84.642,344.367 84.487 C 344.235 84.333,343.920 83.739,343.667 83.167 C 343.414 82.596,343.135 82.080,343.048 82.022 C 342.960 81.964,342.603 81.317,342.254 80.583 C 341.905 79.850,341.566 79.212,341.501 79.167 C 341.436 79.121,341.102 78.521,340.759 77.833 C 340.416 77.146,340.071 76.505,339.992 76.409 C 339.913 76.313,339.573 75.675,339.237 74.992 C 338.900 74.309,338.570 73.712,338.503 73.667 C 338.437 73.621,338.111 73.009,337.780 72.307 C 337.448 71.605,337.118 71.005,337.047 70.974 C 336.975 70.942,336.654 70.361,336.333 69.681 C 336.012 69.002,335.673 68.364,335.578 68.265 C 335.483 68.165,335.112 67.483,334.752 66.750 C 334.393 66.017,334.033 65.342,333.952 65.250 C 333.871 65.158,333.605 64.708,333.361 64.250 C 332.704 63.018,332.173 63.002,331.570 64.198 M119.541 77.700 L 119.583 91.750 125.750 91.795 C 129.236 91.821,132.062 91.775,132.250 91.688 C 132.433 91.604,133.221 91.383,134.000 91.197 C 134.779 91.010,135.754 90.699,136.167 90.505 C 137.616 89.823,138.753 89.164,139.006 88.860 C 139.146 88.690,139.344 88.521,139.444 88.484 C 139.988 88.283,142.167 85.914,142.167 85.525 C 142.167 85.419,142.236 85.333,142.320 85.333 C 142.498 85.333,143.667 82.941,143.667 82.577 C 143.667 82.443,143.734 82.333,143.815 82.333 C 144.169 82.333,144.571 79.903,144.575 77.750 C 144.578 75.572,144.171 73.000,143.822 73.000 C 143.737 73.000,143.665 72.906,143.664 72.792 C 143.657 72.376,142.572 70.228,142.125 69.747 C 141.873 69.475,141.667 69.187,141.667 69.105 C 141.667 68.923,139.594 66.833,139.414 66.833 C 139.343 66.833,138.977 66.587,138.600 66.286 C 138.224 65.984,137.542 65.561,137.083 65.345 C 133.617 63.709,134.049 63.774,126.207 63.707 L 119.498 63.649 119.541 77.700 M148.613 63.776 C 148.339 64.050,148.488 91.793,148.764 91.899 C 149.108 92.031,165.801 92.026,166.295 91.894 L 166.673 91.793 166.628 88.438 L 166.583 85.083 161.375 85.039 L 156.167 84.995 156.167 82.914 L 156.167 80.833 159.505 80.833 C 162.293 80.833,162.859 80.793,162.938 80.588 C 163.036 80.333,162.083 76.149,161.821 75.681 C 161.739 75.536,161.610 75.154,161.534 74.833 L 161.396 74.250 158.781 74.204 L 156.167 74.158 156.167 72.246 L 156.167 70.333 161.420 70.333 L 166.674 70.333 166.629 67.042 L 166.583 63.750 157.654 63.707 C 152.743 63.683,148.674 63.714,148.613 63.776 M171.852 64.199 C 172.162 64.446,173.168 65.196,174.085 65.866 C 175.003 66.535,176.016 67.287,176.335 67.535 C 176.655 67.784,178.342 69.044,180.083 70.335 C 181.825 71.626,183.588 72.941,184.000 73.257 C 184.412 73.574,185.500 74.392,186.417 75.076 L 188.083 76.320 188.167 70.202 L 188.250 64.083 191.667 64.083 L 195.083 64.083 195.126 77.708 C 195.160 88.678,195.127 91.333,194.956 91.333 C 194.838 91.333,194.332 90.998,193.830 90.588 C 193.328 90.178,191.604 88.792,190.000 87.507 C 186.603 84.787,185.622 83.996,184.515 83.083 C 183.231 82.025,180.019 79.466,179.269 78.902 C 178.892 78.620,178.480 78.263,178.355 78.111 C 177.872 77.525,177.833 78.003,177.833 84.583 L 177.833 91.333 174.417 91.333 L 171.000 91.333 171.000 77.486 C 171.000 69.812,171.064 63.664,171.144 63.694 C 171.222 63.725,171.541 63.952,171.852 64.199 M199.611 63.778 C 199.361 64.028,200.185 68.262,200.651 69.118 C 200.740 69.282,200.912 69.754,201.032 70.167 L 201.250 70.917 203.708 70.963 L 206.167 71.009 206.167 81.243 C 206.167 90.324,206.196 91.506,206.429 91.738 C 206.870 92.180,213.588 92.125,213.827 91.678 C 213.941 91.465,214.000 87.875,214.000 81.178 L 214.000 71.000 216.988 71.000 C 220.619 71.000,220.960 70.821,220.263 69.275 C 220.029 68.756,219.771 67.760,219.241 65.333 C 219.091 64.646,218.849 63.990,218.702 63.875 C 218.415 63.650,199.834 63.555,199.611 63.778 M241.424 66.375 C 242.218 67.865,243.579 70.396,244.450 72.000 C 245.321 73.604,246.315 75.442,246.660 76.083 C 247.239 77.163,248.976 80.357,249.986 82.202 C 250.223 82.635,251.038 84.135,251.798 85.536 C 252.558 86.937,253.550 88.758,254.004 89.583 C 254.458 90.408,254.830 91.140,254.831 91.208 C 254.832 91.277,253.236 91.333,251.283 91.333 L 247.733 91.333 247.355 90.625 C 247.148 90.235,246.589 89.204,246.114 88.333 L 245.250 86.750 239.833 86.750 L 234.417 86.750 233.726 88.000 C 233.346 88.688,232.774 89.700,232.455 90.250 L 231.875 91.250 228.354 91.295 C 226.067 91.324,224.833 91.281,224.833 91.172 C 224.833 91.079,225.235 90.271,225.727 89.377 C 226.853 87.326,228.467 84.362,230.379 80.833 C 231.199 79.321,232.555 76.827,233.393 75.291 C 234.231 73.755,235.111 72.142,235.347 71.705 C 237.304 68.102,238.294 66.271,238.747 65.417 C 239.926 63.195,239.683 63.108,241.424 66.375 M259.208 63.777 C 258.803 63.940,258.916 91.610,259.322 91.827 C 259.531 91.939,262.389 92.000,267.452 92.000 C 276.663 92.000,275.561 92.373,276.430 88.962 C 276.763 87.654,277.099 86.505,277.177 86.408 C 277.255 86.312,277.368 85.926,277.428 85.549 C 277.595 84.507,277.556 84.500,271.844 84.500 L 266.833 84.500 266.833 74.184 C 266.833 64.932,266.806 63.859,266.570 63.768 C 266.256 63.647,259.509 63.656,259.208 63.777 M334.306 66.837 C 335.645 69.327,338.337 74.303,339.489 76.417 C 341.324 79.785,343.624 84.024,344.915 86.417 C 345.755 87.975,346.681 89.674,346.971 90.192 C 347.262 90.711,347.500 91.180,347.500 91.234 C 347.500 91.289,345.906 91.333,343.958 91.333 L 340.417 91.332 339.774 90.208 C 339.420 89.589,338.836 88.540,338.476 87.875 L 337.822 86.667 332.438 86.667 L 327.055 86.667 326.180 88.292 C 325.700 89.185,325.119 90.235,324.891 90.625 L 324.475 91.333 320.988 91.333 C 316.998 91.333,317.206 91.450,318.160 89.750 C 318.520 89.108,319.462 87.383,320.255 85.917 C 321.047 84.450,322.390 81.975,323.240 80.417 C 324.090 78.858,325.495 76.271,326.363 74.667 C 327.232 73.063,328.231 71.225,328.584 70.583 C 330.314 67.444,330.901 66.362,331.208 65.750 C 332.498 63.175,332.299 63.105,334.306 66.837 M351.791 63.765 C 351.643 63.912,351.621 91.187,351.768 91.570 C 351.921 91.968,359.079 91.968,359.232 91.570 C 359.288 91.425,359.333 89.100,359.333 86.403 C 359.333 83.706,359.396 81.500,359.474 81.500 C 359.551 81.500,359.904 82.156,360.258 82.958 C 360.612 83.760,360.952 84.454,361.014 84.500 C 361.075 84.546,361.408 85.183,361.754 85.917 C 362.100 86.650,362.443 87.290,362.518 87.339 C 362.592 87.388,362.850 87.875,363.091 88.422 C 363.332 88.969,363.837 89.960,364.214 90.625 L 364.900 91.833 369.113 91.833 L 373.327 91.833 373.433 91.410 C 373.512 91.098,373.389 90.738,372.964 90.035 C 372.647 89.512,372.218 88.746,372.009 88.333 C 371.801 87.921,371.582 87.546,371.523 87.500 C 371.465 87.454,371.122 86.854,370.762 86.167 C 370.402 85.479,370.056 84.879,369.992 84.833 C 369.928 84.787,369.594 84.188,369.250 83.500 C 368.906 82.813,368.568 82.212,368.499 82.167 C 368.365 82.078,367.165 79.825,367.170 79.673 C 367.172 79.624,367.549 79.358,368.010 79.083 C 370.793 77.420,371.972 72.145,370.385 68.458 C 370.237 68.115,370.052 67.833,369.975 67.833 C 369.897 67.833,369.833 67.731,369.833 67.605 C 369.833 66.719,366.698 64.638,364.500 64.065 C 363.346 63.764,352.058 63.497,351.791 63.765 M377.542 63.777 C 377.377 63.843,377.333 66.798,377.333 77.767 L 377.333 91.674 377.708 91.842 C 377.958 91.954,381.018 91.967,386.833 91.880 L 395.583 91.750 395.629 88.512 C 395.663 86.033,395.624 85.243,395.462 85.140 C 395.345 85.066,392.981 85.004,390.208 85.003 L 385.167 85.000 385.167 82.917 L 385.167 80.833 388.505 80.833 C 391.331 80.833,391.859 80.795,391.940 80.581 C 392.037 80.330,391.236 76.808,390.974 76.333 C 390.898 76.196,390.737 75.671,390.616 75.167 L 390.396 74.250 387.781 74.204 L 385.167 74.158 385.167 72.246 L 385.167 70.333 390.417 70.333 L 395.667 70.333 395.667 67.101 C 395.667 64.308,395.631 63.855,395.403 63.768 C 395.088 63.647,377.842 63.656,377.542 63.777 M133.083 64.305 C 133.358 64.417,134.158 64.684,134.860 64.899 C 137.362 65.662,140.944 68.353,141.985 70.250 C 142.186 70.617,142.529 71.212,142.746 71.572 C 146.360 77.564,143.345 86.479,136.582 89.799 C 133.687 91.220,132.888 91.333,125.803 91.333 L 120.000 91.333 120.000 77.656 L 120.000 63.978 126.292 64.040 C 130.741 64.083,132.730 64.161,133.083 64.305 M166.167 67.000 L 166.167 70.000 160.917 70.000 L 155.667 70.000 155.667 72.246 L 155.667 74.492 158.361 74.538 L 161.056 74.583 161.181 75.000 C 161.546 76.223,162.667 80.279,162.667 80.381 C 162.667 80.447,161.092 80.500,159.167 80.500 L 155.667 80.500 155.667 83.000 L 155.667 85.500 160.917 85.500 L 166.167 85.500 166.167 88.417 L 166.167 91.333 157.500 91.333 L 148.833 91.333 148.833 77.667 L 148.833 64.000 157.500 64.000 L 166.167 64.000 166.167 67.000 M218.628 64.917 C 219.137 66.734,219.992 70.095,219.996 70.292 C 219.999 70.451,219.258 70.500,216.833 70.500 L 213.667 70.500 213.667 80.917 L 213.667 91.333 210.167 91.333 L 206.667 91.333 206.667 80.921 L 206.667 70.508 204.052 70.463 L 201.437 70.417 200.978 68.667 C 200.726 67.704,200.365 66.393,200.176 65.754 C 199.988 65.114,199.833 64.457,199.833 64.294 C 199.833 64.012,200.311 63.999,209.114 64.040 L 218.395 64.083 218.628 64.917 M266.333 74.500 L 266.333 85.000 271.667 85.000 C 275.669 85.000,277.000 85.049,277.000 85.198 C 277.000 85.472,276.422 87.586,275.790 89.625 L 275.261 91.333 267.380 91.333 L 259.500 91.333 259.500 77.667 L 259.500 64.000 262.917 64.000 L 266.333 64.000 266.333 74.500 M364.250 64.529 C 368.334 65.695,370.178 67.599,370.664 71.150 C 371.105 74.370,369.109 78.715,366.938 79.260 C 366.339 79.410,366.220 79.134,368.833 83.667 C 369.961 85.623,370.307 86.235,371.000 87.500 C 371.376 88.188,371.980 89.268,372.342 89.900 C 372.704 90.533,373.000 91.114,373.000 91.192 C 373.000 91.270,371.202 91.333,369.005 91.333 L 365.010 91.333 364.377 90.042 C 363.323 87.894,359.465 80.440,359.225 80.088 C 359.034 79.809,359.000 80.642,359.000 85.546 L 359.000 91.333 355.583 91.333 L 352.167 91.333 352.167 77.654 L 352.167 63.975 357.458 64.038 C 362.543 64.098,362.809 64.117,364.250 64.529 M395.167 67.000 L 395.167 70.000 389.917 70.000 L 384.667 70.000 384.667 72.246 L 384.667 74.492 387.375 74.538 L 390.083 74.583 390.605 76.583 C 390.891 77.683,391.244 78.952,391.389 79.403 C 391.752 80.538,391.866 80.500,388.073 80.500 L 384.667 80.500 384.667 83.000 L 384.667 85.500 389.917 85.500 L 395.167 85.500 395.167 88.417 L 395.167 91.333 386.500 91.333 L 377.833 91.333 377.833 77.667 L 377.833 64.000 386.500 64.000 L 395.167 64.000 395.167 67.000 M127.000 77.750 L 127.000 85.500 127.821 85.500 C 133.292 85.500,136.914 82.413,136.916 77.750 C 136.917 73.099,133.442 70.007,128.208 70.001 L 127.000 70.000 127.000 77.750 M359.000 73.685 L 359.000 77.381 359.958 77.279 C 362.658 76.993,363.694 75.934,363.686 73.466 C 363.679 71.188,362.816 70.423,359.875 70.088 L 359.000 69.989 359.000 73.685 M130.806 70.672 C 130.836 70.761,130.977 70.833,131.118 70.833 C 132.434 70.833,134.955 72.879,135.741 74.583 C 135.994 75.133,136.287 75.763,136.392 75.984 C 136.744 76.721,136.628 78.981,136.190 79.917 C 135.976 80.375,135.691 80.985,135.557 81.273 C 135.278 81.871,133.555 83.667,133.260 83.667 C 133.151 83.667,132.898 83.821,132.696 84.009 C 132.148 84.519,130.942 84.837,129.125 84.948 L 127.500 85.048 127.500 77.666 L 127.500 70.284 129.125 70.398 C 130.019 70.460,130.775 70.584,130.806 70.672 M360.961 70.650 C 361.120 70.732,361.577 70.934,361.976 71.100 C 363.170 71.594,363.644 73.047,363.166 74.752 C 362.965 75.469,361.910 76.524,361.435 76.484 C 361.354 76.477,361.241 76.542,361.185 76.628 C 361.129 76.714,360.690 76.835,360.208 76.898 L 359.333 77.011 359.333 73.756 L 359.333 70.500 360.002 70.500 C 360.370 70.500,360.801 70.567,360.961 70.650 M239.202 78.042 C 238.906 78.615,238.404 79.533,238.084 80.083 C 237.765 80.633,237.503 81.140,237.502 81.208 C 237.501 81.277,238.551 81.333,239.836 81.333 L 242.172 81.333 241.731 80.458 C 241.270 79.544,239.828 77.000,239.771 77.000 C 239.753 77.000,239.497 77.469,239.202 78.042 M332.035 77.708 C 331.834 78.098,331.333 79.017,330.920 79.750 C 330.508 80.483,330.170 81.140,330.169 81.208 C 330.168 81.277,331.222 81.333,332.511 81.333 L 334.856 81.333 334.287 80.292 C 333.974 79.719,333.473 78.800,333.174 78.250 C 332.440 76.899,332.449 76.903,332.035 77.708 M241.306 80.496 C 241.535 80.724,241.401 80.755,240.009 80.798 C 238.107 80.857,238.190 80.968,238.950 79.394 C 239.781 77.675,239.786 77.674,240.466 79.054 C 240.788 79.707,241.166 80.356,241.306 80.496 M333.167 79.113 C 333.487 79.810,333.849 80.483,333.970 80.607 C 334.155 80.797,333.923 80.833,332.512 80.833 C 330.831 80.833,330.611 80.746,331.089 80.268 C 331.230 80.127,331.575 79.522,331.855 78.923 C 332.485 77.577,332.458 77.573,333.167 79.113 " stroke="none" fill="#4323a4" fill-rule="evenodd"></path><path id="path2" d="M92.333 17.046 C 92.333 17.071,92.915 17.652,93.625 18.338 L 94.917 19.583 93.671 18.292 C 92.514 17.092,92.333 16.924,92.333 17.046 M26.740 23.542 L 26.250 24.083 26.792 23.594 C 27.297 23.138,27.410 23.000,27.281 23.000 C 27.252 23.000,27.009 23.244,26.740 23.542 M144.384 25.958 C 145.467 25.987,147.192 25.987,148.218 25.958 C 149.244 25.928,148.358 25.905,146.250 25.905 C 144.142 25.905,143.302 25.929,144.384 25.958 M162.458 25.958 C 163.765 25.986,165.902 25.986,167.208 25.958 C 168.515 25.930,167.446 25.907,164.833 25.907 C 162.221 25.907,161.152 25.930,162.458 25.958 M87.730 32.583 C 87.731 33.683,87.758 34.112,87.790 33.535 C 87.823 32.959,87.823 32.059,87.790 31.535 C 87.757 31.012,87.730 31.483,87.730 32.583 M24.218 32.583 C 24.219 33.133,24.250 33.338,24.287 33.039 C 24.325 32.739,24.324 32.289,24.286 32.039 C 24.248 31.788,24.217 32.033,24.218 32.583 M109.209 53.750 C 109.211 54.117,109.245 54.247,109.285 54.040 C 109.324 53.832,109.323 53.532,109.281 53.373 C 109.239 53.214,109.207 53.383,109.209 53.750 M109.209 58.250 C 109.211 58.617,109.245 58.747,109.285 58.540 C 109.324 58.332,109.323 58.032,109.281 57.873 C 109.239 57.714,109.207 57.883,109.209 58.250 M2.706 58.583 C 2.706 58.858,2.763 59.308,2.833 59.583 C 3.010 60.276,3.018 59.594,2.843 58.750 C 2.727 58.189,2.705 58.163,2.706 58.583 M122.802 64.125 C 124.298 64.152,126.698 64.152,128.135 64.125 C 129.573 64.097,128.350 64.074,125.417 64.074 C 122.483 64.074,121.307 64.097,122.802 64.125 M153.208 64.125 C 155.569 64.151,159.431 64.151,161.792 64.125 C 164.152 64.099,162.221 64.077,157.500 64.077 C 152.779 64.077,150.848 64.099,153.208 64.125 M188.961 64.121 C 189.261 64.158,189.711 64.157,189.961 64.119 C 190.212 64.081,189.967 64.051,189.417 64.052 C 188.867 64.053,188.662 64.084,188.961 64.121 M204.625 64.125 C 207.123 64.151,211.210 64.151,213.708 64.125 C 216.206 64.099,214.162 64.078,209.167 64.078 C 204.171 64.078,202.127 64.099,204.625 64.125 M263.381 64.123 C 263.912 64.157,264.737 64.156,265.214 64.123 C 265.692 64.089,265.258 64.062,264.250 64.062 C 263.242 64.063,262.851 64.090,263.381 64.123 M354.292 64.125 C 355.415 64.153,357.252 64.153,358.375 64.125 C 359.498 64.096,358.579 64.072,356.333 64.072 C 354.087 64.072,353.169 64.096,354.292 64.125 M382.208 64.125 C 384.569 64.151,388.431 64.151,390.792 64.125 C 393.152 64.099,391.221 64.077,386.500 64.077 C 381.779 64.077,379.848 64.099,382.208 64.125 M312.833 66.719 C 312.833 66.748,313.077 66.991,313.375 67.260 L 313.917 67.750 313.427 67.208 C 312.971 66.703,312.833 66.590,312.833 66.719 M303.960 69.785 C 304.168 69.824,304.468 69.823,304.627 69.781 C 304.786 69.739,304.617 69.707,304.250 69.709 C 303.883 69.711,303.753 69.745,303.960 69.785 M358.912 73.750 L 358.917 77.417 359.417 77.432 C 359.882 77.447,359.885 77.443,359.461 77.380 L 359.006 77.313 358.957 73.698 L 358.907 70.083 358.912 73.750 M206.745 80.917 C 206.745 86.692,206.766 89.030,206.792 86.113 C 206.817 83.196,206.817 78.471,206.792 75.613 C 206.766 72.755,206.745 75.142,206.745 80.917 M310.048 71.671 C 309.662 72.035,309.403 72.333,309.473 72.333 C 309.542 72.333,309.892 72.033,310.250 71.667 C 311.088 70.809,310.958 70.812,310.048 71.671 M28.042 71.917 C 28.044 72.283,28.078 72.414,28.118 72.206 C 28.158 71.999,28.156 71.699,28.115 71.540 C 28.073 71.380,28.040 71.550,28.042 71.917 M156.966 74.624 C 157.727 74.655,158.927 74.655,159.633 74.624 C 160.339 74.593,159.717 74.567,158.250 74.567 C 156.783 74.568,156.206 74.593,156.966 74.624 M385.966 74.624 C 386.727 74.655,387.927 74.655,388.633 74.624 C 389.339 74.593,388.717 74.567,387.250 74.567 C 385.783 74.568,385.206 74.593,385.966 74.624 M28.042 75.750 C 28.044 76.117,28.078 76.247,28.118 76.040 C 28.158 75.832,28.156 75.532,28.115 75.373 C 28.073 75.214,28.040 75.383,28.042 75.750 M137.048 77.750 C 137.049 78.208,137.081 78.376,137.120 78.123 C 137.158 77.869,137.157 77.494,137.117 77.289 C 137.078 77.084,137.046 77.292,137.048 77.750 M43.872 78.167 C 43.872 78.487,43.906 78.619,43.948 78.458 C 43.990 78.298,43.990 78.035,43.948 77.875 C 43.906 77.715,43.872 77.846,43.872 78.167 M358.908 85.333 C 358.908 88.587,358.931 89.919,358.958 88.292 C 358.985 86.665,358.985 84.002,358.958 82.375 C 358.931 80.748,358.908 82.079,358.908 85.333 M157.384 80.458 C 158.374 80.487,159.949 80.487,160.884 80.458 C 161.819 80.428,161.008 80.404,159.083 80.404 C 157.158 80.404,156.394 80.428,157.384 80.458 M386.292 80.458 C 387.231 80.487,388.769 80.487,389.708 80.458 C 390.648 80.428,389.879 80.404,388.000 80.404 C 386.121 80.404,385.352 80.428,386.292 80.458 M309.067 83.375 L 308.750 83.750 309.125 83.433 C 309.494 83.120,309.506 83.120,309.875 83.433 L 310.250 83.750 309.933 83.375 C 309.758 83.169,309.563 83.000,309.500 83.000 C 309.437 83.000,309.242 83.169,309.067 83.375 M310.333 83.885 C 310.333 83.914,310.577 84.158,310.875 84.427 L 311.417 84.917 310.927 84.375 C 310.471 83.870,310.333 83.757,310.333 83.885 M268.969 85.125 C 270.464 85.152,272.864 85.152,274.302 85.125 C 275.740 85.097,274.517 85.074,271.583 85.074 C 268.650 85.074,267.473 85.097,268.969 85.125 M43.890 87.417 C 43.891 88.150,43.920 88.429,43.956 88.037 C 43.991 87.645,43.990 87.045,43.954 86.704 C 43.919 86.363,43.890 86.683,43.890 87.417 M237.125 86.625 C 238.615 86.652,241.052 86.652,242.542 86.625 C 244.031 86.597,242.813 86.574,239.833 86.574 C 236.854 86.574,235.635 86.597,237.125 86.625 M329.000 86.618 C 333.832 86.736,337.962 86.739,337.891 86.625 C 337.849 86.556,335.399 86.516,332.448 86.536 C 329.498 86.556,327.946 86.593,329.000 86.618 M95.073 92.042 L 94.583 92.583 95.125 92.094 C 95.423 91.825,95.667 91.581,95.667 91.552 C 95.667 91.423,95.529 91.537,95.073 92.042 M303.877 91.953 C 304.131 91.991,304.506 91.990,304.711 91.951 C 304.916 91.911,304.708 91.880,304.250 91.881 C 303.792 91.882,303.624 91.915,303.877 91.953 M16.833 92.052 C 16.833 92.081,17.077 92.325,17.375 92.594 L 17.917 93.083 17.427 92.542 C 16.971 92.037,16.833 91.923,16.833 92.052 M18.833 94.083 C 19.331 94.587,19.776 95.000,19.822 95.000 C 19.868 95.000,19.498 94.587,19.000 94.083 C 18.502 93.579,18.057 93.167,18.011 93.167 C 17.966 93.167,18.335 93.579,18.833 94.083 M55.214 109.290 C 55.745 109.323,56.570 109.323,57.048 109.289 C 57.526 109.256,57.092 109.229,56.083 109.229 C 55.075 109.229,54.684 109.257,55.214 109.290 " stroke="none" fill="#8373c2" fill-rule="evenodd"></path><path id="path3" d="M54.792 2.790 C 55.456 2.822,56.544 2.822,57.208 2.790 C 57.873 2.759,57.329 2.733,56.000 2.733 C 54.671 2.733,54.127 2.759,54.792 2.790 M52.627 2.951 C 52.834 2.991,53.134 2.990,53.294 2.948 C 53.453 2.906,53.283 2.874,52.917 2.875 C 52.550 2.877,52.420 2.911,52.627 2.951 M58.792 2.951 C 58.998 2.991,59.335 2.991,59.542 2.951 C 59.748 2.911,59.579 2.879,59.167 2.879 C 58.754 2.879,58.585 2.911,58.792 2.951 M70.250 4.833 C 70.433 4.912,70.696 4.977,70.833 4.977 C 70.991 4.977,70.960 4.924,70.750 4.833 C 70.567 4.755,70.304 4.690,70.167 4.690 C 70.009 4.690,70.040 4.743,70.250 4.833 M33.333 7.833 C 33.012 8.009,32.810 8.156,32.883 8.160 C 33.060 8.169,34.000 7.680,34.000 7.579 C 34.000 7.470,33.990 7.474,33.333 7.833 M91.993 16.875 C 92.402 17.310,92.758 17.667,92.785 17.667 C 92.910 17.667,92.778 17.517,92.042 16.826 L 91.250 16.083 91.993 16.875 M18.331 18.458 L 16.417 20.417 18.375 18.503 C 20.194 16.725,20.409 16.500,20.289 16.500 C 20.265 16.500,19.383 17.381,18.331 18.458 M125.499 16.957 L 130.332 17.005 130.375 32.461 L 130.419 47.917 130.418 32.417 L 130.417 16.917 125.542 16.913 L 120.667 16.909 125.499 16.957 M153.574 16.958 C 164.101 16.992,167.097 17.048,167.212 17.209 C 167.320 17.362,167.341 17.351,167.290 17.167 C 167.231 16.947,165.572 16.916,153.653 16.915 L 140.083 16.914 153.574 16.958 M171.003 17.125 C 171.004 17.339,171.041 17.360,171.141 17.203 C 171.247 17.036,172.309 17.000,176.039 17.037 C 178.658 17.062,180.767 17.027,180.724 16.958 C 180.535 16.653,171.000 16.817,171.003 17.125 M212.609 16.958 C 212.567 17.027,214.880 17.083,217.750 17.083 C 220.620 17.083,222.933 17.027,222.891 16.958 C 222.848 16.890,220.535 16.833,217.750 16.833 C 214.965 16.833,212.652 16.890,212.609 16.958 M93.333 18.219 C 93.333 18.248,93.577 18.491,93.875 18.760 L 94.417 19.250 93.927 18.708 C 93.471 18.203,93.333 18.090,93.333 18.219 M95.167 20.083 C 95.478 20.404,95.770 20.667,95.815 20.667 C 95.861 20.667,95.644 20.404,95.333 20.083 C 95.022 19.762,94.730 19.500,94.685 19.500 C 94.639 19.500,94.856 19.762,95.167 20.083 M35.542 20.956 C 35.977 20.990,36.690 20.990,37.125 20.956 C 37.560 20.922,37.204 20.893,36.333 20.893 C 35.462 20.893,35.106 20.922,35.542 20.956 M74.792 20.957 C 75.365 20.989,76.302 20.989,76.875 20.957 C 77.448 20.924,76.979 20.898,75.833 20.898 C 74.688 20.898,74.219 20.924,74.792 20.957 M182.190 22.000 C 182.190 22.137,182.255 22.400,182.333 22.583 C 182.424 22.793,182.477 22.824,182.477 22.667 C 182.477 22.529,182.412 22.267,182.333 22.083 C 182.243 21.873,182.190 21.842,182.190 22.000 M150.167 41.550 L 150.250 57.250 150.293 41.676 C 150.316 33.110,150.278 26.045,150.209 25.976 C 150.140 25.907,150.121 32.915,150.167 41.550 M159.910 26.042 C 159.866 26.156,159.850 33.225,159.874 41.750 L 159.917 57.250 160.000 41.542 C 160.046 32.902,160.062 25.833,160.036 25.833 C 160.011 25.833,159.954 25.927,159.910 26.042 M9.083 30.833 C 8.941 31.108,8.862 31.333,8.908 31.333 C 8.954 31.333,9.108 31.108,9.250 30.833 C 9.392 30.558,9.471 30.333,9.425 30.333 C 9.379 30.333,9.226 30.558,9.083 30.833 M24.212 31.000 C 24.212 31.412,24.245 31.581,24.284 31.375 C 24.324 31.169,24.324 30.831,24.284 30.625 C 24.245 30.419,24.212 30.587,24.212 31.000 M185.190 32.167 C 185.190 32.304,185.255 32.567,185.333 32.750 C 185.424 32.960,185.477 32.991,185.477 32.833 C 185.477 32.696,185.412 32.433,185.333 32.250 C 185.243 32.040,185.190 32.009,185.190 32.167 M7.865 33.258 C 7.363 34.292,7.419 34.436,7.936 33.442 C 8.167 32.998,8.328 32.606,8.293 32.571 C 8.258 32.536,8.065 32.845,7.865 33.258 M24.214 34.250 C 24.216 34.708,24.248 34.876,24.286 34.623 C 24.325 34.369,24.324 33.994,24.284 33.789 C 24.244 33.584,24.213 33.792,24.214 34.250 M104.178 33.583 C 104.178 33.675,104.286 33.938,104.417 34.167 C 104.548 34.396,104.655 34.508,104.655 34.417 C 104.655 34.325,104.548 34.063,104.417 33.833 C 104.286 33.604,104.178 33.492,104.178 33.583 M87.705 35.000 C 87.705 35.321,87.740 35.452,87.782 35.292 C 87.823 35.131,87.823 34.869,87.782 34.708 C 87.740 34.548,87.705 34.679,87.705 35.000 M108.705 49.333 C 108.705 49.654,108.740 49.785,108.782 49.625 C 108.823 49.465,108.823 49.202,108.782 49.042 C 108.740 48.881,108.705 49.012,108.705 49.333 M3.205 49.500 C 3.205 49.821,3.240 49.952,3.282 49.792 C 3.323 49.631,3.323 49.369,3.282 49.208 C 3.240 49.048,3.205 49.179,3.205 49.500 M109.045 52.667 C 109.045 53.079,109.078 53.248,109.118 53.042 C 109.157 52.835,109.157 52.498,109.118 52.292 C 109.078 52.085,109.045 52.254,109.045 52.667 M2.773 53.440 C 2.635 54.445,2.653 57.733,2.801 58.566 C 2.865 58.923,2.917 57.742,2.917 55.941 C 2.917 52.302,2.920 52.363,2.773 53.440 M109.228 56.000 C 109.228 56.962,109.256 57.356,109.290 56.875 C 109.323 56.394,109.323 55.606,109.290 55.125 C 109.256 54.644,109.228 55.038,109.228 56.000 M109.048 59.250 C 109.049 59.708,109.081 59.876,109.120 59.623 C 109.158 59.369,109.157 58.994,109.117 58.789 C 109.078 58.584,109.046 58.792,109.048 59.250 M108.872 61.167 C 108.872 61.487,108.906 61.619,108.948 61.458 C 108.990 61.298,108.990 61.035,108.948 60.875 C 108.906 60.715,108.872 60.846,108.872 61.167 M108.705 62.500 C 108.705 62.821,108.740 62.952,108.782 62.792 C 108.823 62.631,108.823 62.369,108.782 62.208 C 108.740 62.048,108.705 62.179,108.705 62.500 M130.960 64.118 C 131.168 64.158,131.468 64.156,131.627 64.115 C 131.786 64.073,131.617 64.040,131.250 64.042 C 130.883 64.044,130.753 64.078,130.960 64.118 M188.243 64.209 C 188.198 64.324,188.182 67.118,188.206 70.417 L 188.250 76.417 188.333 70.208 C 188.379 66.794,188.396 64.000,188.370 64.000 C 188.344 64.000,188.287 64.094,188.243 64.209 M192.624 64.122 L 194.998 64.176 195.042 77.713 L 195.086 91.250 195.085 77.667 L 195.083 64.083 192.667 64.076 L 190.250 64.069 192.624 64.122 M260.208 64.123 C 260.644 64.157,261.356 64.157,261.792 64.123 C 262.227 64.088,261.871 64.060,261.000 64.060 C 260.129 64.060,259.773 64.088,260.208 64.123 M360.708 64.119 C 360.960 64.158,361.373 64.158,361.625 64.119 C 361.877 64.081,361.671 64.050,361.167 64.050 C 360.662 64.050,360.456 64.081,360.708 64.119 M200.190 65.833 C 200.190 65.971,200.255 66.233,200.333 66.417 C 200.424 66.627,200.477 66.658,200.477 66.500 C 200.477 66.362,200.412 66.100,200.333 65.917 C 200.243 65.707,200.190 65.676,200.190 65.833 M48.406 66.708 L 47.917 67.250 48.458 66.760 C 48.756 66.491,49.000 66.248,49.000 66.219 C 49.000 66.090,48.862 66.203,48.406 66.708 M294.500 67.750 C 294.095 68.162,293.801 68.500,293.847 68.500 C 293.893 68.500,294.262 68.162,294.667 67.750 C 295.072 67.337,295.365 67.000,295.319 67.000 C 295.274 67.000,294.905 67.337,294.500 67.750 M311.661 70.125 L 310.750 71.083 311.708 70.172 C 312.599 69.326,312.743 69.167,312.619 69.167 C 312.593 69.167,312.162 69.598,311.661 70.125 M201.479 70.379 C 201.551 70.451,202.766 70.488,204.179 70.462 L 206.750 70.416 204.050 70.333 C 202.564 70.287,201.408 70.308,201.479 70.379 M28.039 70.833 C 28.039 71.154,28.073 71.285,28.115 71.125 C 28.157 70.965,28.157 70.702,28.115 70.542 C 28.073 70.381,28.039 70.512,28.039 70.833 M213.577 70.542 C 213.533 70.656,213.517 75.400,213.541 81.083 L 213.586 91.417 213.626 80.962 L 213.667 70.507 216.875 70.458 L 220.083 70.409 216.870 70.371 C 214.424 70.342,213.637 70.383,213.577 70.542 M370.709 72.417 C 370.711 72.783,370.745 72.914,370.785 72.706 C 370.824 72.499,370.823 72.199,370.781 72.040 C 370.739 71.880,370.707 72.050,370.709 72.417 M363.709 72.917 C 363.711 73.283,363.745 73.414,363.785 73.206 C 363.824 72.999,363.823 72.699,363.781 72.540 C 363.739 72.380,363.707 72.550,363.709 72.917 M84.053 73.833 C 84.053 74.429,84.084 74.673,84.121 74.375 C 84.158 74.077,84.158 73.590,84.121 73.292 C 84.084 72.994,84.053 73.237,84.053 73.833 M363.705 74.167 C 363.705 74.487,363.740 74.619,363.782 74.458 C 363.823 74.298,363.823 74.035,363.782 73.875 C 363.740 73.715,363.705 73.846,363.705 74.167 M144.042 76.083 C 144.044 76.450,144.078 76.580,144.118 76.373 C 144.158 76.166,144.156 75.866,144.115 75.706 C 144.073 75.547,144.040 75.717,144.042 76.083 M28.039 76.833 C 28.039 77.154,28.073 77.285,28.115 77.125 C 28.157 76.965,28.157 76.702,28.115 76.542 C 28.073 76.381,28.039 76.512,28.039 76.833 M44.039 76.833 C 44.039 77.154,44.073 77.285,44.115 77.125 C 44.157 76.965,44.157 76.702,44.115 76.542 C 44.073 76.381,44.039 76.512,44.039 76.833 M297.218 77.750 C 297.219 78.300,297.250 78.505,297.287 78.205 C 297.325 77.906,297.324 77.456,297.286 77.205 C 297.248 76.955,297.217 77.200,297.218 77.750 M144.214 77.750 C 144.216 78.208,144.248 78.376,144.286 78.123 C 144.325 77.869,144.324 77.494,144.284 77.289 C 144.244 77.084,144.213 77.292,144.214 77.750 M68.055 78.917 C 68.055 79.558,68.086 79.800,68.122 79.455 C 68.158 79.109,68.157 78.584,68.120 78.288 C 68.083 77.992,68.054 78.275,68.055 78.917 M43.905 82.417 C 43.905 84.525,43.929 85.365,43.958 84.282 C 43.987 83.200,43.987 81.475,43.958 80.449 C 43.928 79.423,43.905 80.308,43.905 82.417 M144.039 79.333 C 144.039 79.654,144.073 79.785,144.115 79.625 C 144.157 79.465,144.157 79.202,144.115 79.042 C 144.073 78.881,144.039 79.012,144.039 79.333 M68.071 86.667 C 68.071 88.638,68.095 89.444,68.124 88.458 C 68.154 87.473,68.154 85.860,68.124 84.875 C 68.095 83.890,68.071 84.696,68.071 86.667 M311.333 84.879 C 311.333 84.904,311.915 85.486,312.625 86.171 L 313.917 87.417 312.671 86.125 C 311.514 84.925,311.333 84.757,311.333 84.879 M362.083 85.667 C 362.226 85.942,362.379 86.167,362.425 86.167 C 362.471 86.167,362.392 85.942,362.250 85.667 C 362.108 85.392,361.954 85.167,361.908 85.167 C 361.862 85.167,361.941 85.392,362.083 85.667 M129.460 85.451 C 129.668 85.491,129.968 85.490,130.127 85.448 C 130.286 85.406,130.117 85.374,129.750 85.375 C 129.383 85.377,129.253 85.411,129.460 85.451 M275.929 88.762 C 275.867 89.006,275.849 89.238,275.889 89.277 C 275.928 89.317,276.010 89.149,276.071 88.905 C 276.133 88.661,276.151 88.429,276.111 88.389 C 276.072 88.350,275.990 88.518,275.929 88.762 M43.887 89.667 C 43.887 90.263,43.917 90.506,43.954 90.208 C 43.991 89.910,43.991 89.423,43.954 89.125 C 43.917 88.827,43.887 89.071,43.887 89.667 M310.292 90.429 C 309.669 90.767,309.707 90.907,310.333 90.583 C 310.608 90.441,310.833 90.289,310.833 90.246 C 310.833 90.138,310.815 90.145,310.292 90.429 M16.660 91.708 C 17.068 92.144,17.425 92.500,17.451 92.500 C 17.577 92.500,17.444 92.350,16.708 91.660 L 15.917 90.917 16.660 91.708 M302.627 91.951 C 302.834 91.991,303.134 91.990,303.294 91.948 C 303.453 91.906,303.283 91.874,302.917 91.875 C 302.550 91.877,302.420 91.911,302.627 91.951 M305.294 91.951 C 305.501 91.991,305.801 91.990,305.960 91.948 C 306.120 91.906,305.950 91.874,305.583 91.875 C 305.217 91.877,305.086 91.911,305.294 91.951 M77.667 92.750 C 77.262 93.162,76.968 93.500,77.014 93.500 C 77.060 93.500,77.428 93.162,77.833 92.750 C 78.238 92.337,78.532 92.000,78.486 92.000 C 78.440 92.000,78.072 92.337,77.667 92.750 M93.495 93.625 L 92.417 94.750 93.542 93.671 C 94.587 92.670,94.743 92.500,94.620 92.500 C 94.595 92.500,94.088 93.006,93.495 93.625 M20.333 95.417 C 20.644 95.737,20.936 96.000,20.982 96.000 C 21.028 96.000,20.811 95.737,20.500 95.417 C 20.189 95.096,19.897 94.833,19.851 94.833 C 19.805 94.833,20.022 95.096,20.333 95.417 M91.324 95.625 L 90.750 96.250 91.375 95.676 C 91.957 95.141,92.077 95.000,91.949 95.000 C 91.922 95.000,91.640 95.281,91.324 95.625 M39.627 95.785 C 39.834 95.824,40.134 95.823,40.294 95.781 C 40.453 95.739,40.283 95.707,39.917 95.709 C 39.550 95.711,39.420 95.745,39.627 95.785 M71.794 95.785 C 72.001 95.824,72.301 95.823,72.460 95.781 C 72.620 95.739,72.450 95.707,72.083 95.709 C 71.717 95.711,71.586 95.745,71.794 95.785 M30.833 102.743 C 30.833 102.789,31.133 102.980,31.500 103.167 C 31.867 103.354,32.167 103.469,32.167 103.423 C 32.167 103.378,31.867 103.187,31.500 103.000 C 31.133 102.813,30.833 102.697,30.833 102.743 M51.708 108.953 C 51.960 108.991,52.373 108.991,52.625 108.953 C 52.877 108.915,52.671 108.883,52.167 108.883 C 51.663 108.883,51.456 108.915,51.708 108.953 M59.375 108.953 C 59.627 108.991,60.040 108.991,60.292 108.953 C 60.544 108.915,60.337 108.883,59.833 108.883 C 59.329 108.883,59.123 108.915,59.375 108.953 M53.544 109.120 C 53.797 109.158,54.172 109.157,54.377 109.117 C 54.582 109.078,54.375 109.046,53.917 109.048 C 53.458 109.049,53.291 109.081,53.544 109.120 M57.792 109.118 C 57.998 109.157,58.335 109.157,58.542 109.118 C 58.748 109.078,58.579 109.045,58.167 109.045 C 57.754 109.045,57.585 109.078,57.792 109.118 " stroke="none" fill="#6048b4" fill-rule="evenodd"></path><path id="path4" d="M50.917 2.833 C 49.947 3.007,50.975 3.014,52.083 2.841 C 52.874 2.718,52.883 2.711,52.250 2.713 C 51.883 2.713,51.283 2.768,50.917 2.833 M59.917 2.841 C 61.061 3.019,62.013 3.005,61.000 2.825 C 60.587 2.751,59.987 2.696,59.667 2.701 C 59.190 2.709,59.235 2.735,59.917 2.841 M62.375 3.115 C 62.535 3.157,62.798 3.157,62.958 3.115 C 63.119 3.073,62.987 3.039,62.667 3.039 C 62.346 3.039,62.215 3.073,62.375 3.115 M71.917 5.167 C 72.100 5.245,72.362 5.310,72.500 5.310 C 72.658 5.310,72.627 5.257,72.417 5.167 C 72.233 5.088,71.971 5.023,71.833 5.023 C 71.676 5.023,71.707 5.076,71.917 5.167 M73.000 5.472 C 73.137 5.557,73.438 5.676,73.667 5.738 C 73.956 5.815,74.007 5.802,73.833 5.695 C 73.696 5.610,73.396 5.490,73.167 5.429 C 72.877 5.351,72.826 5.365,73.000 5.472 M83.917 10.586 C 84.100 10.736,84.400 10.931,84.583 11.021 L 84.917 11.185 84.583 10.914 C 84.400 10.764,84.100 10.569,83.917 10.479 L 83.583 10.315 83.917 10.586 M27.080 11.107 C 26.230 11.671,25.930 11.968,26.594 11.589 C 27.179 11.256,27.959 10.676,27.830 10.670 C 27.783 10.668,27.445 10.865,27.080 11.107 M86.500 12.227 C 86.500 12.273,86.725 12.471,87.000 12.667 C 87.275 12.862,87.500 12.985,87.500 12.939 C 87.500 12.894,87.275 12.696,87.000 12.500 C 86.725 12.304,86.500 12.181,86.500 12.227 M91.583 16.333 C 91.941 16.700,92.272 17.000,92.318 17.000 C 92.363 17.000,92.108 16.700,91.750 16.333 C 91.392 15.967,91.062 15.667,91.016 15.667 C 90.970 15.667,91.225 15.967,91.583 16.333 M19.578 17.042 L 18.583 18.083 19.625 17.089 C 20.198 16.541,20.667 16.073,20.667 16.047 C 20.667 15.924,20.502 16.074,19.578 17.042 M125.384 16.791 C 126.374 16.821,127.949 16.821,128.884 16.791 C 129.819 16.761,129.008 16.737,127.083 16.737 C 125.158 16.737,124.394 16.762,125.384 16.791 M139.944 16.778 C 139.883 16.839,139.834 16.970,139.836 17.069 C 139.837 17.177,139.891 17.166,139.970 17.043 C 140.073 16.881,143.071 16.826,153.676 16.792 L 167.250 16.748 153.653 16.707 C 146.174 16.685,140.006 16.717,139.944 16.778 M170.836 16.958 C 170.838 17.163,170.877 17.189,170.969 17.044 C 171.067 16.891,172.322 16.827,175.925 16.792 L 180.750 16.745 175.792 16.706 C 171.165 16.669,170.834 16.686,170.836 16.958 M212.609 16.792 C 212.567 16.860,214.918 16.917,217.833 16.917 C 220.749 16.917,223.100 16.860,223.058 16.792 C 223.015 16.723,220.664 16.667,217.833 16.667 C 215.002 16.667,212.652 16.723,212.609 16.792 M120.581 37.000 C 120.581 48.138,120.601 52.694,120.625 47.125 C 120.649 41.556,120.649 32.444,120.625 26.875 C 120.601 21.306,120.581 25.862,120.581 37.000 M93.333 17.885 C 93.333 17.914,93.577 18.158,93.875 18.427 L 94.417 18.917 93.927 18.375 C 93.471 17.870,93.333 17.757,93.333 17.885 M211.929 18.595 C 211.867 18.839,211.849 19.071,211.889 19.111 C 211.928 19.150,212.010 18.982,212.071 18.738 C 212.133 18.494,212.151 18.262,212.111 18.223 C 212.072 18.183,211.990 18.351,211.929 18.595 M195.417 19.000 C 195.274 19.275,195.196 19.500,195.241 19.500 C 195.287 19.500,195.441 19.275,195.583 19.000 C 195.726 18.725,195.804 18.500,195.759 18.500 C 195.713 18.500,195.559 18.725,195.417 19.000 M16.911 19.708 L 15.917 20.750 16.958 19.755 C 17.926 18.831,18.076 18.667,17.953 18.667 C 17.927 18.667,17.459 19.135,16.911 19.708 M95.417 20.167 C 95.775 20.533,96.105 20.833,96.151 20.833 C 96.197 20.833,95.941 20.533,95.583 20.167 C 95.225 19.800,94.895 19.500,94.849 19.500 C 94.803 19.500,95.059 19.800,95.417 20.167 M33.877 21.120 C 34.131 21.158,34.506 21.157,34.711 21.117 C 34.916 21.078,34.708 21.046,34.250 21.048 C 33.792 21.049,33.624 21.081,33.877 21.120 M38.128 21.121 C 38.428 21.158,38.878 21.157,39.128 21.119 C 39.378 21.081,39.133 21.051,38.583 21.052 C 38.033 21.053,37.828 21.084,38.128 21.121 M72.877 21.120 C 73.131 21.158,73.506 21.157,73.711 21.117 C 73.916 21.078,73.708 21.046,73.250 21.048 C 72.792 21.049,72.624 21.081,72.877 21.120 M77.960 21.118 C 78.168 21.158,78.468 21.156,78.627 21.115 C 78.786 21.073,78.617 21.040,78.250 21.042 C 77.883 21.044,77.753 21.078,77.960 21.118 M40.542 21.282 C 40.702 21.323,40.965 21.323,41.125 21.282 C 41.285 21.240,41.154 21.205,40.833 21.205 C 40.512 21.205,40.381 21.240,40.542 21.282 M71.042 21.282 C 71.202 21.323,71.465 21.323,71.625 21.282 C 71.785 21.240,71.654 21.205,71.333 21.205 C 71.012 21.205,70.881 21.240,71.042 21.282 M42.042 21.448 C 42.202 21.490,42.465 21.490,42.625 21.448 C 42.785 21.406,42.654 21.372,42.333 21.372 C 42.012 21.372,41.881 21.406,42.042 21.448 M99.333 25.000 C 99.529 25.275,99.727 25.500,99.773 25.500 C 99.819 25.500,99.696 25.275,99.500 25.000 C 99.304 24.725,99.106 24.500,99.061 24.500 C 99.015 24.500,99.138 24.725,99.333 25.000 M160.080 41.583 C 160.080 50.200,160.100 53.701,160.125 49.362 C 160.150 45.024,160.150 37.974,160.125 33.696 C 160.100 29.417,160.080 32.967,160.080 41.583 M202.833 29.333 C 203.020 29.700,203.211 30.000,203.257 30.000 C 203.303 30.000,203.187 29.700,203.000 29.333 C 202.813 28.967,202.622 28.667,202.577 28.667 C 202.531 28.667,202.646 28.967,202.833 29.333 M9.750 29.333 C 9.608 29.608,9.529 29.833,9.575 29.833 C 9.621 29.833,9.774 29.608,9.917 29.333 C 10.059 29.058,10.138 28.833,10.092 28.833 C 10.046 28.833,9.892 29.058,9.750 29.333 M87.542 30.083 C 87.544 30.450,87.578 30.580,87.618 30.373 C 87.658 30.166,87.656 29.866,87.615 29.706 C 87.573 29.547,87.540 29.717,87.542 30.083 M24.381 30.583 C 24.382 31.042,24.415 31.209,24.453 30.956 C 24.491 30.703,24.490 30.328,24.451 30.123 C 24.411 29.918,24.380 30.125,24.381 30.583 M9.000 30.667 C 8.813 31.033,8.697 31.333,8.743 31.333 C 8.789 31.333,8.980 31.033,9.167 30.667 C 9.354 30.300,9.469 30.000,9.423 30.000 C 9.378 30.000,9.187 30.300,9.000 30.667 M204.250 32.167 C 204.392 32.442,204.546 32.667,204.592 32.667 C 204.638 32.667,204.559 32.442,204.417 32.167 C 204.274 31.892,204.121 31.667,204.075 31.667 C 204.029 31.667,204.108 31.892,204.250 32.167 M7.694 33.257 C 7.414 33.870,7.468 34.001,7.770 33.444 C 7.911 33.183,7.995 32.939,7.957 32.901 C 7.919 32.863,7.800 33.023,7.694 33.257 M187.750 33.667 C 187.608 33.942,187.529 34.167,187.575 34.167 C 187.621 34.167,187.774 33.942,187.917 33.667 C 188.059 33.392,188.138 33.167,188.092 33.167 C 188.046 33.167,187.892 33.392,187.750 33.667 M24.383 34.667 C 24.383 35.171,24.415 35.377,24.453 35.125 C 24.491 34.873,24.491 34.460,24.453 34.208 C 24.415 33.956,24.383 34.162,24.383 34.667 M87.548 35.250 C 87.549 35.708,87.581 35.876,87.620 35.623 C 87.658 35.369,87.657 34.994,87.617 34.789 C 87.578 34.584,87.546 34.792,87.548 35.250 M105.345 35.917 C 105.345 36.008,105.452 36.271,105.583 36.500 C 105.714 36.729,105.822 36.842,105.822 36.750 C 105.822 36.658,105.714 36.396,105.583 36.167 C 105.452 35.938,105.345 35.825,105.345 35.917 M24.542 36.750 C 24.544 37.117,24.578 37.247,24.618 37.040 C 24.658 36.832,24.656 36.532,24.615 36.373 C 24.573 36.214,24.540 36.383,24.542 36.750 M87.379 37.000 C 87.379 37.412,87.411 37.581,87.451 37.375 C 87.491 37.169,87.491 36.831,87.451 36.625 C 87.411 36.419,87.379 36.587,87.379 37.000 M195.417 39.000 C 195.274 39.275,195.196 39.500,195.241 39.500 C 195.287 39.500,195.441 39.275,195.583 39.000 C 195.726 38.725,195.804 38.500,195.759 38.500 C 195.713 38.500,195.559 38.725,195.417 39.000 M106.690 39.500 C 106.690 39.637,106.755 39.900,106.833 40.083 C 106.924 40.293,106.977 40.324,106.977 40.167 C 106.977 40.029,106.912 39.767,106.833 39.583 C 106.743 39.373,106.690 39.342,106.690 39.500 M108.872 49.333 C 108.872 49.654,108.906 49.785,108.948 49.625 C 108.990 49.465,108.990 49.202,108.948 49.042 C 108.906 48.881,108.872 49.012,108.872 49.333 M109.039 50.667 C 109.039 50.987,109.073 51.119,109.115 50.958 C 109.157 50.798,109.157 50.535,109.115 50.375 C 109.073 50.215,109.039 50.346,109.039 50.667 M2.790 51.313 C 2.722 51.622,2.674 52.109,2.683 52.396 C 2.699 52.891,2.708 52.884,2.857 52.250 C 2.943 51.883,2.991 51.396,2.963 51.167 C 2.919 50.797,2.899 50.813,2.790 51.313 M27.357 51.500 C 27.357 51.637,27.421 51.900,27.500 52.083 C 27.590 52.293,27.643 52.324,27.643 52.167 C 27.643 52.029,27.579 51.767,27.500 51.583 C 27.410 51.373,27.357 51.342,27.357 51.500 M109.214 52.417 C 109.216 52.875,109.248 53.043,109.286 52.789 C 109.325 52.536,109.324 52.161,109.284 51.956 C 109.244 51.751,109.213 51.958,109.214 52.417 M205.833 54.667 C 206.020 55.033,206.211 55.333,206.257 55.333 C 206.303 55.333,206.187 55.033,206.000 54.667 C 205.813 54.300,205.622 54.000,205.577 54.000 C 205.531 54.000,205.646 54.300,205.833 54.667 M109.212 59.500 C 109.212 59.913,109.245 60.081,109.284 59.875 C 109.324 59.669,109.324 59.331,109.284 59.125 C 109.245 58.919,109.212 59.087,109.212 59.500 M2.706 59.667 C 2.706 59.987,2.763 60.475,2.833 60.750 L 2.961 61.250 2.961 60.667 C 2.961 60.346,2.903 59.858,2.833 59.583 L 2.706 59.083 2.706 59.667 M109.042 61.250 C 109.044 61.617,109.078 61.747,109.118 61.540 C 109.158 61.332,109.156 61.032,109.115 60.873 C 109.073 60.714,109.040 60.883,109.042 61.250 M108.872 62.667 C 108.872 62.987,108.906 63.119,108.948 62.958 C 108.990 62.798,108.990 62.535,108.948 62.375 C 108.906 62.215,108.872 62.346,108.872 62.667 M302.625 63.618 C 302.831 63.657,303.169 63.657,303.375 63.618 C 303.581 63.578,303.412 63.545,303.000 63.545 C 302.587 63.545,302.419 63.578,302.625 63.618 M305.294 63.618 C 305.501 63.658,305.801 63.656,305.960 63.615 C 306.120 63.573,305.950 63.540,305.583 63.542 C 305.217 63.544,305.086 63.578,305.294 63.618 M148.913 77.750 C 148.913 85.267,148.933 88.317,148.958 84.529 C 148.983 80.741,148.983 74.591,148.958 70.863 C 148.933 67.134,148.913 70.233,148.913 77.750 M259.580 77.750 C 259.580 85.267,259.600 88.317,259.625 84.529 C 259.650 80.741,259.650 74.591,259.625 70.863 C 259.600 67.134,259.579 70.233,259.580 77.750 M266.245 74.667 C 266.245 80.487,266.266 82.869,266.292 79.958 C 266.317 77.048,266.317 72.285,266.292 69.375 C 266.266 66.465,266.245 68.846,266.245 74.667 M377.913 77.750 C 377.913 85.267,377.933 88.317,377.958 84.529 C 377.983 80.741,377.983 74.591,377.958 70.863 C 377.933 67.134,377.913 70.233,377.913 77.750 M47.828 67.125 L 46.917 68.083 47.875 67.172 C 48.765 66.326,48.910 66.167,48.786 66.167 C 48.760 66.167,48.329 66.598,47.828 67.125 M368.000 66.385 C 368.000 66.414,368.244 66.658,368.542 66.927 L 369.083 67.417 368.594 66.875 C 368.138 66.370,368.000 66.257,368.000 66.385 M140.167 68.417 C 140.665 68.921,141.109 69.333,141.155 69.333 C 141.201 69.333,140.831 68.921,140.333 68.417 C 139.835 67.912,139.391 67.500,139.345 67.500 C 139.299 67.500,139.669 67.912,140.167 68.417 M334.750 68.167 C 334.892 68.442,335.046 68.667,335.092 68.667 C 335.138 68.667,335.059 68.442,334.917 68.167 C 334.774 67.892,334.621 67.667,334.575 67.667 C 334.529 67.667,334.608 67.892,334.750 68.167 M311.830 69.792 L 310.083 71.583 311.875 69.836 C 313.539 68.214,313.742 68.000,313.622 68.000 C 313.597 68.000,312.791 68.806,311.830 69.792 M83.705 69.833 C 83.705 70.154,83.740 70.285,83.782 70.125 C 83.823 69.965,83.823 69.702,83.782 69.542 C 83.740 69.381,83.705 69.512,83.705 69.833 M28.212 70.500 C 28.212 70.912,28.245 71.081,28.284 70.875 C 28.324 70.669,28.324 70.331,28.284 70.125 C 28.245 69.919,28.212 70.087,28.212 70.500 M127.797 69.956 C 128.282 69.990,129.032 69.990,129.464 69.956 C 129.896 69.921,129.500 69.894,128.583 69.894 C 127.667 69.895,127.313 69.923,127.797 69.956 M155.573 70.050 C 155.527 70.169,155.513 71.276,155.542 72.508 L 155.594 74.750 155.630 72.377 L 155.667 70.005 160.958 69.958 L 166.250 69.912 160.953 69.873 C 156.732 69.841,155.639 69.877,155.573 70.050 M359.125 69.951 C 359.331 69.991,359.669 69.991,359.875 69.951 C 360.081 69.911,359.912 69.879,359.500 69.879 C 359.087 69.879,358.919 69.911,359.125 69.951 M384.573 70.050 C 384.527 70.169,384.513 71.276,384.542 72.508 L 384.594 74.750 384.630 72.377 L 384.667 70.005 389.875 69.958 L 395.083 69.912 389.870 69.873 C 385.717 69.841,384.639 69.877,384.573 70.050 M213.412 80.917 C 213.412 86.692,213.433 89.030,213.458 86.113 C 213.484 83.196,213.484 78.471,213.458 75.613 C 213.433 72.755,213.412 75.142,213.412 80.917 M106.929 71.429 C 106.867 71.673,106.849 71.905,106.889 71.944 C 106.928 71.983,107.010 71.816,107.071 71.571 C 107.133 71.327,107.151 71.095,107.111 71.056 C 107.072 71.017,106.990 71.184,106.929 71.429 M299.500 71.750 C 299.095 72.162,298.801 72.500,298.847 72.500 C 298.893 72.500,299.262 72.162,299.667 71.750 C 300.072 71.337,300.365 71.000,300.319 71.000 C 300.274 71.000,299.905 71.337,299.500 71.750 M308.667 71.583 C 308.978 71.904,309.270 72.167,309.315 72.167 C 309.361 72.167,309.144 71.904,308.833 71.583 C 308.522 71.262,308.230 71.000,308.185 71.000 C 308.139 71.000,308.356 71.262,308.667 71.583 M83.900 73.833 C 83.900 75.162,83.925 75.706,83.957 75.042 C 83.989 74.377,83.989 73.290,83.957 72.625 C 83.925 71.960,83.900 72.504,83.900 73.833 M370.548 72.417 C 370.549 72.875,370.581 73.043,370.620 72.789 C 370.658 72.536,370.657 72.161,370.617 71.956 C 370.578 71.751,370.546 71.958,370.548 72.417 M28.058 73.833 C 28.058 74.612,28.087 74.931,28.122 74.542 C 28.157 74.152,28.157 73.515,28.122 73.125 C 28.087 72.735,28.058 73.054,28.058 73.833 M363.881 73.583 C 363.882 74.042,363.915 74.209,363.953 73.956 C 363.991 73.703,363.990 73.328,363.951 73.123 C 363.911 72.918,363.880 73.125,363.881 73.583 M337.750 73.667 C 337.892 73.942,338.046 74.167,338.092 74.167 C 338.138 74.167,338.059 73.942,337.917 73.667 C 337.774 73.392,337.621 73.167,337.575 73.167 C 337.529 73.167,337.608 73.392,337.750 73.667 M234.083 74.167 C 233.941 74.442,233.862 74.667,233.908 74.667 C 233.954 74.667,234.108 74.442,234.250 74.167 C 234.392 73.892,234.471 73.667,234.425 73.667 C 234.379 73.667,234.226 73.892,234.083 74.167 M68.039 76.500 C 68.039 76.821,68.073 76.952,68.115 76.792 C 68.157 76.631,68.157 76.369,68.115 76.208 C 68.073 76.048,68.039 76.179,68.039 76.500 M28.212 77.167 C 28.212 77.579,28.245 77.748,28.284 77.542 C 28.324 77.335,28.324 76.998,28.284 76.792 C 28.245 76.585,28.212 76.754,28.212 77.167 M43.875 77.083 C 43.877 77.450,43.911 77.580,43.951 77.373 C 43.991 77.166,43.990 76.866,43.948 76.706 C 43.906 76.547,43.874 76.717,43.875 77.083 M104.860 77.090 C 104.581 77.703,104.634 77.834,104.936 77.277 C 105.077 77.017,105.162 76.773,105.123 76.735 C 105.085 76.696,104.967 76.857,104.860 77.090 M297.052 77.750 C 297.053 78.300,297.084 78.505,297.121 78.205 C 297.158 77.906,297.157 77.456,297.119 77.205 C 297.081 76.955,297.051 77.200,297.052 77.750 M144.048 77.750 C 144.049 78.208,144.081 78.376,144.120 78.123 C 144.158 77.869,144.157 77.494,144.117 77.289 C 144.078 77.084,144.046 77.292,144.048 77.750 M83.705 77.667 C 83.705 77.987,83.740 78.119,83.782 77.958 C 83.823 77.798,83.823 77.535,83.782 77.375 C 83.740 77.215,83.705 77.346,83.705 77.667 M177.778 77.611 C 177.717 77.672,177.667 80.750,177.667 84.451 L 177.667 91.180 174.333 91.132 C 172.500 91.105,171.000 91.141,171.000 91.212 C 171.000 91.282,172.519 91.320,174.375 91.295 L 177.750 91.250 177.794 84.439 C 177.835 77.998,177.853 77.641,178.127 77.856 C 178.389 78.062,178.395 78.056,178.188 77.792 C 177.928 77.460,177.928 77.461,177.778 77.611 M68.242 84.333 C 68.242 87.771,68.264 89.177,68.291 87.458 C 68.319 85.740,68.319 82.927,68.291 81.208 C 68.264 79.490,68.242 80.896,68.242 84.333 M103.702 79.590 C 103.317 80.365,103.039 81.000,103.083 81.000 C 103.194 81.000,104.535 78.313,104.461 78.239 C 104.428 78.206,104.087 78.814,103.702 79.590 M324.083 79.000 C 323.941 79.275,323.862 79.500,323.908 79.500 C 323.954 79.500,324.108 79.275,324.250 79.000 C 324.392 78.725,324.471 78.500,324.425 78.500 C 324.379 78.500,324.226 78.725,324.083 79.000 M290.872 79.167 C 290.872 79.487,290.906 79.619,290.948 79.458 C 290.990 79.298,290.990 79.035,290.948 78.875 C 290.906 78.715,290.872 78.846,290.872 79.167 M43.736 82.083 C 43.736 83.825,43.761 84.515,43.791 83.616 C 43.821 82.718,43.821 81.293,43.791 80.450 C 43.761 79.607,43.736 80.342,43.736 82.083 M155.577 82.958 L 155.583 85.583 160.833 85.587 L 166.083 85.590 160.879 85.543 L 155.675 85.495 155.623 82.914 L 155.570 80.333 155.577 82.958 M384.577 82.958 L 384.583 85.583 389.875 85.667 C 392.786 85.712,395.167 85.694,395.167 85.625 C 395.167 85.556,392.806 85.500,389.921 85.500 L 384.675 85.500 384.623 82.916 L 384.570 80.333 384.577 82.958 M237.166 81.375 C 237.167 81.444,238.348 81.486,239.792 81.469 C 242.472 81.438,242.160 81.372,238.958 81.294 C 237.972 81.270,237.166 81.306,237.166 81.375 M329.833 81.375 C 329.833 81.444,331.015 81.486,332.458 81.469 C 335.139 81.438,334.827 81.372,331.625 81.294 C 330.639 81.270,329.833 81.306,329.833 81.375 M360.250 81.833 C 360.392 82.108,360.546 82.333,360.592 82.333 C 360.638 82.333,360.559 82.108,360.417 81.833 C 360.274 81.558,360.121 81.333,360.075 81.333 C 360.029 81.333,360.108 81.558,360.250 81.833 M9.417 82.000 C 9.559 82.275,9.713 82.500,9.759 82.500 C 9.804 82.500,9.726 82.275,9.583 82.000 C 9.441 81.725,9.287 81.500,9.241 81.500 C 9.196 81.500,9.274 81.725,9.417 82.000 M102.250 82.333 C 102.108 82.608,102.029 82.833,102.075 82.833 C 102.121 82.833,102.274 82.608,102.417 82.333 C 102.559 82.058,102.638 81.833,102.592 81.833 C 102.546 81.833,102.392 82.058,102.250 82.333 M134.833 83.083 C 134.428 83.496,134.135 83.833,134.181 83.833 C 134.226 83.833,134.595 83.496,135.000 83.083 C 135.405 82.671,135.699 82.333,135.653 82.333 C 135.607 82.333,135.238 82.671,134.833 83.083 M101.230 84.042 C 100.657 85.015,100.619 85.098,100.911 84.750 C 101.250 84.347,101.542 83.833,101.432 83.833 C 101.389 83.833,101.298 83.927,101.230 84.042 M312.125 85.836 C 313.836 87.597,313.816 87.558,313.292 88.156 L 312.917 88.583 313.375 88.179 C 314.023 87.608,314.011 87.582,312.208 85.830 L 310.583 84.250 312.125 85.836 M127.455 85.620 C 127.750 85.657,128.275 85.658,128.621 85.622 C 128.967 85.586,128.725 85.555,128.083 85.555 C 127.442 85.554,127.159 85.583,127.455 85.620 M99.500 86.667 C 99.304 86.942,99.181 87.167,99.227 87.167 C 99.273 87.167,99.471 86.942,99.667 86.667 C 99.862 86.392,99.985 86.167,99.939 86.167 C 99.894 86.167,99.696 86.392,99.500 86.667 M252.250 86.833 C 252.392 87.108,252.546 87.333,252.592 87.333 C 252.638 87.333,252.559 87.108,252.417 86.833 C 252.274 86.558,252.121 86.333,252.075 86.333 C 252.029 86.333,252.108 86.558,252.250 86.833 M294.667 87.719 C 294.667 87.748,294.910 87.991,295.208 88.260 L 295.750 88.750 295.260 88.208 C 294.804 87.703,294.667 87.590,294.667 87.719 M43.717 90.167 C 43.717 90.671,43.748 90.877,43.786 90.625 C 43.824 90.373,43.824 89.960,43.786 89.708 C 43.748 89.456,43.717 89.662,43.717 90.167 M96.073 91.042 L 95.583 91.583 96.125 91.094 C 96.423 90.825,96.667 90.581,96.667 90.552 C 96.667 90.423,96.529 90.537,96.073 91.042 M16.083 91.333 C 16.441 91.700,16.772 92.000,16.818 92.000 C 16.863 92.000,16.608 91.700,16.250 91.333 C 15.892 90.967,15.562 90.667,15.516 90.667 C 15.470 90.667,15.725 90.967,16.083 91.333 M365.145 91.211 C 365.215 91.282,367.030 91.319,369.178 91.295 L 373.083 91.250 369.050 91.166 C 366.831 91.121,365.074 91.141,365.145 91.211 M122.792 91.291 C 124.373 91.319,126.960 91.319,128.542 91.291 C 130.123 91.264,128.829 91.242,125.667 91.242 C 122.504 91.242,121.210 91.264,122.792 91.291 M353.792 91.291 C 354.731 91.321,356.269 91.321,357.208 91.291 C 358.148 91.261,357.379 91.237,355.500 91.237 C 353.621 91.237,352.852 91.261,353.792 91.291 M77.661 92.625 L 76.750 93.583 77.708 92.672 C 78.599 91.826,78.743 91.667,78.619 91.667 C 78.593 91.667,78.162 92.098,77.661 92.625 M93.497 93.792 L 91.750 95.583 93.542 93.836 C 95.206 92.214,95.409 92.000,95.289 92.000 C 95.264 92.000,94.458 92.806,93.497 93.792 M16.833 92.213 C 16.833 92.238,17.415 92.819,18.125 93.504 L 19.417 94.750 18.171 93.458 C 17.014 92.259,16.833 92.091,16.833 92.213 M34.333 92.750 C 34.644 93.071,34.936 93.333,34.982 93.333 C 35.028 93.333,34.811 93.071,34.500 92.750 C 34.189 92.429,33.897 92.167,33.851 92.167 C 33.805 92.167,34.022 92.429,34.333 92.750 M20.417 95.667 C 20.775 96.033,21.105 96.333,21.151 96.333 C 21.197 96.333,20.941 96.033,20.583 95.667 C 20.225 95.300,19.895 95.000,19.849 95.000 C 19.803 95.000,20.059 95.300,20.417 95.667 M39.544 95.620 C 39.797 95.658,40.172 95.657,40.377 95.617 C 40.582 95.578,40.375 95.546,39.917 95.548 C 39.458 95.549,39.291 95.581,39.544 95.620 M71.711 95.620 C 71.964 95.658,72.339 95.657,72.544 95.617 C 72.749 95.578,72.542 95.546,72.083 95.548 C 71.625 95.549,71.457 95.581,71.711 95.620 M91.073 96.042 L 90.583 96.583 91.125 96.094 C 91.423 95.825,91.667 95.581,91.667 95.552 C 91.667 95.423,91.529 95.537,91.073 96.042 M25.167 99.401 C 25.167 99.446,25.504 99.716,25.917 100.000 C 26.329 100.284,26.667 100.479,26.667 100.433 C 26.667 100.387,26.329 100.117,25.917 99.833 C 25.504 99.550,25.167 99.355,25.167 99.401 M27.083 100.753 C 27.267 100.902,27.567 101.098,27.750 101.188 L 28.083 101.352 27.750 101.080 C 27.567 100.931,27.267 100.735,27.083 100.645 L 26.750 100.482 27.083 100.753 M84.042 101.186 C 83.474 101.550,83.290 101.794,83.792 101.518 C 84.174 101.308,84.773 100.845,84.667 100.841 C 84.621 100.840,84.340 100.995,84.042 101.186 M30.167 102.577 C 30.167 102.622,30.467 102.813,30.833 103.000 C 31.200 103.187,31.500 103.303,31.500 103.257 C 31.500 103.211,31.200 103.020,30.833 102.833 C 30.467 102.646,30.167 102.531,30.167 102.577 M81.292 102.762 C 80.669 103.100,80.707 103.241,81.333 102.917 C 81.608 102.774,81.833 102.623,81.833 102.579 C 81.833 102.472,81.815 102.478,81.292 102.762 M33.167 104.167 C 33.487 104.342,33.825 104.486,33.917 104.486 C 34.008 104.486,33.821 104.342,33.500 104.167 C 33.179 103.991,32.842 103.847,32.750 103.847 C 32.658 103.847,32.846 103.991,33.167 104.167 M78.000 104.417 C 77.771 104.548,77.658 104.655,77.750 104.655 C 77.842 104.655,78.104 104.548,78.333 104.417 C 78.563 104.286,78.675 104.178,78.583 104.178 C 78.492 104.178,78.229 104.286,78.000 104.417 M38.500 106.305 C 38.637 106.390,38.938 106.510,39.167 106.571 C 39.456 106.649,39.507 106.635,39.333 106.528 C 39.196 106.443,38.896 106.324,38.667 106.262 C 38.377 106.185,38.326 106.198,38.500 106.305 M41.083 107.167 C 41.267 107.245,41.529 107.310,41.667 107.310 C 41.824 107.310,41.793 107.257,41.583 107.167 C 41.400 107.088,41.137 107.023,41.000 107.023 C 40.842 107.023,40.873 107.076,41.083 107.167 M48.542 108.782 C 48.702 108.823,48.965 108.823,49.125 108.782 C 49.285 108.740,49.154 108.705,48.833 108.705 C 48.512 108.705,48.381 108.740,48.542 108.782 M49.875 108.948 C 50.035 108.990,50.298 108.990,50.458 108.948 C 50.619 108.906,50.487 108.872,50.167 108.872 C 49.846 108.872,49.715 108.906,49.875 108.948 M61.542 108.948 C 61.702 108.990,61.965 108.990,62.125 108.948 C 62.285 108.906,62.154 108.872,61.833 108.872 C 61.512 108.872,61.381 108.906,61.542 108.948 M51.583 109.162 C 52.080 109.293,54.452 109.389,54.319 109.273 C 54.281 109.239,53.538 109.171,52.667 109.121 C 51.767 109.070,51.299 109.087,51.583 109.162 M58.750 109.167 L 57.750 109.277 58.750 109.296 C 59.300 109.306,60.050 109.252,60.417 109.176 L 61.083 109.038 60.417 109.047 C 60.050 109.052,59.300 109.106,58.750 109.167 " stroke="none" fill="#9c8bcf" fill-rule="evenodd"></path></g></svg>