<svg id="svg" version="1.1" xmlns="http://www.w3.org/2000/svg" xmlns:xlink="http://www.w3.org/1999/xlink" width="400" height="400.6666666666667" viewBox="0, 0, 400,400.6666666666667"><g id="svgg"><path id="path0" d="M134.200 75.025 C 133.540 75.116,131.110 75.390,128.800 75.635 C 104.510 78.211,96.371 90.840,98.344 122.896 C 98.868 131.417,99.021 132.766,100.955 146.000 C 101.068 146.770,101.447 148.930,101.798 150.800 C 102.149 152.670,102.601 155.100,102.803 156.200 C 105.257 169.600,112.654 197.761,117.622 212.620 C 118.378 214.880,118.392 215.185,117.834 217.220 C 107.460 255.073,110.257 294.641,124.972 318.200 C 126.071 319.960,127.076 321.490,127.204 321.600 C 127.332 321.710,128.261 322.880,129.268 324.200 C 141.304 339.979,158.059 344.200,163.749 332.887 C 166.487 327.442,166.800 324.103,166.801 300.323 C 166.803 264.980,168.745 254.615,177.560 242.917 C 184.285 233.992,199.775 224.004,209.683 222.203 C 215.310 221.180,235.123 232.639,241.765 240.757 C 252.049 253.327,254.802 266.547,254.184 300.400 C 253.864 317.914,254.224 324.208,255.842 329.400 C 259.838 342.227,271.338 342.842,285.543 330.987 C 301.455 317.708,310.723 287.826,309.172 254.800 C 308.606 242.771,307.355 234.429,304.131 221.200 C 302.529 214.626,302.459 215.575,305.193 206.800 C 306.118 203.830,307.022 200.860,307.201 200.200 C 307.381 199.540,308.511 195.490,309.713 191.200 C 323.414 142.309,326.427 106.871,318.319 90.000 C 310.735 74.221,285.923 70.874,240.000 79.435 C 235.895 80.200,226.345 82.115,221.400 83.165 C 219.420 83.586,216.375 84.223,214.634 84.582 C 212.893 84.941,211.317 85.328,211.131 85.443 C 210.945 85.557,208.536 85.092,205.776 84.410 C 203.016 83.727,200.002 83.014,199.079 82.826 C 198.156 82.638,194.790 81.938,191.600 81.271 C 177.835 78.393,169.168 77.032,156.600 75.776 C 150.656 75.182,136.511 74.708,134.200 75.025 " stroke="none" fill="#fbfbfb" fill-rule="evenodd"></path><path id="path1" d="M191.017 9.209 C 188.356 9.383,186.575 9.674,186.484 9.948 C 186.395 10.215,185.376 10.400,183.993 10.400 C 182.705 10.400,181.190 10.576,180.624 10.791 C 180.059 11.006,178.157 11.302,176.398 11.448 C 174.639 11.595,173.200 11.850,173.200 12.015 C 173.200 12.181,172.525 12.416,171.700 12.539 C 168.252 13.052,165.200 13.774,165.200 14.076 C 165.200 14.254,164.689 14.400,164.064 14.400 C 163.439 14.400,162.044 14.668,160.964 14.996 C 159.884 15.323,158.595 15.593,158.100 15.596 C 157.605 15.598,157.200 15.780,157.200 16.000 C 157.200 16.220,156.570 16.400,155.800 16.400 C 155.030 16.400,154.400 16.564,154.400 16.765 C 154.400 16.966,153.680 17.251,152.800 17.400 C 151.920 17.549,151.200 17.794,151.200 17.944 C 151.200 18.201,148.786 18.949,146.300 19.463 C 145.695 19.588,145.200 19.850,145.200 20.045 C 145.200 20.240,144.829 20.400,144.375 20.400 C 143.922 20.400,142.617 20.838,141.475 21.374 C 140.334 21.910,138.905 22.469,138.300 22.617 C 137.695 22.766,137.200 23.047,137.200 23.243 C 137.200 23.440,136.750 23.600,136.200 23.600 C 135.650 23.600,135.200 23.735,135.200 23.900 C 135.200 24.065,134.120 24.545,132.800 24.967 C 131.480 25.389,130.400 25.844,130.400 25.979 C 130.400 26.114,129.500 26.573,128.400 27.000 C 127.300 27.427,126.400 27.916,126.400 28.088 C 126.400 28.260,126.202 28.400,125.960 28.400 C 125.481 28.400,122.724 29.622,122.398 29.979 C 122.193 30.204,117.737 32.610,116.103 33.378 C 115.610 33.610,115.205 33.935,115.203 34.100 C 115.201 34.265,114.945 34.400,114.632 34.400 C 113.936 34.400,111.606 35.693,111.603 36.081 C 111.601 36.236,110.925 36.677,110.100 37.060 C 109.275 37.444,108.510 37.871,108.400 38.008 C 108.290 38.146,107.930 38.379,107.600 38.527 C 106.664 38.945,105.535 39.718,104.425 40.700 C 103.866 41.195,103.181 41.600,102.904 41.600 C 102.627 41.600,102.400 41.739,102.400 41.909 C 102.400 42.079,101.770 42.557,101.000 42.972 C 100.230 43.387,99.600 43.878,99.600 44.063 C 99.600 44.248,99.396 44.400,99.146 44.400 C 98.896 44.400,98.275 44.850,97.765 45.400 C 97.255 45.950,96.658 46.400,96.437 46.400 C 96.217 46.400,95.586 46.850,95.036 47.400 C 94.486 47.950,93.893 48.401,93.718 48.402 C 93.543 48.403,92.749 48.988,91.954 49.702 C 91.159 50.416,89.809 51.567,88.954 52.260 C 85.997 54.659,85.386 55.189,82.238 58.088 C 77.216 62.713,66.400 73.716,66.400 74.200 C 66.400 74.490,65.825 75.170,63.900 77.157 C 63.075 78.009,62.400 78.829,62.400 78.980 C 62.400 79.130,61.772 79.916,61.003 80.727 C 60.235 81.537,59.605 82.327,59.603 82.482 C 59.602 82.637,59.172 83.192,58.648 83.716 C 58.124 84.239,57.572 85.058,57.421 85.534 C 57.270 86.010,56.978 86.400,56.773 86.400 C 56.568 86.400,56.400 86.655,56.400 86.967 C 56.400 87.278,56.263 87.593,56.096 87.667 C 55.429 87.959,53.200 91.023,53.200 91.648 C 53.200 92.015,52.927 92.419,52.594 92.547 C 52.261 92.675,51.811 93.189,51.595 93.690 C 51.010 95.044,50.263 96.160,49.700 96.520 C 49.425 96.696,49.200 97.125,49.200 97.473 C 49.200 97.821,48.866 98.397,48.457 98.753 C 48.049 99.109,47.577 99.836,47.408 100.369 C 47.240 100.902,46.757 101.709,46.336 102.161 C 45.914 102.614,45.466 103.393,45.341 103.892 C 45.216 104.391,44.953 104.800,44.757 104.800 C 44.560 104.800,44.400 105.160,44.400 105.600 C 44.400 106.040,44.220 106.400,44.000 106.400 C 43.780 106.400,43.600 106.657,43.600 106.971 C 43.600 107.286,43.375 107.784,43.100 108.079 C 42.299 108.937,41.200 111.068,41.200 111.762 C 41.200 112.113,41.020 112.400,40.800 112.400 C 40.580 112.400,40.400 112.670,40.400 113.000 C 40.400 113.330,40.234 113.600,40.032 113.600 C 39.829 113.600,39.537 114.185,39.382 114.900 C 39.226 115.615,38.978 116.290,38.829 116.400 C 38.456 116.676,37.200 119.421,37.200 119.960 C 37.200 120.202,37.064 120.400,36.898 120.400 C 36.504 120.400,35.689 122.257,35.359 123.903 C 35.217 124.616,34.942 125.200,34.750 125.200 C 34.557 125.200,34.400 125.549,34.400 125.976 C 34.400 126.403,34.236 126.854,34.035 126.978 C 33.834 127.103,33.548 127.923,33.400 128.802 C 33.251 129.681,33.009 130.400,32.862 130.400 C 32.464 130.400,31.592 132.542,31.327 134.170 C 31.200 134.957,30.939 135.600,30.748 135.600 C 30.556 135.600,30.400 136.050,30.400 136.600 C 30.400 137.150,30.237 137.600,30.038 137.600 C 29.838 137.600,29.551 138.500,29.400 139.600 C 29.249 140.699,28.962 141.700,28.763 141.823 C 28.563 141.946,28.400 142.376,28.400 142.778 C 28.400 143.180,28.131 144.024,27.802 144.654 C 27.474 145.284,27.204 146.385,27.202 147.100 C 27.201 147.815,27.020 148.400,26.800 148.400 C 26.580 148.400,26.400 148.940,26.400 149.600 C 26.400 150.260,26.235 150.800,26.034 150.800 C 25.833 150.800,25.542 152.150,25.387 153.800 C 25.233 155.450,24.966 156.800,24.795 156.800 C 24.624 156.800,24.388 157.475,24.270 158.300 C 23.818 161.478,23.147 164.629,22.782 165.295 C 22.572 165.677,22.400 166.881,22.400 167.971 C 22.400 169.061,22.220 170.064,22.000 170.200 C 21.780 170.336,21.599 171.472,21.598 172.724 C 21.596 173.976,21.326 175.516,20.998 176.146 C 20.226 177.626,20.087 220.327,20.851 221.091 C 21.100 221.340,21.394 222.820,21.506 224.381 C 21.618 225.943,21.864 227.316,22.054 227.434 C 22.245 227.551,22.400 228.627,22.400 229.824 C 22.400 231.021,22.569 232.000,22.776 232.000 C 22.982 232.000,23.276 233.260,23.427 234.800 C 23.579 236.340,23.860 237.600,24.052 237.600 C 24.243 237.600,24.400 238.320,24.400 239.200 C 24.400 240.080,24.559 240.800,24.753 240.800 C 24.947 240.800,25.232 242.149,25.387 243.797 C 25.541 245.446,25.833 246.896,26.034 247.021 C 26.235 247.145,26.400 247.676,26.400 248.200 C 26.400 248.724,26.580 249.264,26.800 249.400 C 27.020 249.536,27.201 250.132,27.202 250.724 C 27.204 251.316,27.474 252.316,27.802 252.946 C 28.131 253.576,28.400 254.431,28.400 254.846 C 28.400 255.261,28.559 255.600,28.754 255.600 C 28.949 255.600,29.232 256.590,29.383 257.800 C 29.534 259.010,29.825 260.000,30.029 260.000 C 30.233 260.000,30.400 260.450,30.400 261.000 C 30.400 261.550,30.557 262.000,30.749 262.000 C 30.941 262.000,31.214 262.728,31.356 263.617 C 31.595 265.107,32.259 266.714,32.838 267.200 C 32.970 267.310,33.205 267.940,33.361 268.600 C 33.734 270.178,34.530 272.000,34.847 272.000 C 34.985 272.000,35.214 272.728,35.356 273.617 C 35.618 275.251,36.184 276.516,37.100 277.513 C 37.375 277.812,37.600 278.284,37.600 278.561 C 37.600 278.838,38.049 279.950,38.598 281.032 C 39.147 282.114,39.597 283.225,39.598 283.500 C 39.599 283.775,39.738 284.000,39.906 284.000 C 40.074 284.000,40.542 284.765,40.947 285.700 C 41.351 286.635,41.799 287.490,41.941 287.600 C 42.444 287.988,43.600 290.332,43.600 290.962 C 43.600 291.313,43.780 291.600,44.000 291.600 C 44.220 291.600,44.400 291.870,44.400 292.200 C 44.400 292.530,44.560 292.800,44.757 292.800 C 44.953 292.800,45.216 293.209,45.341 293.708 C 45.466 294.207,45.891 294.977,46.285 295.419 C 46.678 295.861,47.358 296.937,47.796 297.811 C 48.234 298.685,48.684 299.490,48.796 299.600 C 49.198 299.994,50.028 301.413,50.258 302.100 C 50.388 302.485,50.611 302.800,50.756 302.800 C 50.900 302.800,51.357 303.430,51.772 304.200 C 52.187 304.970,52.658 305.600,52.820 305.600 C 52.981 305.600,53.226 306.050,53.364 306.600 C 53.502 307.150,53.792 307.600,54.008 307.600 C 54.223 307.600,54.400 307.804,54.400 308.054 C 54.400 308.304,54.850 308.925,55.400 309.435 C 55.950 309.945,56.400 310.550,56.400 310.781 C 56.400 311.011,56.539 311.200,56.709 311.200 C 56.879 311.200,57.357 311.830,57.772 312.600 C 58.187 313.370,58.666 314.000,58.836 314.000 C 59.007 314.000,59.248 314.322,59.373 314.715 C 59.498 315.108,60.410 316.287,61.400 317.335 C 62.390 318.383,63.200 319.403,63.200 319.601 C 63.200 319.800,64.100 320.862,65.200 321.962 C 66.300 323.062,67.200 324.107,67.200 324.283 C 67.200 324.460,68.145 325.537,69.300 326.677 C 70.455 327.817,71.940 329.393,72.600 330.179 C 73.260 330.966,74.106 331.706,74.480 331.825 C 74.853 331.944,75.267 332.383,75.400 332.800 C 75.533 333.217,75.972 333.664,76.377 333.793 C 76.782 333.921,77.210 334.394,77.327 334.843 C 77.445 335.292,77.908 335.755,78.357 335.873 C 78.806 335.990,79.282 336.427,79.414 336.843 C 79.546 337.259,79.810 337.600,80.001 337.600 C 80.192 337.600,81.303 338.590,82.471 339.800 C 83.639 341.010,84.732 342.000,84.899 342.000 C 85.066 342.000,86.136 342.900,87.278 344.000 C 88.419 345.100,89.489 346.000,89.656 346.000 C 89.823 346.000,90.817 346.810,91.865 347.800 C 92.913 348.790,94.092 349.702,94.485 349.827 C 94.878 349.952,95.200 350.222,95.200 350.427 C 95.200 350.632,95.455 350.800,95.767 350.800 C 96.078 350.800,96.393 350.936,96.467 351.103 C 96.540 351.270,97.410 352.030,98.400 352.793 C 99.390 353.555,100.290 354.274,100.400 354.390 C 100.779 354.788,102.201 355.624,102.900 355.858 C 103.285 355.988,103.600 356.240,103.600 356.420 C 103.600 356.599,103.928 356.850,104.329 356.978 C 104.731 357.105,105.416 357.522,105.851 357.905 C 106.931 358.853,108.061 359.577,108.900 359.858 C 109.285 359.988,109.600 360.252,109.600 360.447 C 109.600 360.641,109.960 360.800,110.400 360.800 C 110.840 360.800,111.200 360.977,111.200 361.192 C 111.200 361.408,111.650 361.698,112.200 361.836 C 112.750 361.974,113.200 362.219,113.200 362.380 C 113.200 362.542,113.875 363.017,114.700 363.437 C 115.525 363.857,116.290 364.299,116.400 364.421 C 116.722 364.777,119.480 366.000,119.960 366.000 C 120.202 366.000,120.400 366.151,120.400 366.336 C 120.400 366.520,121.118 367.015,121.995 367.436 C 122.873 367.856,123.593 368.335,123.595 368.500 C 123.598 368.665,123.915 368.806,124.300 368.813 C 124.685 368.820,125.349 369.090,125.776 369.413 C 126.204 369.736,126.969 370.000,127.476 370.000 C 127.984 370.000,128.400 370.159,128.400 370.353 C 128.400 370.548,128.715 370.806,129.100 370.928 C 129.485 371.049,130.430 371.496,131.200 371.921 C 133.419 373.146,135.560 374.000,136.414 374.000 C 136.846 374.000,137.200 374.144,137.200 374.320 C 137.200 374.495,137.875 374.876,138.700 375.166 C 139.525 375.455,140.740 375.930,141.400 376.221 C 144.207 377.458,145.744 378.000,146.449 378.000 C 146.862 378.000,147.200 378.160,147.200 378.355 C 147.200 378.550,147.695 378.808,148.300 378.928 C 150.484 379.363,153.404 380.162,153.600 380.379 C 153.945 380.760,157.867 382.000,158.730 382.000 C 159.183 382.000,159.664 382.180,159.800 382.400 C 159.936 382.620,160.498 382.800,161.050 382.800 C 161.601 382.800,162.392 382.982,162.808 383.204 C 163.223 383.427,164.651 383.722,165.982 383.861 C 167.312 384.000,168.400 384.268,168.400 384.457 C 168.400 384.646,168.985 384.803,169.700 384.806 C 170.415 384.809,171.720 385.071,172.600 385.388 C 173.480 385.705,174.864 385.973,175.676 385.982 C 176.488 385.992,177.251 386.158,177.370 386.351 C 177.489 386.545,178.625 386.812,179.894 386.945 C 184.861 387.466,187.462 387.898,188.287 388.339 C 189.508 388.993,231.292 388.993,232.513 388.339 C 233.305 387.916,235.336 387.572,240.600 386.973 C 241.700 386.847,242.960 386.597,243.400 386.418 C 244.157 386.108,247.589 385.432,250.900 384.939 C 251.725 384.816,252.400 384.581,252.400 384.415 C 252.400 384.249,253.488 384.000,254.818 383.861 C 256.149 383.722,257.577 383.427,257.992 383.204 C 258.408 382.982,259.199 382.800,259.750 382.800 C 260.302 382.800,260.864 382.620,261.000 382.400 C 261.136 382.180,261.683 382.000,262.216 382.000 C 263.120 382.000,265.817 381.147,267.215 380.419 C 267.554 380.243,268.588 379.971,269.513 379.815 C 270.439 379.658,271.297 379.366,271.422 379.165 C 271.546 378.964,272.087 378.800,272.624 378.800 C 273.161 378.800,273.600 378.644,273.600 378.452 C 273.600 378.261,274.185 378.010,274.900 377.893 C 275.615 377.777,277.223 377.213,278.474 376.641 C 279.725 376.068,280.935 375.600,281.162 375.600 C 281.390 375.600,282.166 375.281,282.888 374.892 C 283.610 374.503,285.235 373.844,286.500 373.427 C 287.765 373.011,288.800 372.559,288.800 372.423 C 288.800 372.287,289.700 371.827,290.800 371.400 C 291.900 370.973,292.800 370.484,292.800 370.312 C 292.800 370.140,293.087 370.000,293.438 370.000 C 294.144 370.000,296.523 368.773,296.733 368.300 C 296.807 368.135,297.107 368.000,297.401 368.000 C 297.950 368.000,300.442 366.793,300.800 366.354 C 300.910 366.219,301.405 365.981,301.900 365.827 C 302.395 365.672,302.800 365.378,302.800 365.173 C 302.800 364.968,303.160 364.800,303.600 364.800 C 304.040 364.800,304.400 364.620,304.400 364.400 C 304.400 364.180,304.606 364.000,304.857 364.000 C 305.422 364.000,310.550 360.806,310.733 360.339 C 310.807 360.153,311.128 360.000,311.447 360.000 C 312.254 360.000,314.356 358.645,316.256 356.900 C 316.795 356.405,317.415 356.000,317.632 356.000 C 318.261 356.000,320.773 354.292,322.405 352.755 C 322.781 352.401,323.654 351.777,324.345 351.369 C 325.035 350.961,325.600 350.486,325.600 350.314 C 325.600 350.141,325.788 350.000,326.017 350.000 C 326.468 350.000,326.994 349.600,328.782 347.900 C 329.418 347.295,330.055 346.800,330.198 346.800 C 330.340 346.800,330.692 346.566,330.978 346.279 C 331.265 345.993,332.267 345.138,333.205 344.379 C 334.143 343.621,335.722 342.226,336.714 341.279 C 337.705 340.332,339.327 338.894,340.317 338.083 C 342.454 336.332,345.488 333.293,349.600 328.785 C 351.250 326.976,353.455 324.587,354.500 323.475 C 355.545 322.363,356.400 321.333,356.400 321.186 C 356.400 321.039,356.895 320.369,357.500 319.697 C 358.105 319.025,359.050 317.909,359.600 317.218 C 360.150 316.526,360.825 315.713,361.100 315.409 C 361.375 315.105,361.600 314.754,361.600 314.629 C 361.600 314.503,361.915 314.077,362.300 313.683 C 362.685 313.288,363.360 312.458,363.800 311.838 C 364.240 311.218,364.825 310.474,365.100 310.184 C 365.375 309.894,365.600 309.464,365.600 309.229 C 365.600 308.993,365.777 308.800,365.992 308.800 C 366.208 308.800,366.498 308.350,366.636 307.800 C 366.774 307.250,367.008 306.800,367.157 306.800 C 367.306 306.800,367.772 306.215,368.194 305.500 C 368.615 304.785,369.291 303.844,369.695 303.408 C 370.100 302.972,370.534 302.207,370.659 301.708 C 370.784 301.209,371.047 300.800,371.243 300.800 C 371.440 300.800,371.600 300.530,371.600 300.200 C 371.600 299.870,371.768 299.600,371.973 299.600 C 372.178 299.600,372.450 299.272,372.578 298.871 C 372.705 298.469,373.122 297.791,373.505 297.363 C 373.887 296.934,374.830 295.328,375.600 293.792 C 376.370 292.256,377.099 290.910,377.221 290.800 C 377.342 290.690,377.774 289.880,378.180 289.000 C 378.586 288.120,379.027 287.310,379.159 287.200 C 379.732 286.724,380.800 284.406,380.800 283.638 C 380.800 283.177,380.980 282.800,381.200 282.800 C 381.420 282.800,381.600 282.530,381.600 282.200 C 381.600 281.870,381.780 281.600,382.000 281.600 C 382.220 281.600,382.400 281.346,382.400 281.034 C 382.400 280.560,383.800 277.435,385.235 274.705 C 385.436 274.323,385.600 273.738,385.600 273.405 C 385.600 273.072,385.760 272.800,385.955 272.800 C 386.151 272.800,386.429 272.170,386.574 271.400 C 386.718 270.630,387.008 270.000,387.218 270.000 C 387.428 270.000,387.600 269.565,387.600 269.033 C 387.600 268.502,387.798 268.001,388.039 267.920 C 388.281 267.840,388.574 266.925,388.691 265.887 C 388.808 264.849,389.017 264.000,389.154 264.000 C 389.495 264.000,390.271 262.101,390.614 260.427 C 390.769 259.672,391.220 258.476,391.617 257.770 C 392.014 257.064,392.463 255.654,392.615 254.638 C 392.768 253.622,393.052 252.692,393.246 252.571 C 393.441 252.451,393.600 251.823,393.600 251.176 C 393.600 250.529,393.759 250.000,393.953 250.000 C 394.148 250.000,394.432 248.830,394.585 247.400 C 394.738 245.970,395.029 244.800,395.232 244.800 C 395.434 244.800,395.603 244.395,395.606 243.900 C 395.609 243.405,395.871 242.280,396.188 241.400 C 396.505 240.520,396.773 239.136,396.782 238.324 C 396.792 237.512,396.980 236.736,397.200 236.600 C 397.420 236.464,397.600 235.564,397.600 234.600 C 397.600 233.636,397.760 232.748,397.957 232.627 C 398.153 232.506,398.443 230.560,398.601 228.303 C 398.759 226.046,399.094 223.947,399.344 223.639 C 399.991 222.842,399.993 175.163,399.347 174.362 C 399.098 174.053,398.765 171.865,398.608 169.500 C 398.451 167.135,398.160 165.099,397.961 164.976 C 397.763 164.853,397.600 163.964,397.600 163.000 C 397.600 162.036,397.420 161.136,397.200 161.000 C 396.980 160.864,396.800 160.154,396.800 159.422 C 396.800 158.117,395.855 154.436,395.188 153.145 C 395.002 152.785,394.726 151.390,394.573 150.045 C 394.421 148.700,394.140 147.600,393.948 147.600 C 393.757 147.600,393.600 147.071,393.600 146.424 C 393.600 145.777,393.441 145.149,393.246 145.029 C 393.052 144.908,392.768 143.978,392.615 142.962 C 392.463 141.946,391.994 140.501,391.573 139.752 C 391.152 139.003,390.692 137.668,390.551 136.786 C 390.410 135.904,390.139 135.086,389.947 134.968 C 389.756 134.849,389.600 134.403,389.600 133.976 C 389.600 133.549,389.440 133.200,389.245 133.200 C 389.050 133.200,388.769 132.390,388.621 131.400 C 388.472 130.410,388.182 129.600,387.975 129.600 C 387.769 129.600,387.600 129.150,387.600 128.600 C 387.600 128.050,387.434 127.600,387.232 127.600 C 387.029 127.600,386.745 127.062,386.601 126.405 C 386.457 125.747,386.172 125.106,385.969 124.981 C 385.766 124.855,385.600 124.403,385.600 123.976 C 385.600 123.549,385.440 123.200,385.245 123.200 C 385.049 123.200,384.771 122.570,384.626 121.800 C 384.482 121.030,384.192 120.400,383.982 120.400 C 383.772 120.400,383.600 119.965,383.600 119.433 C 383.600 118.902,383.465 118.407,383.300 118.333 C 383.045 118.220,381.720 115.624,379.863 111.600 C 379.609 111.050,379.308 110.510,379.195 110.400 C 379.081 110.290,378.631 109.437,378.194 108.505 C 377.757 107.572,377.279 106.807,377.132 106.805 C 376.984 106.802,376.745 106.260,376.600 105.600 C 376.455 104.940,376.171 104.400,375.968 104.400 C 375.766 104.400,375.600 104.130,375.600 103.800 C 375.600 103.470,375.432 103.200,375.227 103.200 C 375.022 103.200,374.730 102.809,374.578 102.332 C 374.315 101.503,371.726 97.219,371.234 96.800 C 371.105 96.690,370.657 95.925,370.237 95.100 C 369.817 94.275,369.322 93.600,369.137 93.600 C 368.952 93.600,368.800 93.338,368.800 93.018 C 368.800 92.698,368.372 92.008,367.848 91.484 C 367.324 90.961,366.772 90.142,366.621 89.666 C 366.470 89.190,366.178 88.800,365.973 88.800 C 365.768 88.800,365.600 88.596,365.600 88.346 C 365.600 88.096,365.150 87.475,364.600 86.965 C 364.050 86.455,363.600 85.893,363.600 85.715 C 363.600 85.537,363.150 84.907,362.600 84.313 C 362.050 83.720,361.600 83.124,361.600 82.989 C 361.600 82.854,361.375 82.498,361.100 82.198 C 360.825 81.898,360.150 81.103,359.600 80.431 C 359.050 79.759,358.222 78.792,357.759 78.282 C 357.297 77.772,356.847 77.158,356.759 76.918 C 356.081 75.054,336.503 55.465,332.753 52.897 C 332.229 52.538,331.434 51.829,330.987 51.322 C 330.540 50.815,330.000 50.398,329.787 50.397 C 329.574 50.395,328.737 49.765,327.927 48.997 C 327.116 48.228,326.344 47.600,326.209 47.600 C 326.075 47.600,325.480 47.150,324.887 46.600 C 324.293 46.050,323.663 45.600,323.485 45.600 C 323.307 45.600,322.764 45.195,322.278 44.700 C 321.261 43.664,320.105 42.879,319.100 42.542 C 318.715 42.412,318.400 42.189,318.400 42.044 C 318.400 41.900,317.770 41.443,317.000 41.028 C 316.230 40.613,315.600 40.163,315.600 40.028 C 315.600 39.893,314.925 39.428,314.100 38.995 C 313.275 38.562,312.510 38.103,312.400 37.975 C 312.290 37.846,311.930 37.618,311.600 37.466 C 311.270 37.315,310.460 36.835,309.800 36.400 C 309.140 35.965,307.970 35.292,307.200 34.905 C 306.430 34.517,305.710 34.110,305.600 34.000 C 305.196 33.596,303.780 32.770,303.100 32.542 C 302.715 32.412,302.400 32.148,302.400 31.953 C 302.400 31.759,302.051 31.600,301.624 31.600 C 301.197 31.600,300.740 31.426,300.608 31.213 C 300.328 30.760,295.492 28.400,294.843 28.400 C 294.599 28.400,294.400 28.220,294.400 28.000 C 294.400 27.780,294.126 27.600,293.792 27.600 C 293.458 27.600,292.471 27.150,291.600 26.600 C 290.729 26.050,289.787 25.594,289.508 25.587 C 289.229 25.580,288.651 25.310,288.224 24.987 C 287.796 24.664,287.031 24.400,286.524 24.400 C 286.016 24.400,285.600 24.256,285.600 24.079 C 285.600 23.902,284.655 23.426,283.500 23.020 C 282.345 22.614,281.220 22.155,281.000 22.000 C 280.780 21.845,279.610 21.386,278.400 20.979 C 277.190 20.572,276.029 20.095,275.820 19.919 C 275.611 19.744,275.037 19.600,274.544 19.600 C 274.051 19.600,273.542 19.430,273.414 19.223 C 273.286 19.016,272.376 18.725,271.391 18.578 C 270.406 18.430,269.600 18.165,269.600 17.990 C 269.600 17.814,268.880 17.549,268.000 17.400 C 267.120 17.251,266.400 16.966,266.400 16.765 C 266.400 16.564,265.890 16.400,265.267 16.400 C 264.643 16.400,264.010 16.276,263.859 16.125 C 263.426 15.693,258.340 14.449,256.900 14.423 C 256.185 14.410,255.600 14.239,255.600 14.042 C 255.600 13.845,254.925 13.604,254.100 13.505 C 252.659 13.333,249.252 12.531,248.000 12.069 C 247.209 11.778,240.885 10.853,237.600 10.549 C 236.170 10.417,234.770 10.123,234.489 9.896 C 233.293 8.931,202.620 8.447,191.017 9.209 M153.932 74.810 C 156.059 75.035,159.510 75.401,161.600 75.624 C 172.673 76.801,188.422 79.689,206.198 83.803 L 210.596 84.821 214.198 84.027 C 233.106 79.857,249.757 76.813,260.200 75.619 C 262.400 75.367,265.624 74.990,267.364 74.781 C 277.628 73.546,295.258 74.566,302.600 76.820 C 319.534 82.019,325.545 96.807,322.994 127.000 C 322.459 133.336,322.146 135.954,320.814 145.200 C 320.456 147.684,318.586 157.740,317.803 161.392 C 316.793 166.102,314.432 176.238,313.794 178.600 C 313.438 179.920,312.723 182.620,312.205 184.600 C 310.006 193.009,305.721 207.711,303.798 213.447 C 303.289 214.965,303.334 215.434,304.373 219.447 C 310.332 242.450,311.719 268.526,307.966 287.000 C 306.635 293.551,304.522 301.383,303.218 304.600 C 303.039 305.040,302.396 306.660,301.788 308.200 C 291.464 334.344,265.925 348.993,257.056 333.859 C 253.785 328.278,253.500 325.451,253.419 297.800 C 253.344 272.327,253.182 269.885,250.999 261.161 C 246.349 242.572,234.883 231.001,213.814 223.634 C 210.183 222.365,205.820 223.459,197.191 227.805 C 172.686 240.145,166.831 254.914,167.502 302.697 C 167.910 331.734,164.777 340.047,153.400 340.115 C 142.022 340.184,123.564 322.995,119.099 308.173 C 118.971 307.748,118.228 305.634,117.449 303.475 C 111.147 286.019,109.256 263.801,112.200 241.800 C 113.253 233.937,114.050 229.781,116.070 221.640 L 117.698 215.080 115.880 209.240 C 114.127 203.606,113.570 201.749,111.429 194.400 C 109.942 189.298,105.929 173.907,105.223 170.600 C 105.035 169.720,104.409 166.840,103.833 164.200 C 94.629 122.026,95.670 92.183,106.658 83.193 C 112.531 78.389,118.064 76.317,129.000 74.825 C 132.521 74.345,149.444 74.334,153.932 74.810 " stroke="none" fill="#4323a3" fill-rule="evenodd"></path><path id="path2" d="M132.912 74.695 C 133.964 74.777,135.584 74.776,136.512 74.692 C 137.440 74.608,136.580 74.541,134.600 74.542 C 132.620 74.543,131.860 74.612,132.912 74.695 M145.315 74.696 C 146.588 74.776,148.568 74.775,149.715 74.694 C 150.862 74.614,149.820 74.549,147.400 74.550 C 144.980 74.551,144.042 74.616,145.315 74.696 M270.700 74.693 C 271.635 74.777,273.165 74.777,274.100 74.693 C 275.035 74.609,274.270 74.540,272.400 74.540 C 270.530 74.540,269.765 74.609,270.700 74.693 M287.900 74.689 C 288.615 74.778,289.785 74.778,290.500 74.689 C 291.215 74.601,290.630 74.528,289.200 74.528 C 287.770 74.528,287.185 74.601,287.900 74.689 M153.300 75.076 C 153.685 75.176,154.315 75.176,154.700 75.076 C 155.085 74.975,154.770 74.893,154.000 74.893 C 153.230 74.893,152.915 74.975,153.300 75.076 M125.300 75.476 C 125.685 75.576,126.315 75.576,126.700 75.476 C 127.085 75.375,126.770 75.293,126.000 75.293 C 125.230 75.293,124.915 75.375,125.300 75.476 M157.500 75.482 C 157.995 75.578,158.805 75.578,159.300 75.482 C 159.795 75.387,159.390 75.309,158.400 75.309 C 157.410 75.309,157.005 75.387,157.500 75.482 M262.300 75.482 C 262.795 75.578,263.605 75.578,264.100 75.482 C 264.595 75.387,264.190 75.309,263.200 75.309 C 262.210 75.309,261.805 75.387,262.300 75.482 M161.300 75.876 C 161.685 75.976,162.315 75.976,162.700 75.876 C 163.085 75.775,162.770 75.693,162.000 75.693 C 161.230 75.693,160.915 75.775,161.300 75.876 M164.900 76.276 C 165.285 76.376,165.915 76.376,166.300 76.276 C 166.685 76.175,166.370 76.093,165.600 76.093 C 164.830 76.093,164.515 76.175,164.900 76.276 M301.400 76.800 C 301.840 76.989,302.470 77.144,302.800 77.144 C 303.178 77.144,303.104 77.017,302.600 76.800 C 302.160 76.611,301.530 76.456,301.200 76.456 C 300.822 76.456,300.896 76.583,301.400 76.800 M115.800 77.814 C 114.800 78.296,114.766 78.351,115.600 78.148 C 116.733 77.871,118.007 77.221,117.400 77.230 C 117.180 77.233,116.460 77.496,115.800 77.814 M305.600 78.200 C 306.150 78.514,306.780 78.772,307.000 78.772 C 307.220 78.772,306.950 78.514,306.400 78.200 C 305.850 77.886,305.220 77.628,305.000 77.628 C 304.780 77.628,305.050 77.886,305.600 78.200 M239.600 78.800 C 238.256 79.231,239.708 79.231,241.400 78.800 C 242.478 78.526,242.498 78.494,241.600 78.487 C 241.050 78.483,240.150 78.624,239.600 78.800 M311.400 81.065 C 313.613 83.250,316.410 85.572,315.000 84.055 C 314.120 83.108,312.860 81.959,312.200 81.502 C 311.540 81.045,311.180 80.848,311.400 81.065 M216.000 83.600 C 215.208 83.854,215.167 83.920,215.800 83.920 C 216.240 83.920,217.050 83.776,217.600 83.600 C 218.392 83.346,218.433 83.280,217.800 83.280 C 217.360 83.280,216.550 83.424,216.000 83.600 M101.980 89.639 C 101.520 90.540,101.213 91.346,101.297 91.430 C 101.381 91.514,101.841 90.776,102.319 89.791 C 103.409 87.547,103.115 87.415,101.980 89.639 M99.429 96.629 C 99.281 97.215,99.238 97.772,99.332 97.866 C 99.427 97.960,99.624 97.558,99.771 96.971 C 99.919 96.385,99.962 95.828,99.868 95.734 C 99.773 95.640,99.576 96.042,99.429 96.629 M98.093 104.800 C 98.093 105.570,98.175 105.885,98.276 105.500 C 98.376 105.115,98.376 104.485,98.276 104.100 C 98.175 103.715,98.093 104.030,98.093 104.800 M322.893 107.200 C 322.893 107.970,322.975 108.285,323.076 107.900 C 323.176 107.515,323.176 106.885,323.076 106.500 C 322.975 106.115,322.893 106.430,322.893 107.200 M97.724 109.000 C 97.726 110.320,97.801 110.812,97.890 110.093 C 97.979 109.374,97.977 108.294,97.886 107.693 C 97.795 107.092,97.722 107.680,97.724 109.000 M323.363 115.600 C 323.363 119.230,323.423 120.715,323.498 118.900 C 323.572 117.085,323.572 114.115,323.498 112.300 C 323.423 110.485,323.363 111.970,323.363 115.600 M97.734 122.800 C 97.734 124.450,97.805 125.125,97.891 124.300 C 97.978 123.475,97.978 122.125,97.891 121.300 C 97.805 120.475,97.734 121.150,97.734 122.800 M322.914 125.000 C 322.917 126.100,322.995 126.503,323.087 125.895 C 323.179 125.286,323.177 124.386,323.082 123.895 C 322.987 123.403,322.911 123.900,322.914 125.000 M98.109 128.000 C 98.109 128.990,98.187 129.395,98.282 128.900 C 98.378 128.405,98.378 127.595,98.282 127.100 C 98.187 126.605,98.109 127.010,98.109 128.000 M322.509 130.400 C 322.509 131.390,322.587 131.795,322.682 131.300 C 322.778 130.805,322.778 129.995,322.682 129.500 C 322.587 129.005,322.509 129.410,322.509 130.400 M98.509 132.800 C 98.509 133.790,98.587 134.195,98.682 133.700 C 98.778 133.205,98.778 132.395,98.682 131.900 C 98.587 131.405,98.509 131.810,98.509 132.800 M322.109 134.000 C 322.109 134.990,322.187 135.395,322.282 134.900 C 322.378 134.405,322.378 133.595,322.282 133.100 C 322.187 132.605,322.109 133.010,322.109 134.000 M99.293 139.200 C 99.293 139.970,99.375 140.285,99.476 139.900 C 99.576 139.515,99.576 138.885,99.476 138.500 C 99.375 138.115,99.293 138.430,99.293 139.200 M321.259 140.200 C 321.220 140.860,321.096 141.850,320.983 142.400 L 320.777 143.400 321.208 142.414 C 321.444 141.872,321.568 140.882,321.483 140.214 L 321.328 139.000 321.259 140.200 M102.468 157.800 C 102.462 158.240,102.611 158.960,102.800 159.400 C 103.238 160.419,103.238 159.368,102.800 158.000 C 102.543 157.196,102.477 157.157,102.468 157.800 M317.050 163.250 C 316.717 164.917,317.040 165.240,317.400 163.600 C 317.552 162.909,317.593 162.259,317.491 162.158 C 317.389 162.056,317.191 162.547,317.050 163.250 M105.268 170.600 C 105.262 171.040,105.411 171.760,105.600 172.200 C 106.038 173.219,106.038 172.168,105.600 170.800 C 105.343 169.996,105.277 169.957,105.268 170.600 M314.222 175.422 C 314.072 176.225,314.028 176.962,314.126 177.060 C 314.224 177.157,314.427 176.581,314.578 175.778 C 314.728 174.975,314.772 174.238,314.674 174.140 C 314.576 174.043,314.373 174.619,314.222 175.422 M107.256 178.800 C 107.256 179.130,107.411 179.760,107.600 180.200 C 107.817 180.704,107.944 180.778,107.944 180.400 C 107.944 180.070,107.789 179.440,107.600 179.000 C 107.383 178.496,107.256 178.422,107.256 178.800 M108.406 183.433 C 108.409 183.855,108.595 184.470,108.818 184.800 C 109.115 185.238,109.152 185.076,108.956 184.200 C 108.627 182.729,108.398 182.410,108.406 183.433 M114.056 203.200 C 114.056 203.530,114.211 204.160,114.400 204.600 C 114.617 205.104,114.744 205.178,114.744 204.800 C 114.744 204.470,114.589 203.840,114.400 203.400 C 114.183 202.896,114.056 202.822,114.056 203.200 M115.256 207.200 C 115.256 207.530,115.411 208.160,115.600 208.600 C 115.817 209.104,115.944 209.178,115.944 208.800 C 115.944 208.470,115.789 207.840,115.600 207.400 C 115.383 206.896,115.256 206.822,115.256 207.200 M116.629 219.029 C 116.481 219.615,116.438 220.172,116.532 220.266 C 116.627 220.360,116.824 219.958,116.971 219.371 C 117.119 218.785,117.162 218.228,117.068 218.134 C 116.973 218.040,116.776 218.442,116.629 219.029 M304.056 219.200 C 304.056 219.530,304.211 220.160,304.400 220.600 C 304.617 221.104,304.744 221.178,304.744 220.800 C 304.744 220.470,304.589 219.840,304.400 219.400 C 304.183 218.896,304.056 218.822,304.056 219.200 M304.868 222.400 C 304.888 223.439,305.518 225.146,305.532 224.200 C 305.538 223.760,305.389 223.040,305.200 222.600 C 304.989 222.110,304.861 222.032,304.868 222.400 M306.068 227.600 C 306.088 228.639,306.718 230.346,306.732 229.400 C 306.738 228.960,306.589 228.240,306.400 227.800 C 306.189 227.310,306.061 227.232,306.068 227.600 M229.000 230.607 C 229.440 230.966,230.160 231.435,230.600 231.651 L 231.400 232.044 230.600 231.393 C 230.160 231.034,229.440 230.565,229.000 230.349 L 228.200 229.956 229.000 230.607 M113.400 233.600 C 113.246 234.510,113.204 235.338,113.307 235.440 C 113.410 235.543,113.613 234.877,113.760 233.960 C 113.907 233.043,113.948 232.215,113.853 232.120 C 113.758 232.024,113.554 232.690,113.400 233.600 M236.000 235.800 C 236.746 236.570,237.447 237.200,237.557 237.200 C 237.667 237.200,237.146 236.570,236.400 235.800 C 235.654 235.030,234.953 234.400,234.843 234.400 C 234.733 234.400,235.254 235.030,236.000 235.800 M181.787 238.500 L 179.400 241.000 181.900 238.613 C 184.222 236.395,184.583 236.000,184.287 236.000 C 184.226 236.000,183.101 237.125,181.787 238.500 M308.093 238.800 C 308.093 239.570,308.175 239.885,308.276 239.500 C 308.376 239.115,308.376 238.485,308.276 238.100 C 308.175 237.715,308.093 238.030,308.093 238.800 M112.501 239.800 C 112.505 240.680,112.587 240.993,112.683 240.495 C 112.779 239.998,112.775 239.278,112.675 238.895 C 112.575 238.513,112.496 238.920,112.501 239.800 M178.000 242.800 C 177.303 243.680,176.823 244.400,176.933 244.400 C 177.043 244.400,177.703 243.680,178.400 242.800 C 179.097 241.920,179.577 241.200,179.467 241.200 C 179.357 241.200,178.697 241.920,178.000 242.800 M244.000 244.800 C 244.470 245.460,244.944 246.000,245.054 246.000 C 245.164 246.000,244.870 245.460,244.400 244.800 C 243.930 244.140,243.456 243.600,243.346 243.600 C 243.236 243.600,243.530 244.140,244.000 244.800 M111.709 246.400 C 111.709 247.390,111.787 247.795,111.882 247.300 C 111.978 246.805,111.978 245.995,111.882 245.500 C 111.787 245.005,111.709 245.410,111.709 246.400 M309.309 248.400 C 309.309 249.390,309.387 249.795,309.482 249.300 C 309.578 248.805,309.578 247.995,309.482 247.500 C 309.387 247.005,309.309 247.410,309.309 248.400 M246.200 248.400 C 246.541 249.060,246.911 249.600,247.021 249.600 C 247.131 249.600,246.941 249.060,246.600 248.400 C 246.259 247.740,245.889 247.200,245.779 247.200 C 245.669 247.200,245.859 247.740,246.200 248.400 M111.314 250.600 C 111.317 251.700,111.395 252.103,111.487 251.495 C 111.579 250.886,111.577 249.986,111.482 249.495 C 111.387 249.003,111.311 249.500,111.314 250.600 M247.228 250.200 C 247.228 250.420,247.486 251.050,247.800 251.600 C 248.114 252.150,248.372 252.420,248.372 252.200 C 248.372 251.980,248.114 251.350,247.800 250.800 C 247.486 250.250,247.228 249.980,247.228 250.200 M309.742 255.000 C 309.741 256.980,309.808 257.840,309.892 256.912 C 309.976 255.984,309.977 254.364,309.895 253.312 C 309.812 252.260,309.743 253.020,309.742 255.000 M110.967 262.400 C 110.967 266.690,111.026 268.445,111.098 266.300 C 111.170 264.155,111.170 260.645,111.098 258.500 C 111.026 256.355,110.967 258.110,110.967 262.400 M170.229 258.629 C 170.081 259.215,170.038 259.772,170.132 259.866 C 170.227 259.960,170.424 259.558,170.571 258.971 C 170.719 258.385,170.762 257.828,170.668 257.734 C 170.573 257.640,170.376 258.042,170.229 258.629 M250.456 258.800 C 250.456 259.130,250.611 259.760,250.800 260.200 C 251.017 260.704,251.144 260.778,251.144 260.400 C 251.144 260.070,250.989 259.440,250.800 259.000 C 250.583 258.496,250.456 258.422,250.456 258.800 M251.268 262.000 C 251.288 263.039,251.918 264.746,251.932 263.800 C 251.938 263.360,251.789 262.640,251.600 262.200 C 251.389 261.710,251.261 261.632,251.268 262.000 M169.050 263.250 C 168.717 264.917,169.040 265.240,169.400 263.600 C 169.552 262.909,169.593 262.259,169.491 262.158 C 169.389 262.056,169.191 262.547,169.050 263.250 M309.740 269.600 C 309.740 271.470,309.809 272.235,309.893 271.300 C 309.977 270.365,309.977 268.835,309.893 267.900 C 309.809 266.965,309.740 267.730,309.740 269.600 M252.493 268.400 C 252.493 269.170,252.575 269.485,252.676 269.100 C 252.776 268.715,252.776 268.085,252.676 267.700 C 252.575 267.315,252.493 267.630,252.493 268.400 M168.093 269.600 C 168.093 270.370,168.175 270.685,168.276 270.300 C 168.376 269.915,168.376 269.285,168.276 268.900 C 168.175 268.515,168.093 268.830,168.093 269.600 M252.893 271.600 C 252.893 272.370,252.975 272.685,253.076 272.300 C 253.176 271.915,253.176 271.285,253.076 270.900 C 252.975 270.515,252.893 270.830,252.893 271.600 M111.320 274.000 C 111.320 275.210,111.395 275.705,111.487 275.100 C 111.578 274.495,111.578 273.505,111.487 272.900 C 111.395 272.295,111.320 272.790,111.320 274.000 M167.709 273.600 C 167.709 274.590,167.787 274.995,167.882 274.500 C 167.978 274.005,167.978 273.195,167.882 272.700 C 167.787 272.205,167.709 272.610,167.709 273.600 M253.334 277.200 C 253.334 278.850,253.405 279.525,253.491 278.700 C 253.578 277.875,253.578 276.525,253.491 275.700 C 253.405 274.875,253.334 275.550,253.334 277.200 M309.309 276.000 C 309.309 276.990,309.387 277.395,309.482 276.900 C 309.578 276.405,309.578 275.595,309.482 275.100 C 309.387 274.605,309.309 275.010,309.309 276.000 M111.693 278.000 C 111.693 278.770,111.775 279.085,111.876 278.700 C 111.976 278.315,111.976 277.685,111.876 277.300 C 111.775 276.915,111.693 277.230,111.693 278.000 M167.350 281.000 C 167.351 283.420,167.416 284.358,167.496 283.085 C 167.576 281.812,167.575 279.832,167.494 278.685 C 167.414 277.538,167.349 278.580,167.350 281.000 M253.770 290.400 C 253.770 295.130,253.828 297.065,253.898 294.700 C 253.969 292.335,253.969 288.465,253.898 286.100 C 253.828 283.735,253.770 285.670,253.770 290.400 M112.493 284.000 C 112.493 284.770,112.575 285.085,112.676 284.700 C 112.776 284.315,112.776 283.685,112.676 283.300 C 112.575 282.915,112.493 283.230,112.493 284.000 M113.280 288.200 C 113.280 288.640,113.424 289.450,113.600 290.000 C 113.854 290.792,113.920 290.833,113.920 290.200 C 113.920 289.760,113.776 288.950,113.600 288.400 C 113.346 287.608,113.280 287.567,113.280 288.200 M306.250 293.250 C 306.109 293.953,306.069 294.602,306.159 294.692 C 306.250 294.783,306.448 294.291,306.600 293.600 C 306.752 292.909,306.793 292.259,306.691 292.158 C 306.589 292.056,306.391 292.547,306.250 293.250 M167.379 307.600 C 167.379 314.970,167.433 317.985,167.499 314.300 C 167.565 310.615,167.565 304.585,167.499 300.900 C 167.433 297.215,167.379 300.230,167.379 307.600 M305.029 297.829 C 304.881 298.415,304.838 298.972,304.932 299.066 C 305.027 299.160,305.224 298.758,305.371 298.171 C 305.519 297.585,305.562 297.028,305.468 296.934 C 305.373 296.840,305.176 297.242,305.029 297.829 M253.364 310.200 C 253.363 313.940,253.423 315.524,253.497 313.720 C 253.571 311.915,253.572 308.855,253.498 306.920 C 253.425 304.984,253.364 306.460,253.364 310.200 M120.028 310.200 C 120.028 310.420,120.286 311.050,120.600 311.600 C 120.914 312.150,121.172 312.420,121.172 312.200 C 121.172 311.980,120.914 311.350,120.600 310.800 C 120.286 310.250,120.028 309.980,120.028 310.200 M299.681 312.209 C 299.202 313.194,298.894 314.000,298.997 314.000 C 299.268 314.000,300.884 310.751,300.703 310.570 C 300.619 310.486,300.159 311.224,299.681 312.209 M122.000 314.400 C 122.449 315.280,122.906 316.000,123.016 316.000 C 123.126 316.000,122.849 315.280,122.400 314.400 C 121.951 313.520,121.494 312.800,121.384 312.800 C 121.274 312.800,121.551 313.520,122.000 314.400 M125.843 320.727 C 126.259 321.457,126.948 322.357,127.374 322.727 C 127.824 323.118,127.666 322.731,126.996 321.800 C 125.393 319.574,124.950 319.161,125.843 320.727 M253.709 321.200 C 253.709 322.190,253.787 322.595,253.882 322.100 C 253.978 321.605,253.978 320.795,253.882 320.300 C 253.787 319.805,253.709 320.210,253.709 321.200 M129.127 325.100 C 129.783 325.925,130.822 327.050,131.436 327.600 C 132.049 328.150,131.577 327.475,130.387 326.100 C 127.996 323.339,127.260 322.755,129.127 325.100 M254.093 324.800 C 254.093 325.570,254.175 325.885,254.276 325.500 C 254.376 325.115,254.376 324.485,254.276 324.100 C 254.175 323.715,254.093 324.030,254.093 324.800 M287.588 329.500 L 285.000 332.200 287.700 329.612 C 289.185 328.188,290.400 326.973,290.400 326.912 C 290.400 326.617,289.993 326.992,287.588 329.500 M135.400 331.600 C 136.259 332.480,137.052 333.200,137.162 333.200 C 137.272 333.200,136.659 332.480,135.800 331.600 C 134.941 330.720,134.148 330.000,134.038 330.000 C 133.928 330.000,134.541 330.720,135.400 331.600 M257.513 334.600 C 257.745 335.040,258.618 336.030,259.453 336.800 C 260.833 338.072,259.657 336.558,257.278 334.000 C 257.175 333.890,257.281 334.160,257.513 334.600 M277.200 337.200 C 276.430 337.622,275.944 337.974,276.120 337.983 C 276.544 338.005,278.800 336.832,278.800 336.590 C 278.800 336.328,278.777 336.337,277.200 337.200 M159.000 338.427 C 158.340 338.850,157.980 339.196,158.200 339.195 C 158.420 339.195,159.140 338.837,159.800 338.400 C 160.460 337.963,160.820 337.617,160.600 337.632 C 160.380 337.647,159.660 338.004,159.000 338.427 M149.000 339.600 C 149.440 339.789,150.160 339.938,150.600 339.932 C 151.243 339.923,151.204 339.857,150.400 339.600 C 149.032 339.162,147.981 339.162,149.000 339.600 M156.000 339.600 C 155.176 339.864,155.141 339.926,155.800 339.954 C 156.240 339.973,156.870 339.813,157.200 339.600 C 157.901 339.147,157.414 339.147,156.000 339.600 M263.800 339.600 C 264.240 339.789,264.870 339.944,265.200 339.944 C 265.578 339.944,265.504 339.817,265.000 339.600 C 264.560 339.411,263.930 339.256,263.600 339.256 C 263.222 339.256,263.296 339.383,263.800 339.600 M270.400 339.600 C 269.596 339.857,269.557 339.923,270.200 339.932 C 270.640 339.938,271.360 339.789,271.800 339.600 C 272.819 339.162,271.768 339.162,270.400 339.600 M266.900 340.276 C 267.285 340.376,267.915 340.376,268.300 340.276 C 268.685 340.175,268.370 340.093,267.600 340.093 C 266.830 340.093,266.515 340.175,266.900 340.276 " stroke="none" fill="#8471c4" fill-rule="evenodd"></path><path id="path3" d="M131.907 75.090 C 132.626 75.179,133.706 75.177,134.307 75.086 C 134.908 74.995,134.320 74.922,133.000 74.924 C 131.680 74.926,131.188 75.001,131.907 75.090 M147.491 75.089 C 148.201 75.177,149.461 75.179,150.291 75.092 C 151.121 75.005,150.540 74.933,149.000 74.931 C 147.460 74.929,146.781 75.000,147.491 75.089 M270.307 75.090 C 271.026 75.179,272.106 75.177,272.707 75.086 C 273.308 74.995,272.720 74.922,271.400 74.924 C 270.080 74.926,269.588 75.001,270.307 75.090 M289.100 75.082 C 289.595 75.178,290.405 75.178,290.900 75.082 C 291.395 74.987,290.990 74.909,290.000 74.909 C 289.010 74.909,288.605 74.987,289.100 75.082 M128.305 75.483 C 128.802 75.579,129.522 75.575,129.905 75.475 C 130.287 75.375,129.880 75.296,129.000 75.301 C 128.120 75.305,127.807 75.387,128.305 75.483 M153.100 75.482 C 153.595 75.578,154.405 75.578,154.900 75.482 C 155.395 75.387,154.990 75.309,154.000 75.309 C 153.010 75.309,152.605 75.387,153.100 75.482 M266.300 75.482 C 266.795 75.578,267.605 75.578,268.100 75.482 C 268.595 75.387,268.190 75.309,267.200 75.309 C 266.210 75.309,265.805 75.387,266.300 75.482 M292.500 75.476 C 292.885 75.576,293.515 75.576,293.900 75.476 C 294.285 75.375,293.970 75.293,293.200 75.293 C 292.430 75.293,292.115 75.375,292.500 75.476 M157.500 75.882 C 157.995 75.978,158.805 75.978,159.300 75.882 C 159.795 75.787,159.390 75.709,158.400 75.709 C 157.410 75.709,157.005 75.787,157.500 75.882 M262.300 75.882 C 262.795 75.978,263.605 75.978,264.100 75.882 C 264.595 75.787,264.190 75.709,263.200 75.709 C 262.210 75.709,261.805 75.787,262.300 75.882 M161.700 76.276 C 162.085 76.376,162.715 76.376,163.100 76.276 C 163.485 76.175,163.170 76.093,162.400 76.093 C 161.630 76.093,161.315 76.175,161.700 76.276 M256.600 76.400 C 255.239 76.644,255.179 76.692,256.200 76.720 C 256.860 76.739,258.120 76.605,259.000 76.423 C 261.093 75.990,259.002 75.970,256.600 76.400 M298.200 76.400 C 298.640 76.589,299.360 76.738,299.800 76.732 C 300.443 76.723,300.404 76.657,299.600 76.400 C 298.232 75.962,297.181 75.962,298.200 76.400 M164.705 76.683 C 165.202 76.779,165.922 76.775,166.305 76.675 C 166.687 76.575,166.280 76.496,165.400 76.501 C 164.520 76.505,164.207 76.587,164.705 76.683 M301.400 77.200 C 301.840 77.389,302.470 77.544,302.800 77.544 C 303.178 77.544,303.104 77.417,302.600 77.200 C 302.160 77.011,301.530 76.856,301.200 76.856 C 300.822 76.856,300.896 76.983,301.400 77.200 M117.400 77.600 C 116.896 77.817,116.822 77.944,117.200 77.944 C 117.530 77.944,118.160 77.789,118.600 77.600 C 119.104 77.383,119.178 77.256,118.800 77.256 C 118.470 77.256,117.840 77.411,117.400 77.600 M250.500 77.476 C 250.885 77.576,251.515 77.576,251.900 77.476 C 252.285 77.375,251.970 77.293,251.200 77.293 C 250.430 77.293,250.115 77.375,250.500 77.476 M176.800 78.400 C 177.350 78.576,178.160 78.720,178.600 78.720 C 179.233 78.720,179.192 78.654,178.400 78.400 C 177.850 78.224,177.040 78.080,176.600 78.080 C 175.967 78.080,176.008 78.146,176.800 78.400 M244.000 78.400 C 243.208 78.654,243.167 78.720,243.800 78.720 C 244.240 78.720,245.050 78.576,245.600 78.400 C 246.392 78.146,246.433 78.080,245.800 78.080 C 245.360 78.080,244.550 78.224,244.000 78.400 M112.300 79.627 C 111.475 80.063,110.800 80.508,110.800 80.618 C 110.800 80.796,113.959 79.319,114.367 78.951 C 114.827 78.534,113.625 78.928,112.300 79.627 M187.600 80.400 C 188.150 80.576,188.960 80.720,189.400 80.720 C 190.033 80.720,189.992 80.654,189.200 80.400 C 188.650 80.224,187.840 80.080,187.400 80.080 C 186.767 80.080,186.808 80.146,187.600 80.400 M233.200 80.400 C 232.408 80.654,232.367 80.720,233.000 80.720 C 233.440 80.720,234.250 80.576,234.800 80.400 C 235.592 80.146,235.633 80.080,235.000 80.080 C 234.560 80.080,233.750 80.224,233.200 80.400 M109.000 81.835 L 107.800 82.866 109.100 82.006 C 109.815 81.533,110.400 81.068,110.400 80.973 C 110.400 80.673,110.231 80.778,109.000 81.835 M197.000 82.400 C 197.440 82.589,198.160 82.738,198.600 82.732 C 199.243 82.723,199.204 82.657,198.400 82.400 C 197.032 81.962,195.981 81.962,197.000 82.400 M223.600 82.400 C 222.796 82.657,222.757 82.723,223.400 82.732 C 223.840 82.738,224.560 82.589,225.000 82.400 C 226.019 81.962,224.968 81.962,223.600 82.400 M312.438 82.217 C 312.474 82.589,316.000 85.873,316.000 85.535 C 316.000 85.442,315.190 84.572,314.200 83.600 C 313.210 82.628,312.417 82.006,312.438 82.217 M205.800 84.400 C 206.240 84.589,206.960 84.738,207.400 84.732 C 208.043 84.723,208.004 84.657,207.200 84.400 C 205.832 83.962,204.781 83.962,205.800 84.400 M214.000 84.400 C 213.208 84.654,213.167 84.720,213.800 84.720 C 214.240 84.720,215.050 84.576,215.600 84.400 C 216.392 84.146,216.433 84.080,215.800 84.080 C 215.360 84.080,214.550 84.224,214.000 84.400 M209.000 85.200 C 209.440 85.389,210.160 85.538,210.600 85.532 C 211.243 85.523,211.204 85.457,210.400 85.200 C 209.032 84.762,207.981 84.762,209.000 85.200 M104.400 86.400 C 103.930 87.060,103.636 87.600,103.746 87.600 C 103.856 87.600,104.330 87.060,104.800 86.400 C 105.270 85.740,105.564 85.200,105.454 85.200 C 105.344 85.200,104.870 85.740,104.400 86.400 M100.229 95.029 C 100.081 95.615,100.038 96.172,100.132 96.266 C 100.227 96.360,100.424 95.958,100.571 95.371 C 100.719 94.785,100.762 94.228,100.668 94.134 C 100.573 94.040,100.376 94.442,100.229 95.029 M322.093 103.200 C 322.093 103.970,322.175 104.285,322.276 103.900 C 322.376 103.515,322.376 102.885,322.276 102.500 C 322.175 102.115,322.093 102.430,322.093 103.200 M98.509 104.800 C 98.509 105.790,98.587 106.195,98.682 105.700 C 98.778 105.205,98.778 104.395,98.682 103.900 C 98.587 103.405,98.509 103.810,98.509 104.800 M322.509 106.400 C 322.509 107.390,322.587 107.795,322.682 107.300 C 322.778 106.805,322.778 105.995,322.682 105.500 C 322.587 105.005,322.509 105.410,322.509 106.400 M98.120 108.800 C 98.120 110.010,98.195 110.505,98.287 109.900 C 98.378 109.295,98.378 108.305,98.287 107.700 C 98.195 107.095,98.120 107.590,98.120 108.800 M322.962 115.800 C 322.962 119.320,323.024 120.706,323.098 118.881 C 323.172 117.056,323.172 114.176,323.097 112.481 C 323.022 110.786,322.961 112.280,322.962 115.800 M98.131 123.000 C 98.133 124.540,98.205 125.121,98.292 124.291 C 98.379 123.461,98.377 122.201,98.289 121.491 C 98.200 120.781,98.129 121.460,98.131 123.000 M322.524 125.800 C 322.526 127.120,322.601 127.612,322.690 126.893 C 322.779 126.174,322.777 125.094,322.686 124.493 C 322.595 123.892,322.522 124.480,322.524 125.800 M98.520 128.000 C 98.520 129.210,98.595 129.705,98.687 129.100 C 98.778 128.495,98.778 127.505,98.687 126.900 C 98.595 126.295,98.520 126.790,98.520 128.000 M322.109 130.000 C 322.109 130.990,322.187 131.395,322.282 130.900 C 322.378 130.405,322.378 129.595,322.282 129.100 C 322.187 128.605,322.109 129.010,322.109 130.000 M321.693 134.400 C 321.693 135.170,321.775 135.485,321.876 135.100 C 321.976 134.715,321.976 134.085,321.876 133.700 C 321.775 133.315,321.693 133.630,321.693 134.400 M99.301 136.200 C 99.305 137.080,99.387 137.393,99.483 136.895 C 99.579 136.398,99.575 135.678,99.475 135.295 C 99.375 134.913,99.296 135.320,99.301 136.200 M321.301 137.400 C 321.305 138.280,321.387 138.593,321.483 138.095 C 321.579 137.598,321.575 136.878,321.475 136.495 C 321.375 136.113,321.296 136.520,321.301 137.400 M320.493 142.800 C 320.493 143.570,320.575 143.885,320.676 143.500 C 320.776 143.115,320.776 142.485,320.676 142.100 C 320.575 141.715,320.493 142.030,320.493 142.800 M100.493 144.400 C 100.493 145.170,100.575 145.485,100.676 145.100 C 100.776 144.715,100.776 144.085,100.676 143.700 C 100.575 143.315,100.493 143.630,100.493 144.400 M100.887 147.400 C 100.891 147.840,101.032 148.740,101.200 149.400 C 101.474 150.478,101.506 150.498,101.513 149.600 C 101.517 149.050,101.376 148.150,101.200 147.600 C 100.949 146.816,100.881 146.773,100.887 147.400 M102.087 153.800 C 102.091 154.240,102.232 155.140,102.400 155.800 C 102.674 156.878,102.706 156.898,102.713 156.000 C 102.717 155.450,102.576 154.550,102.400 154.000 C 102.149 153.216,102.081 153.173,102.087 153.800 M103.062 159.000 C 103.196 159.880,103.372 160.675,103.453 160.767 C 103.756 161.110,103.529 158.968,103.181 158.200 C 102.929 157.642,102.893 157.885,103.062 159.000 M317.422 159.422 C 317.272 160.225,317.228 160.962,317.326 161.060 C 317.424 161.157,317.627 160.581,317.778 159.778 C 317.928 158.975,317.972 158.238,317.874 158.140 C 317.776 158.043,317.573 158.619,317.422 159.422 M106.868 175.600 C 106.888 176.639,107.518 178.346,107.532 177.400 C 107.538 176.960,107.389 176.240,107.200 175.800 C 106.989 175.310,106.861 175.232,106.868 175.600 M313.429 177.029 C 313.281 177.615,313.238 178.172,313.332 178.266 C 313.427 178.360,313.624 177.958,313.771 177.371 C 313.919 176.785,313.962 176.228,313.868 176.134 C 313.773 176.040,313.576 176.442,313.429 177.029 M108.056 180.400 C 108.056 180.730,108.211 181.360,108.400 181.800 C 108.617 182.304,108.744 182.378,108.744 182.000 C 108.744 181.670,108.589 181.040,108.400 180.600 C 108.183 180.096,108.056 180.022,108.056 180.400 M312.250 181.650 C 311.917 183.317,312.240 183.640,312.600 182.000 C 312.752 181.309,312.793 180.659,312.691 180.558 C 312.589 180.456,312.391 180.947,312.250 181.650 M108.856 183.600 C 108.856 183.930,109.011 184.560,109.200 185.000 C 109.417 185.504,109.544 185.578,109.544 185.200 C 109.544 184.870,109.389 184.240,109.200 183.800 C 108.983 183.296,108.856 183.222,108.856 183.600 M110.056 188.000 C 110.056 188.330,110.211 188.960,110.400 189.400 C 110.617 189.904,110.744 189.978,110.744 189.600 C 110.744 189.270,110.589 188.640,110.400 188.200 C 110.183 187.696,110.056 187.622,110.056 188.000 M112.056 195.200 C 112.056 195.530,112.211 196.160,112.400 196.600 C 112.617 197.104,112.744 197.178,112.744 196.800 C 112.744 196.470,112.589 195.840,112.400 195.400 C 112.183 194.896,112.056 194.822,112.056 195.200 M114.056 202.000 C 114.056 202.330,114.211 202.960,114.400 203.400 C 114.617 203.904,114.744 203.978,114.744 203.600 C 114.744 203.270,114.589 202.640,114.400 202.200 C 114.183 201.696,114.056 201.622,114.056 202.000 M305.429 205.829 C 305.281 206.415,305.238 206.972,305.332 207.066 C 305.427 207.160,305.624 206.758,305.771 206.171 C 305.919 205.585,305.962 205.028,305.868 204.934 C 305.773 204.840,305.576 205.242,305.429 205.829 M116.056 208.400 C 116.056 208.730,116.211 209.360,116.400 209.800 C 116.617 210.304,116.744 210.378,116.744 210.000 C 116.744 209.670,116.589 209.040,116.400 208.600 C 116.183 208.096,116.056 208.022,116.056 208.400 M117.246 218.067 C 117.221 218.434,117.096 219.064,116.970 219.467 C 116.752 220.162,116.763 220.163,117.197 219.487 C 117.448 219.096,117.573 218.466,117.473 218.087 C 117.311 217.468,117.288 217.466,117.246 218.067 M304.068 220.600 C 304.062 221.040,304.211 221.760,304.400 222.200 C 304.838 223.219,304.838 222.168,304.400 220.800 C 304.143 219.996,304.077 219.957,304.068 220.600 M116.250 222.050 C 115.917 223.717,116.240 224.040,116.600 222.400 C 116.752 221.709,116.793 221.059,116.691 220.958 C 116.589 220.856,116.391 221.347,116.250 222.050 M216.800 224.333 C 217.130 224.536,217.850 224.824,218.400 224.971 C 219.095 225.157,219.217 225.125,218.800 224.867 C 218.470 224.664,217.750 224.376,217.200 224.229 C 216.505 224.043,216.383 224.075,216.800 224.333 M193.500 229.029 C 192.005 229.840,192.096 230.178,193.600 229.400 C 194.260 229.059,194.800 228.694,194.800 228.590 C 194.800 228.332,194.757 228.347,193.500 229.029 M230.800 231.318 C 230.800 231.399,231.655 232.049,232.700 232.764 C 234.138 233.748,234.308 233.808,233.400 233.012 C 232.192 231.954,230.800 231.047,230.800 231.318 M186.043 234.023 C 185.517 234.461,185.171 234.905,185.275 235.008 C 185.379 235.112,185.886 234.748,186.401 234.198 C 187.524 233.004,187.362 232.925,186.043 234.023 M181.789 238.100 L 179.000 241.000 181.900 238.211 C 184.594 235.620,184.983 235.200,184.689 235.200 C 184.628 235.200,183.323 236.505,181.789 238.100 M113.055 237.855 C 112.913 238.886,112.874 239.808,112.969 239.902 C 113.063 239.996,113.265 239.239,113.418 238.218 C 113.571 237.198,113.610 236.276,113.504 236.171 C 113.398 236.065,113.196 236.823,113.055 237.855 M239.000 238.000 C 239.859 238.880,240.652 239.600,240.762 239.600 C 240.872 239.600,240.259 238.880,239.400 238.000 C 238.541 237.120,237.748 236.400,237.638 236.400 C 237.528 236.400,238.141 237.120,239.000 238.000 M242.602 242.300 C 243.661 243.675,244.601 244.800,244.689 244.800 C 244.970 244.800,242.299 241.232,241.471 240.502 C 241.033 240.116,241.542 240.925,242.602 242.300 M308.093 241.600 C 308.093 242.370,308.175 242.685,308.276 242.300 C 308.376 241.915,308.376 241.285,308.276 240.900 C 308.175 240.515,308.093 240.830,308.093 241.600 M112.501 243.000 C 112.505 243.880,112.587 244.193,112.683 243.695 C 112.779 243.198,112.775 242.478,112.675 242.095 C 112.575 241.713,112.496 242.120,112.501 243.000 M177.098 243.500 C 175.607 245.566,174.826 246.864,175.472 246.200 C 176.183 245.469,178.872 241.600,178.668 241.600 C 178.558 241.600,177.851 242.455,177.098 243.500 M308.501 244.600 C 308.505 245.480,308.587 245.793,308.683 245.295 C 308.779 244.798,308.775 244.078,308.675 243.695 C 308.575 243.313,308.496 243.720,308.501 244.600 M112.101 246.200 C 112.105 247.080,112.187 247.393,112.283 246.895 C 112.379 246.398,112.375 245.678,112.275 245.295 C 112.175 244.913,112.096 245.320,112.101 246.200 M173.580 249.240 C 172.902 250.583,172.414 251.747,172.494 251.828 C 172.575 251.908,173.215 250.810,173.917 249.387 C 174.618 247.964,175.107 246.800,175.002 246.800 C 174.897 246.800,174.257 247.898,173.580 249.240 M308.909 248.400 C 308.909 249.390,308.987 249.795,309.082 249.300 C 309.178 248.805,309.178 247.995,309.082 247.500 C 308.987 247.005,308.909 247.410,308.909 248.400 M247.283 249.787 C 247.985 251.210,248.625 252.308,248.706 252.228 C 248.885 252.049,246.466 247.200,246.198 247.200 C 246.093 247.200,246.582 248.364,247.283 249.787 M111.720 250.800 C 111.720 252.010,111.795 252.505,111.887 251.900 C 111.978 251.295,111.978 250.305,111.887 249.700 C 111.795 249.095,111.720 249.590,111.720 250.800 M309.350 255.800 C 309.351 258.220,309.416 259.158,309.496 257.885 C 309.576 256.612,309.575 254.632,309.494 253.485 C 309.414 252.338,309.349 253.380,309.350 255.800 M111.369 262.600 C 111.370 267.220,111.428 269.055,111.499 266.678 C 111.570 264.301,111.569 260.521,111.498 258.278 C 111.427 256.035,111.369 257.980,111.369 262.600 M252.087 263.800 C 252.091 264.240,252.232 265.140,252.400 265.800 C 252.674 266.878,252.706 266.898,252.713 266.000 C 252.717 265.450,252.576 264.550,252.400 264.000 C 252.149 263.216,252.081 263.173,252.087 263.800 M309.351 268.800 C 309.351 271.330,309.416 272.365,309.496 271.100 C 309.575 269.835,309.575 267.765,309.496 266.500 C 309.416 265.235,309.351 266.270,309.351 268.800 M167.701 269.800 C 167.705 270.680,167.787 270.993,167.883 270.495 C 167.979 269.998,167.975 269.278,167.875 268.895 C 167.775 268.513,167.696 268.920,167.701 269.800 M253.309 271.600 C 253.309 272.590,253.387 272.995,253.482 272.500 C 253.578 272.005,253.578 271.195,253.482 270.700 C 253.387 270.205,253.309 270.610,253.309 271.600 M111.720 273.600 C 111.720 274.810,111.795 275.305,111.887 274.700 C 111.978 274.095,111.978 273.105,111.887 272.500 C 111.795 271.895,111.720 272.390,111.720 273.600 M167.314 273.400 C 167.317 274.500,167.395 274.903,167.487 274.295 C 167.579 273.686,167.577 272.786,167.482 272.295 C 167.387 271.803,167.311 272.300,167.314 273.400 M308.901 275.800 C 308.905 276.680,308.987 276.993,309.083 276.495 C 309.179 275.998,309.175 275.278,309.075 274.895 C 308.975 274.513,308.896 274.920,308.901 275.800 M253.731 277.400 C 253.733 278.940,253.805 279.521,253.892 278.691 C 253.979 277.861,253.977 276.601,253.889 275.891 C 253.800 275.181,253.729 275.860,253.731 277.400 M112.093 278.000 C 112.093 278.770,112.175 279.085,112.276 278.700 C 112.376 278.315,112.376 277.685,112.276 277.300 C 112.175 276.915,112.093 277.230,112.093 278.000 M166.987 299.400 C 166.987 311.500,167.037 316.508,167.100 310.528 C 167.162 304.549,167.162 294.649,167.100 288.528 C 167.038 282.408,166.987 287.300,166.987 299.400 M308.493 279.600 C 308.493 280.370,308.575 280.685,308.676 280.300 C 308.776 279.915,308.776 279.285,308.676 278.900 C 308.575 278.515,308.493 278.830,308.493 279.600 M112.493 280.800 C 112.493 281.570,112.575 281.885,112.676 281.500 C 112.776 281.115,112.776 280.485,112.676 280.100 C 112.575 279.715,112.493 280.030,112.493 280.800 M254.172 290.600 C 254.172 295.660,254.229 297.675,254.299 295.077 C 254.369 292.480,254.368 288.340,254.298 285.877 C 254.228 283.415,254.171 285.540,254.172 290.600 M307.400 286.000 C 307.246 286.910,307.204 287.738,307.307 287.840 C 307.410 287.943,307.613 287.277,307.760 286.360 C 307.907 285.443,307.948 284.615,307.853 284.520 C 307.758 284.424,307.554 285.090,307.400 286.000 M114.087 290.000 C 114.083 290.550,114.224 291.450,114.400 292.000 C 114.831 293.344,114.831 291.892,114.400 290.200 C 114.126 289.122,114.094 289.102,114.087 290.000 M305.429 295.029 C 305.281 295.615,305.238 296.172,305.332 296.266 C 305.427 296.360,305.624 295.958,305.771 295.371 C 305.919 294.785,305.962 294.228,305.868 294.134 C 305.773 294.040,305.576 294.442,305.429 295.029 M116.056 298.000 C 116.056 298.330,116.211 298.960,116.400 299.400 C 116.617 299.904,116.744 299.978,116.744 299.600 C 116.744 299.270,116.589 298.640,116.400 298.200 C 116.183 297.696,116.056 297.622,116.056 298.000 M253.760 310.200 C 253.761 313.500,253.822 314.797,253.898 313.082 C 253.973 311.367,253.972 308.667,253.897 307.082 C 253.821 305.497,253.759 306.900,253.760 310.200 M299.872 311.019 C 298.932 312.989,299.064 313.324,300.047 311.462 C 300.493 310.616,300.787 309.854,300.701 309.767 C 300.614 309.681,300.241 310.244,299.872 311.019 M125.149 319.000 C 125.365 319.440,125.834 320.160,126.193 320.600 L 126.844 321.400 126.451 320.600 C 126.235 320.160,125.766 319.440,125.407 319.000 L 124.756 318.200 125.149 319.000 M254.120 320.800 C 254.120 322.010,254.195 322.505,254.287 321.900 C 254.378 321.295,254.378 320.305,254.287 319.700 C 254.195 319.095,254.120 319.590,254.120 320.800 M294.000 321.200 C 293.530 321.860,293.236 322.400,293.346 322.400 C 293.456 322.400,293.930 321.860,294.400 321.200 C 294.870 320.540,295.164 320.000,295.054 320.000 C 294.944 320.000,294.470 320.540,294.000 321.200 M127.206 321.833 C 127.209 322.035,127.856 322.920,128.644 323.800 L 130.076 325.400 128.761 323.600 C 128.037 322.610,127.390 321.725,127.323 321.633 C 127.255 321.542,127.203 321.632,127.206 321.833 M166.493 323.200 C 166.493 323.970,166.575 324.285,166.676 323.900 C 166.776 323.515,166.776 322.885,166.676 322.500 C 166.575 322.115,166.493 322.430,166.493 323.200 M254.501 324.600 C 254.505 325.480,254.587 325.793,254.683 325.295 C 254.779 324.798,254.775 324.078,254.675 323.695 C 254.575 323.313,254.496 323.720,254.501 324.600 M288.400 328.006 C 286.750 329.767,285.497 331.206,285.615 331.204 C 285.822 331.200,288.136 328.822,290.582 326.100 C 292.934 323.481,291.313 324.898,288.400 328.006 M132.800 328.538 C 134.450 330.255,136.520 332.217,137.400 332.898 C 139.220 334.308,139.211 334.298,133.800 329.191 C 129.986 325.591,129.939 325.561,132.800 328.538 M165.429 328.229 C 165.281 328.815,165.238 329.372,165.332 329.466 C 165.427 329.560,165.624 329.158,165.771 328.571 C 165.919 327.985,165.962 327.428,165.868 327.334 C 165.773 327.240,165.576 327.642,165.429 328.229 M163.878 332.605 C 163.512 333.372,163.295 334.000,163.396 334.000 C 163.670 334.000,164.884 331.551,164.701 331.368 C 164.614 331.281,164.244 331.838,163.878 332.605 M257.221 333.535 C 257.792 334.736,260.304 337.520,261.295 338.051 C 261.716 338.276,261.182 337.592,260.109 336.530 C 259.036 335.469,257.848 334.150,257.468 333.600 C 256.831 332.678,256.811 332.673,257.221 333.535 M276.400 337.200 C 275.630 337.622,275.144 337.974,275.320 337.983 C 275.744 338.005,278.000 336.832,278.000 336.590 C 278.000 336.328,277.977 336.337,276.400 337.200 M157.800 338.614 C 157.140 338.917,156.881 339.172,157.224 339.182 C 157.566 339.192,158.196 338.936,158.624 338.613 C 159.572 337.896,159.369 337.896,157.800 338.614 M152.500 339.876 C 152.885 339.976,153.515 339.976,153.900 339.876 C 154.285 339.775,153.970 339.693,153.200 339.693 C 152.430 339.693,152.115 339.775,152.500 339.876 M266.900 339.876 C 267.285 339.976,267.915 339.976,268.300 339.876 C 268.685 339.775,268.370 339.693,267.600 339.693 C 266.830 339.693,266.515 339.775,266.900 339.876 " stroke="none" fill="#a495d4" fill-rule="evenodd"></path><path id="path4" d="M139.091 74.689 C 139.801 74.777,141.061 74.779,141.891 74.692 C 142.721 74.605,142.140 74.533,140.600 74.531 C 139.060 74.529,138.381 74.600,139.091 74.689 M276.691 74.689 C 277.401 74.777,278.661 74.779,279.491 74.692 C 280.321 74.605,279.740 74.533,278.200 74.531 C 276.660 74.529,275.981 74.600,276.691 74.689 M282.500 74.691 C 283.325 74.778,284.675 74.778,285.500 74.691 C 286.325 74.605,285.650 74.534,284.000 74.534 C 282.350 74.534,281.675 74.605,282.500 74.691 M97.751 115.600 C 97.751 118.130,97.816 119.165,97.896 117.900 C 97.975 116.635,97.975 114.565,97.896 113.300 C 97.816 112.035,97.751 113.070,97.751 115.600 M309.748 262.400 C 309.748 264.710,309.814 265.655,309.895 264.500 C 309.976 263.345,309.976 261.455,309.895 260.300 C 309.814 259.145,309.748 260.090,309.748 262.400 M253.734 301.600 C 253.734 303.250,253.805 303.925,253.891 303.100 C 253.978 302.275,253.978 300.925,253.891 300.100 C 253.805 299.275,253.734 299.950,253.734 301.600 M253.714 317.800 C 253.717 318.900,253.795 319.303,253.887 318.695 C 253.979 318.086,253.977 317.186,253.882 316.695 C 253.787 316.203,253.711 316.700,253.714 317.800 " stroke="none" fill="#9c8bd0" fill-rule="evenodd"></path></g></svg>