<?xml version="1.0" standalone="no"?>
<!DOCTYPE svg PUBLIC "-//W3C//DTD SVG 20010904//EN"
 "http://www.w3.org/TR/2001/REC-SVG-20010904/DTD/svg10.dtd">
<svg version="1.0" xmlns="http://www.w3.org/2000/svg"
 width="1021.000000pt" height="1021.000000pt" viewBox="0 0 1021.000000 1021.000000"
 preserveAspectRatio="xMidYMid meet">

<g transform="translate(0.000000,1021.000000) scale(0.100000,-0.100000)"
fill="#000000" stroke="none">
<path d="M4905 8594 c-362 -27 -647 -84 -942 -185 -527 -182 -971 -464 -1364
-866 -540 -552 -871 -1249 -965 -2033 -36 -296 -21 -715 37 -1020 213 -1123
969 -2079 2009 -2538 332 -147 688 -241 1065 -284 142 -16 549 -16 690 0 844
96 1565 445 2146 1039 541 553 871 1247 965 2033 36 297 21 717 -37 1020 -188
983 -778 1829 -1632 2342 -430 259 -915 421 -1427 478 -101 11 -462 20 -545
14z m605 -473 c554 -82 1041 -291 1470 -631 135 -106 374 -345 480 -480 649
-819 833 -1904 489 -2885 -324 -926 -1084 -1640 -2029 -1910 -290 -82 -495
-110 -830 -110 -275 0 -373 9 -608 56 -679 135 -1326 531 -1762 1079 -591 743
-800 1718 -565 2635 309 1201 1314 2089 2545 2249 181 24 182 24 435 21 175
-3 277 -9 375 -24z"/>
<path d="M4883 7466 c-414 -79 -743 -374 -858 -771 -171 -591 182 -1197 791
-1356 76 -20 114 -23 254 -23 140 0 178 3 254 23 200 52 377 152 516 291 278
278 384 688 275 1065 -108 371 -404 655 -786 755 -108 28 -339 36 -446 16z"/>
<path d="M4935 4973 c-875 -56 -1446 -584 -1594 -1473 -10 -63 -22 -157 -26
-207 l-7 -93 1807 0 1806 0 -7 53 c-75 636 -360 1156 -792 1446 -302 203 -736
303 -1187 274z"/>
</g>
</svg>
